%TF.GenerationSoftware,KiCad,Pcbnew,9.0.6*%
%TF.CreationDate,2026-02-27T09:16:40+02:00*%
%TF.ProjectId,SeBot,5365426f-742e-46b6-9963-61645f706362,rev?*%
%TF.SameCoordinates,Original*%
%TF.FileFunction,Copper,L2,Bot*%
%TF.FilePolarity,Positive*%
%FSLAX46Y46*%
G04 Gerber Fmt 4.6, Leading zero omitted, Abs format (unit mm)*
G04 Created by KiCad (PCBNEW 9.0.6) date 2026-02-27 09:16:40*
%MOMM*%
%LPD*%
G01*
G04 APERTURE LIST*
G04 Aperture macros list*
%AMRoundRect*
0 Rectangle with rounded corners*
0 $1 Rounding radius*
0 $2 $3 $4 $5 $6 $7 $8 $9 X,Y pos of 4 corners*
0 Add a 4 corners polygon primitive as box body*
4,1,4,$2,$3,$4,$5,$6,$7,$8,$9,$2,$3,0*
0 Add four circle primitives for the rounded corners*
1,1,$1+$1,$2,$3*
1,1,$1+$1,$4,$5*
1,1,$1+$1,$6,$7*
1,1,$1+$1,$8,$9*
0 Add four rect primitives between the rounded corners*
20,1,$1+$1,$2,$3,$4,$5,0*
20,1,$1+$1,$4,$5,$6,$7,0*
20,1,$1+$1,$6,$7,$8,$9,0*
20,1,$1+$1,$8,$9,$2,$3,0*%
G04 Aperture macros list end*
%TA.AperFunction,ComponentPad*%
%ADD10RoundRect,0.250000X0.550000X-0.550000X0.550000X0.550000X-0.550000X0.550000X-0.550000X-0.550000X0*%
%TD*%
%TA.AperFunction,ComponentPad*%
%ADD11C,1.600000*%
%TD*%
%TA.AperFunction,ComponentPad*%
%ADD12RoundRect,0.250000X1.050000X1.050000X-1.050000X1.050000X-1.050000X-1.050000X1.050000X-1.050000X0*%
%TD*%
%TA.AperFunction,ComponentPad*%
%ADD13C,2.600000*%
%TD*%
%TA.AperFunction,ComponentPad*%
%ADD14R,1.700000X1.700000*%
%TD*%
%TA.AperFunction,ComponentPad*%
%ADD15C,1.700000*%
%TD*%
%TA.AperFunction,ComponentPad*%
%ADD16R,1.800000X1.800000*%
%TD*%
%TA.AperFunction,ComponentPad*%
%ADD17C,1.800000*%
%TD*%
%TA.AperFunction,ComponentPad*%
%ADD18RoundRect,0.250000X-1.050000X1.050000X-1.050000X-1.050000X1.050000X-1.050000X1.050000X1.050000X0*%
%TD*%
%TA.AperFunction,ComponentPad*%
%ADD19RoundRect,0.250000X1.050000X-1.050000X1.050000X1.050000X-1.050000X1.050000X-1.050000X-1.050000X0*%
%TD*%
%TA.AperFunction,ComponentPad*%
%ADD20RoundRect,0.250000X0.550000X0.550000X-0.550000X0.550000X-0.550000X-0.550000X0.550000X-0.550000X0*%
%TD*%
%TA.AperFunction,ViaPad*%
%ADD21C,0.800000*%
%TD*%
%TA.AperFunction,Conductor*%
%ADD22C,1.000000*%
%TD*%
%TA.AperFunction,Conductor*%
%ADD23C,0.300000*%
%TD*%
G04 APERTURE END LIST*
D10*
%TO.P,U1,1,EN1\u002C2*%
%TO.N,/PWM_M1_OUT*%
X14110000Y50790000D03*
D11*
%TO.P,U1,2,1A*%
%TO.N,/DIR_M1_MINUS*%
X16650000Y50790000D03*
%TO.P,U1,3,1Y*%
%TO.N,/M1_MINUS*%
X19190000Y50790000D03*
%TO.P,U1,4,GND*%
%TO.N,GND*%
X21730000Y50790000D03*
%TO.P,U1,5,GND*%
X24270000Y50790000D03*
%TO.P,U1,6,2Y*%
%TO.N,/M1_PLUS*%
X26810000Y50790000D03*
%TO.P,U1,7,2A*%
%TO.N,/DIR_M1_PLUS*%
X29350000Y50790000D03*
%TO.P,U1,8,VCC2*%
%TO.N,+BATT*%
X31890000Y50790000D03*
%TO.P,U1,9,EN3\u002C4*%
%TO.N,/PWM_M2_OUT*%
X31890000Y58410000D03*
%TO.P,U1,10,3A*%
%TO.N,/DIR_M2_MINUS*%
X29350000Y58410000D03*
%TO.P,U1,11,3Y*%
%TO.N,/M2_MINUS*%
X26810000Y58410000D03*
%TO.P,U1,12,GND*%
%TO.N,GND*%
X24270000Y58410000D03*
%TO.P,U1,13,GND*%
X21730000Y58410000D03*
%TO.P,U1,14,4Y*%
%TO.N,/M2_PLUS*%
X19190000Y58410000D03*
%TO.P,U1,15,4A*%
%TO.N,/DIR_M2_PLUS*%
X16650000Y58410000D03*
%TO.P,U1,16,VCC1*%
%TO.N,+5V*%
X14110000Y58410000D03*
%TD*%
D12*
%TO.P,J3,1,Pin_1*%
%TO.N,+BATT*%
X25475000Y67060000D03*
D13*
%TO.P,J3,2,Pin_2*%
%TO.N,GND*%
X20395000Y67060000D03*
%TD*%
D11*
%TO.P,C2,1*%
%TO.N,+5V*%
X14110000Y62100000D03*
%TO.P,C2,2*%
%TO.N,GND*%
X11610000Y62100000D03*
%TD*%
%TO.P,R6,1*%
%TO.N,/PWM_M1_OUT*%
X19215000Y43340000D03*
%TO.P,R6,2*%
%TO.N,GND*%
X26835000Y43340000D03*
%TD*%
D14*
%TO.P,J4,1,Pin_1*%
%TO.N,unconnected-(J4-Pin_1-Pad1)*%
X30620000Y2440000D03*
D15*
%TO.P,J4,2,Pin_2*%
%TO.N,unconnected-(J4-Pin_2-Pad2)*%
X30620000Y4980000D03*
%TO.P,J4,3,Pin_3*%
%TO.N,unconnected-(J4-Pin_3-Pad3)*%
X30620000Y7520000D03*
%TO.P,J4,4,Pin_4*%
%TO.N,/+BATT_M*%
X30620000Y10060000D03*
%TO.P,J4,5,Pin_5*%
%TO.N,unconnected-(J4-Pin_5-Pad5)*%
X30620000Y12600000D03*
%TO.P,J4,6,Pin_6*%
%TO.N,unconnected-(J4-Pin_6-Pad6)*%
X30620000Y15140000D03*
%TO.P,J4,7,Pin_7*%
%TO.N,unconnected-(J4-Pin_7-Pad7)*%
X30620000Y17680000D03*
%TO.P,J4,8,Pin_8*%
%TO.N,unconnected-(J4-Pin_8-Pad8)*%
X30620000Y20220000D03*
%TO.P,J4,9,Pin_9*%
%TO.N,unconnected-(J4-Pin_9-Pad9)*%
X30620000Y22760000D03*
%TO.P,J4,10,Pin_10*%
%TO.N,unconnected-(J4-Pin_10-Pad10)*%
X30620000Y25300000D03*
%TO.P,J4,11,Pin_11*%
%TO.N,unconnected-(J4-Pin_11-Pad11)*%
X30620000Y27840000D03*
%TO.P,J4,12,Pin_12*%
%TO.N,+5V*%
X30620000Y30380000D03*
%TO.P,J4,13,Pin_13*%
%TO.N,unconnected-(J4-Pin_13-Pad13)*%
X30620000Y32920000D03*
%TO.P,J4,14,Pin_14*%
%TO.N,GND*%
X30620000Y35460000D03*
%TO.P,J4,15,Pin_15*%
%TO.N,unconnected-(J4-Pin_15-Pad15)*%
X30620000Y38000000D03*
%TO.P,J4,16,Pin_16*%
%TO.N,unconnected-(J4-Pin_16-Pad16)*%
X30620000Y40540000D03*
%TO.P,J4,17,Pin_17*%
%TO.N,unconnected-(J4-Pin_17-Pad17)*%
X30620000Y43080000D03*
%TD*%
D16*
%TO.P,D1,1,K*%
%TO.N,GND*%
X3450000Y2580000D03*
D17*
%TO.P,D1,2,A*%
%TO.N,Net-(D1-A)*%
X3450000Y5120000D03*
%TD*%
D16*
%TO.P,D2,1,K*%
%TO.N,GND*%
X42750000Y2580000D03*
D17*
%TO.P,D2,2,A*%
%TO.N,Net-(D2-A)*%
X42750000Y5120000D03*
%TD*%
D11*
%TO.P,R2,1*%
%TO.N,Net-(R1-Pad2)*%
X37580000Y9310000D03*
%TO.P,R2,2*%
%TO.N,GND*%
X37580000Y1690000D03*
%TD*%
%TO.P,R3,1*%
%TO.N,Net-(R1-Pad2)*%
X34210000Y9310000D03*
%TO.P,R3,2*%
%TO.N,/+BATT_M*%
X34210000Y1690000D03*
%TD*%
%TO.P,R7,1*%
%TO.N,/PWM_M2_OUT*%
X19215000Y40140000D03*
%TO.P,R7,2*%
%TO.N,GND*%
X26835000Y40140000D03*
%TD*%
D18*
%TO.P,J2,1,Pin_1*%
%TO.N,/M2_MINUS*%
X4940000Y56890000D03*
D13*
%TO.P,J2,2,Pin_2*%
%TO.N,+5V*%
X4940000Y51810000D03*
%TO.P,J2,3,Pin_3*%
%TO.N,/M2_ENC_A*%
X4940000Y46730000D03*
%TO.P,J2,4,Pin_4*%
%TO.N,/M2_ENC_B*%
X4940000Y41650000D03*
%TO.P,J2,5,Pin_5*%
%TO.N,GND*%
X4940000Y36570000D03*
%TO.P,J2,6,Pin_6*%
%TO.N,/M2_PLUS*%
X4940000Y31490000D03*
%TD*%
D19*
%TO.P,J1,1,Pin_1*%
%TO.N,/M1_PLUS*%
X41060000Y31490000D03*
D13*
%TO.P,J1,2,Pin_2*%
%TO.N,GND*%
X41060000Y36570000D03*
%TO.P,J1,3,Pin_3*%
%TO.N,/M1_ENC_B*%
X41060000Y41650000D03*
%TO.P,J1,4,Pin_4*%
%TO.N,/M1_ENC_A*%
X41060000Y46730000D03*
%TO.P,J1,5,Pin_5*%
%TO.N,+5V*%
X41060000Y51810000D03*
%TO.P,J1,6,Pin_6*%
%TO.N,/M1_MINUS*%
X41060000Y56890000D03*
%TD*%
D14*
%TO.P,J6,1,Pin_1*%
%TO.N,/PWM_M2_IN*%
X7720000Y20221750D03*
D15*
%TO.P,J6,2,Pin_2*%
%TO.N,/PWM_M2_OUT*%
X5180000Y20221750D03*
%TO.P,J6,3,Pin_3*%
%TO.N,/E-STOP_ST*%
X7720000Y22761750D03*
%TO.P,J6,4,Pin_4*%
%TO.N,GND*%
X5180000Y22761750D03*
%TO.P,J6,5,Pin_5*%
%TO.N,/PWM_M1_IN*%
X7720000Y25301750D03*
%TO.P,J6,6,Pin_6*%
%TO.N,/PWM_M1_OUT*%
X5180000Y25301750D03*
%TD*%
D20*
%TO.P,C4,1*%
%TO.N,+BATT*%
X34412380Y64850000D03*
D11*
%TO.P,C4,2*%
%TO.N,GND*%
X31912380Y64850000D03*
%TD*%
%TO.P,C1,1*%
%TO.N,/+BATT_M*%
X26700000Y10110000D03*
%TO.P,C1,2*%
%TO.N,GND*%
X26700000Y7610000D03*
%TD*%
%TO.P,R8,1*%
%TO.N,+5V*%
X11730000Y1690000D03*
%TO.P,R8,2*%
%TO.N,/E-STOP_ST*%
X11730000Y9310000D03*
%TD*%
%TO.P,R5,1*%
%TO.N,+BATT*%
X37560000Y26670000D03*
%TO.P,R5,2*%
%TO.N,Net-(D2-A)*%
X37560000Y19050000D03*
%TD*%
D20*
%TO.P,C5,1*%
%TO.N,+5V*%
X14110000Y67100000D03*
D11*
%TO.P,C5,2*%
%TO.N,GND*%
X12110000Y67100000D03*
%TD*%
%TO.P,R1,1*%
%TO.N,+BATT*%
X34210000Y26670000D03*
%TO.P,R1,2*%
%TO.N,Net-(R1-Pad2)*%
X34210000Y19050000D03*
%TD*%
%TO.P,C3,1*%
%TO.N,+BATT*%
X31890000Y47200000D03*
%TO.P,C3,2*%
%TO.N,GND*%
X29390000Y47200000D03*
%TD*%
%TO.P,R4,1*%
%TO.N,+5V*%
X8520000Y9310000D03*
%TO.P,R4,2*%
%TO.N,Net-(D1-A)*%
X8520000Y1690000D03*
%TD*%
D14*
%TO.P,J5,1,Pin_1*%
%TO.N,/DIR_M2_PLUS*%
X15380000Y2440000D03*
D15*
%TO.P,J5,2,Pin_2*%
%TO.N,/DIR_M2_MINUS*%
X15380000Y4980000D03*
%TO.P,J5,3,Pin_3*%
%TO.N,/PWM_M2_IN*%
X15380000Y7520000D03*
%TO.P,J5,4,Pin_4*%
%TO.N,/M2_ENC_B*%
X15380000Y10060000D03*
%TO.P,J5,5,Pin_5*%
%TO.N,/DIR_M1_PLUS*%
X15380000Y12600000D03*
%TO.P,J5,6,Pin_6*%
%TO.N,/E-STOP_ST*%
X15380000Y15140000D03*
%TO.P,J5,7,Pin_7*%
%TO.N,/DIR_M1_MINUS*%
X15380000Y17680000D03*
%TO.P,J5,8,Pin_8*%
%TO.N,/PWM_M1_IN*%
X15380000Y20220000D03*
%TO.P,J5,9,Pin_9*%
%TO.N,/M1_ENC_B*%
X15380000Y22760000D03*
%TO.P,J5,10,Pin_10*%
%TO.N,/M1_ENC_A*%
X15380000Y25300000D03*
%TO.P,J5,11,Pin_11*%
%TO.N,/M2_ENC_A*%
X15380000Y27840000D03*
%TO.P,J5,12,Pin_12*%
%TO.N,GND*%
X15380000Y30380000D03*
%TO.P,J5,13,Pin_13*%
%TO.N,unconnected-(J5-Pin_13-Pad13)*%
X15380000Y32920000D03*
%TO.P,J5,14,Pin_14*%
%TO.N,unconnected-(J5-Pin_14-Pad14)*%
X15380000Y35460000D03*
%TO.P,J5,15,Pin_15*%
%TO.N,unconnected-(J5-Pin_15-Pad15)*%
X15380000Y38000000D03*
%TO.P,J5,16,Pin_16*%
%TO.N,unconnected-(J5-Pin_16-Pad16)*%
X15380000Y40540000D03*
%TO.P,J5,17,Pin_17*%
%TO.N,unconnected-(J5-Pin_17-Pad17)*%
X15380000Y43080000D03*
%TD*%
D21*
%TO.N,/DIR_M2_MINUS*%
X23732619Y20128250D03*
X23732619Y25208250D03*
%TO.N,/DIR_M1_MINUS*%
X18652619Y25208250D03*
%TO.N,/DIR_M2_PLUS*%
X26272619Y20128250D03*
X23732619Y27748250D03*
%TO.N,/DIR_M1_PLUS*%
X21192619Y25208250D03*
%TO.N,GND*%
X22462619Y35368250D03*
X2142619Y65848250D03*
X22462619Y4888250D03*
X30082619Y60768250D03*
X32622619Y15048250D03*
X4682619Y7428250D03*
X9762619Y42988250D03*
X25002619Y17588250D03*
X17382619Y27748250D03*
X22462619Y37908250D03*
X27542619Y22668250D03*
X37702619Y30288250D03*
X2142619Y17588250D03*
X27542619Y60768250D03*
X17382619Y30288250D03*
X40242619Y7428250D03*
X2142619Y9968250D03*
X27542619Y32828250D03*
X32622619Y4888250D03*
X27542619Y15048250D03*
X9762619Y53148250D03*
X4682619Y60768250D03*
X27542619Y17588250D03*
X32622619Y60768250D03*
X17382619Y65848250D03*
X22462619Y55688250D03*
X19922619Y12508250D03*
X22462619Y30288250D03*
X27542619Y63308250D03*
X35162619Y40448250D03*
X17382619Y40448250D03*
X32622619Y40448250D03*
X2142619Y68388250D03*
X42782619Y68388250D03*
X27542619Y4888250D03*
X19922619Y55688250D03*
X19922619Y20128250D03*
X7222619Y17588250D03*
X35162619Y50608250D03*
X17382619Y63308250D03*
X19922619Y2348250D03*
X25002619Y63308250D03*
X19922619Y22668250D03*
X27542619Y27748250D03*
X37702619Y7428250D03*
X40242619Y9968250D03*
X2142619Y60768250D03*
X40242619Y2348250D03*
X30082619Y63308250D03*
X22462619Y15048250D03*
X32622619Y42988250D03*
X32622619Y37908250D03*
X32622619Y22668250D03*
X22462619Y63308250D03*
X42782619Y25208250D03*
X32622619Y25208250D03*
X35162619Y30288250D03*
X27542619Y30288250D03*
X27542619Y12508250D03*
X40242619Y4888250D03*
X17382619Y37908250D03*
X27542619Y35368250D03*
X25002619Y2348250D03*
X22462619Y40448250D03*
X40242619Y20128250D03*
X9762619Y63308250D03*
X9762619Y30288250D03*
X2142619Y15048250D03*
X2142619Y58228250D03*
X35162619Y42988250D03*
X7222619Y48068250D03*
X2142619Y7428250D03*
X35162619Y37908250D03*
X42782619Y65848250D03*
X7222619Y63308250D03*
X12302619Y55688250D03*
X42782619Y63308250D03*
X4682619Y63308250D03*
X42782619Y60768250D03*
X25002619Y4888250D03*
X7222619Y7428250D03*
X32622619Y35368250D03*
X25002619Y7428250D03*
X22462619Y32828250D03*
X17382619Y35368250D03*
X37702619Y12508250D03*
X7222619Y4888250D03*
X9762619Y68388250D03*
X2142619Y63308250D03*
X17382619Y32828250D03*
X4682619Y9968250D03*
X2142619Y53148250D03*
X22462619Y2348250D03*
X2142619Y12508250D03*
X9762619Y45528250D03*
X9762619Y7428250D03*
X19922619Y63308250D03*
X12302619Y27748250D03*
X9762619Y65848250D03*
X12302619Y15048250D03*
X27542619Y25208250D03*
X25002619Y22668250D03*
X25002619Y15048250D03*
X32622619Y17588250D03*
X37702619Y4888250D03*
X27542619Y2348250D03*
X17382619Y42988250D03*
X27542619Y55688250D03*
X27542619Y37908250D03*
X42782619Y17588250D03*
X22462619Y48068250D03*
X25002619Y55688250D03*
X32622619Y55688250D03*
X9762619Y40448250D03*
X2142619Y55688250D03*
X22462619Y42988250D03*
X42782619Y22668250D03*
X40242619Y22668250D03*
X42782619Y20128250D03*
X14842619Y45528250D03*
X12302619Y35368250D03*
X32622619Y12508250D03*
X22462619Y17588250D03*
X22462619Y22668250D03*
X9762619Y48068250D03*
X12302619Y4888250D03*
%TD*%
D22*
%TO.N,/M1_PLUS*%
X32521000Y49239000D02*
X28361000Y49239000D01*
X39009000Y33541000D02*
X39009000Y42751000D01*
X41060000Y31490000D02*
X39009000Y33541000D01*
X28361000Y49239000D02*
X26810000Y50790000D01*
X39009000Y42751000D02*
X32521000Y49239000D01*
%TO.N,/M1_MINUS*%
X36511000Y52341000D02*
X20741000Y52341000D01*
X20741000Y52341000D02*
X19190000Y50790000D01*
X41060000Y56890000D02*
X36511000Y52341000D01*
%TO.N,/M2_PLUS*%
X5490000Y31490000D02*
X12559000Y38559000D01*
X12559000Y51779000D02*
X19190000Y58410000D01*
X12559000Y38559000D02*
X12559000Y51779000D01*
%TO.N,/M2_MINUS*%
X26810000Y58410000D02*
X25259000Y59961000D01*
X8011000Y59961000D02*
X4940000Y56890000D01*
X25259000Y59961000D02*
X8011000Y59961000D01*
D23*
%TO.N,/DIR_M2_MINUS*%
X23732619Y20128250D02*
X23732619Y25208250D01*
%TO.N,/DIR_M1_MINUS*%
X18652619Y20952619D02*
X18652619Y25208250D01*
X15380000Y17680000D02*
X18652619Y20952619D01*
%TO.N,/DIR_M2_PLUS*%
X26272619Y25208250D02*
X23732619Y27748250D01*
X26272619Y20128250D02*
X26272619Y25208250D01*
%TO.N,/DIR_M1_PLUS*%
X15380000Y12600000D02*
X21192619Y18412619D01*
X21192619Y18412619D02*
X21192619Y25208250D01*
%TD*%
%TA.AperFunction,Conductor*%
%TO.N,GND*%
G36*
X6295270Y22000033D02*
G01*
X6295270Y22000034D01*
X6334622Y22054195D01*
X6339232Y22063243D01*
X6387205Y22114041D01*
X6455025Y22130838D01*
X6521161Y22108303D01*
X6560204Y22063246D01*
X6564949Y22053933D01*
X6689890Y21881964D01*
X6803430Y21768424D01*
X6836915Y21707101D01*
X6831931Y21637409D01*
X6790059Y21581476D01*
X6759083Y21564561D01*
X6627669Y21515547D01*
X6627664Y21515544D01*
X6512455Y21429298D01*
X6512452Y21429295D01*
X6426206Y21314086D01*
X6426203Y21314081D01*
X6377189Y21182667D01*
X6335317Y21126734D01*
X6269853Y21102317D01*
X6201580Y21117169D01*
X6173326Y21138320D01*
X6059786Y21251860D01*
X5887817Y21376801D01*
X5878504Y21381546D01*
X5827707Y21429520D01*
X5810912Y21497341D01*
X5833449Y21563476D01*
X5878507Y21602518D01*
X5887555Y21607128D01*
X5941716Y21646480D01*
X5941717Y21646480D01*
X5309408Y22278788D01*
X5372993Y22295825D01*
X5487007Y22361651D01*
X5580099Y22454743D01*
X5645925Y22568757D01*
X5662962Y22632342D01*
X6295270Y22000033D01*
G37*
%TD.AperFunction*%
%TA.AperFunction,Conductor*%
G36*
X6521444Y24647751D02*
G01*
X6560484Y24602696D01*
X6564591Y24594635D01*
X6564951Y24593930D01*
X6689890Y24421964D01*
X6840213Y24271641D01*
X7012182Y24146700D01*
X7020946Y24142234D01*
X7071742Y24094259D01*
X7088536Y24026438D01*
X7065998Y23960303D01*
X7020946Y23921266D01*
X7012182Y23916801D01*
X6840213Y23791860D01*
X6689890Y23641537D01*
X6564949Y23469568D01*
X6560202Y23460251D01*
X6512227Y23409457D01*
X6444405Y23392663D01*
X6378271Y23415202D01*
X6339234Y23460255D01*
X6334626Y23469298D01*
X6295270Y23523468D01*
X6295269Y23523468D01*
X5662962Y22891160D01*
X5645925Y22954743D01*
X5580099Y23068757D01*
X5487007Y23161849D01*
X5372993Y23227675D01*
X5309409Y23244713D01*
X5941716Y23877022D01*
X5887547Y23916377D01*
X5887547Y23916378D01*
X5878500Y23920987D01*
X5827706Y23968962D01*
X5810912Y24036784D01*
X5833451Y24102918D01*
X5878508Y24141957D01*
X5887816Y24146699D01*
X5967007Y24204235D01*
X6059786Y24271641D01*
X6059788Y24271644D01*
X6059792Y24271646D01*
X6210104Y24421958D01*
X6210106Y24421962D01*
X6210109Y24421964D01*
X6333777Y24592180D01*
X6335051Y24593934D01*
X6339514Y24602696D01*
X6387488Y24653491D01*
X6455308Y24670287D01*
X6521444Y24647751D01*
G37*
%TD.AperFunction*%
%TA.AperFunction,Conductor*%
G36*
X30860682Y48218815D02*
G01*
X30906437Y48166011D01*
X30916381Y48096853D01*
X30893962Y48041615D01*
X30777712Y47881610D01*
X30750203Y47827621D01*
X30702227Y47776826D01*
X30634406Y47760032D01*
X30568272Y47782571D01*
X30529234Y47827624D01*
X30501861Y47881348D01*
X30469474Y47925923D01*
X30469474Y47925924D01*
X29790000Y47246449D01*
X29790000Y47252661D01*
X29762741Y47354394D01*
X29710080Y47445606D01*
X29635606Y47520080D01*
X29544394Y47572741D01*
X29442661Y47600000D01*
X29436446Y47600000D01*
X30038628Y48202181D01*
X30099951Y48235666D01*
X30126309Y48238500D01*
X30793643Y48238500D01*
X30860682Y48218815D01*
G37*
%TD.AperFunction*%
%TA.AperFunction,Conductor*%
G36*
X12689474Y61374079D02*
G01*
X12721859Y61418651D01*
X12749233Y61472376D01*
X12797207Y61523173D01*
X12865028Y61539969D01*
X12931163Y61517433D01*
X12970203Y61472379D01*
X12997713Y61418389D01*
X13118028Y61252787D01*
X13197634Y61173181D01*
X13231119Y61111858D01*
X13226135Y61042166D01*
X13184263Y60986233D01*
X13118799Y60961816D01*
X13109953Y60961500D01*
X12446310Y60961500D01*
X12379271Y60981185D01*
X12358629Y60997819D01*
X11656447Y61700000D01*
X11662661Y61700000D01*
X11764394Y61727259D01*
X11855606Y61779920D01*
X11930080Y61854394D01*
X11982741Y61945606D01*
X12010000Y62047339D01*
X12010000Y62053553D01*
X12689474Y61374079D01*
G37*
%TD.AperFunction*%
%TA.AperFunction,Conductor*%
G36*
X43003736Y71499274D02*
G01*
X43293796Y71481729D01*
X43308659Y71479924D01*
X43590798Y71428220D01*
X43605335Y71424637D01*
X43879172Y71339305D01*
X43893163Y71334000D01*
X44154743Y71216273D01*
X44167989Y71209320D01*
X44413465Y71060925D01*
X44425776Y71052427D01*
X44651573Y70875527D01*
X44662781Y70865597D01*
X44865596Y70662782D01*
X44875526Y70651574D01*
X44995481Y70498462D01*
X45052422Y70425783D01*
X45060928Y70413460D01*
X45209316Y70167996D01*
X45216275Y70154737D01*
X45333997Y69893169D01*
X45339306Y69879168D01*
X45424635Y69605337D01*
X45428219Y69590799D01*
X45479923Y69308660D01*
X45481728Y69293795D01*
X45499274Y69003737D01*
X45499500Y68996250D01*
X45499500Y3003751D01*
X45499274Y2996264D01*
X45481728Y2706206D01*
X45479923Y2691341D01*
X45428219Y2409202D01*
X45424635Y2394664D01*
X45339306Y2120833D01*
X45333997Y2106832D01*
X45216275Y1845264D01*
X45209316Y1832005D01*
X45060928Y1586541D01*
X45052422Y1574218D01*
X44875526Y1348427D01*
X44865596Y1337219D01*
X44662781Y1134404D01*
X44651573Y1124474D01*
X44425782Y947578D01*
X44413459Y939072D01*
X44167995Y790684D01*
X44154736Y783725D01*
X43893168Y666003D01*
X43879167Y660694D01*
X43605336Y575365D01*
X43590798Y571781D01*
X43308659Y520077D01*
X43293794Y518272D01*
X43003736Y500726D01*
X42996249Y500500D01*
X38431405Y500500D01*
X38364366Y520185D01*
X38318611Y572989D01*
X38313276Y603172D01*
X37626447Y1290000D01*
X37632661Y1290000D01*
X37734394Y1317259D01*
X37825606Y1369920D01*
X37900080Y1444394D01*
X37952741Y1535606D01*
X37980000Y1637339D01*
X37980000Y1643553D01*
X38659474Y964079D01*
X38691859Y1008651D01*
X38784755Y1190969D01*
X38847990Y1385583D01*
X38880000Y1587683D01*
X38880000Y1792318D01*
X38847990Y1994418D01*
X38784754Y2189035D01*
X38715443Y2325066D01*
X38715442Y2325067D01*
X38691859Y2371350D01*
X38659474Y2415923D01*
X38659474Y2415924D01*
X37980000Y1736449D01*
X37980000Y1742661D01*
X37952741Y1844394D01*
X37900080Y1935606D01*
X37825606Y2010080D01*
X37734394Y2062741D01*
X37632661Y2090000D01*
X37626446Y2090000D01*
X38305922Y2769476D01*
X38305921Y2769477D01*
X38261359Y2801853D01*
X38261350Y2801859D01*
X38079031Y2894756D01*
X37884417Y2957991D01*
X37682317Y2990000D01*
X37477683Y2990000D01*
X37275582Y2957991D01*
X37080968Y2894756D01*
X36898644Y2801857D01*
X36854077Y2769477D01*
X36854077Y2769476D01*
X37533554Y2090000D01*
X37527339Y2090000D01*
X37425606Y2062741D01*
X37334394Y2010080D01*
X37259920Y1935606D01*
X37207259Y1844394D01*
X37180000Y1742661D01*
X37180000Y1736447D01*
X36500524Y2415923D01*
X36500523Y2415923D01*
X36468143Y2371356D01*
X36375244Y2189032D01*
X36312009Y1994418D01*
X36280000Y1792318D01*
X36280000Y1587683D01*
X36312009Y1385583D01*
X36375244Y1190969D01*
X36468141Y1008650D01*
X36468147Y1008641D01*
X36500523Y964079D01*
X36500524Y964078D01*
X37180000Y1643554D01*
X37180000Y1637339D01*
X37207259Y1535606D01*
X37259920Y1444394D01*
X37334394Y1369920D01*
X37425606Y1317259D01*
X37527339Y1290000D01*
X37533553Y1290000D01*
X36845412Y601862D01*
X36837848Y565853D01*
X36788798Y516096D01*
X36728594Y500500D01*
X35159047Y500500D01*
X35092008Y520185D01*
X35046253Y572989D01*
X35036309Y642147D01*
X35065334Y705703D01*
X35071366Y712181D01*
X35201966Y842781D01*
X35201968Y842785D01*
X35201971Y842787D01*
X35278105Y947578D01*
X35322287Y1008390D01*
X35415220Y1190781D01*
X35478477Y1385466D01*
X35510500Y1587648D01*
X35510500Y1792352D01*
X35506233Y1819295D01*
X35478477Y1994535D01*
X35424497Y2160667D01*
X35415220Y2189219D01*
X35415218Y2189222D01*
X35415218Y2189224D01*
X35346002Y2325066D01*
X35322287Y2371610D01*
X35314556Y2382251D01*
X35201971Y2537214D01*
X35057213Y2681972D01*
X34891613Y2802285D01*
X34891612Y2802286D01*
X34891610Y2802287D01*
X34834653Y2831309D01*
X34709223Y2895219D01*
X34514534Y2958478D01*
X34339995Y2986122D01*
X34312352Y2990500D01*
X34107648Y2990500D01*
X34083329Y2986649D01*
X33905465Y2958478D01*
X33710776Y2895219D01*
X33528386Y2802285D01*
X33362786Y2681972D01*
X33218028Y2537214D01*
X33097715Y2371614D01*
X33004781Y2189224D01*
X32941522Y1994535D01*
X32909500Y1792352D01*
X32909500Y1587649D01*
X32941522Y1385466D01*
X33004781Y1190777D01*
X33038565Y1124474D01*
X33097585Y1008641D01*
X33097715Y1008387D01*
X33218028Y842787D01*
X33348634Y712181D01*
X33382119Y650858D01*
X33377135Y581166D01*
X33335263Y525233D01*
X33269799Y500816D01*
X33260953Y500500D01*
X12679047Y500500D01*
X12612008Y520185D01*
X12566253Y572989D01*
X12556309Y642147D01*
X12585334Y705703D01*
X12591366Y712181D01*
X12721966Y842781D01*
X12721968Y842785D01*
X12721971Y842787D01*
X12798105Y947578D01*
X12842287Y1008390D01*
X12935220Y1190781D01*
X12998477Y1385466D01*
X13030500Y1587648D01*
X13030500Y1792352D01*
X13026233Y1819295D01*
X12998477Y1994535D01*
X12944497Y2160667D01*
X12935220Y2189219D01*
X12935218Y2189222D01*
X12935218Y2189224D01*
X12866002Y2325066D01*
X12842287Y2371610D01*
X12834556Y2382251D01*
X12721971Y2537214D01*
X12577213Y2681972D01*
X12411613Y2802285D01*
X12411612Y2802286D01*
X12411610Y2802287D01*
X12354653Y2831309D01*
X12229223Y2895219D01*
X12034534Y2958478D01*
X11859995Y2986122D01*
X11832352Y2990500D01*
X11627648Y2990500D01*
X11603329Y2986649D01*
X11425465Y2958478D01*
X11230776Y2895219D01*
X11048386Y2802285D01*
X10882786Y2681972D01*
X10738028Y2537214D01*
X10617715Y2371614D01*
X10524781Y2189224D01*
X10461522Y1994535D01*
X10429500Y1792352D01*
X10429500Y1587649D01*
X10461522Y1385466D01*
X10524781Y1190777D01*
X10558565Y1124474D01*
X10617585Y1008641D01*
X10617715Y1008387D01*
X10738028Y842787D01*
X10868634Y712181D01*
X10902119Y650858D01*
X10897135Y581166D01*
X10855263Y525233D01*
X10789799Y500816D01*
X10780953Y500500D01*
X9469047Y500500D01*
X9402008Y520185D01*
X9356253Y572989D01*
X9346309Y642147D01*
X9375334Y705703D01*
X9381366Y712181D01*
X9511966Y842781D01*
X9511968Y842785D01*
X9511971Y842787D01*
X9588105Y947578D01*
X9632287Y1008390D01*
X9725220Y1190781D01*
X9788477Y1385466D01*
X9820500Y1587648D01*
X9820500Y1792352D01*
X9816233Y1819295D01*
X9788477Y1994535D01*
X9734497Y2160667D01*
X9725220Y2189219D01*
X9725218Y2189222D01*
X9725218Y2189224D01*
X9656002Y2325066D01*
X9632287Y2371610D01*
X9624556Y2382251D01*
X9511971Y2537214D01*
X9367213Y2681972D01*
X9201613Y2802285D01*
X9201612Y2802286D01*
X9201610Y2802287D01*
X9144653Y2831309D01*
X9019223Y2895219D01*
X8824534Y2958478D01*
X8649995Y2986122D01*
X8622352Y2990500D01*
X8417648Y2990500D01*
X8393329Y2986649D01*
X8215465Y2958478D01*
X8020776Y2895219D01*
X7838386Y2802285D01*
X7672786Y2681972D01*
X7528028Y2537214D01*
X7407715Y2371614D01*
X7314781Y2189224D01*
X7251522Y1994535D01*
X7219500Y1792352D01*
X7219500Y1587649D01*
X7251522Y1385466D01*
X7314781Y1190777D01*
X7348565Y1124474D01*
X7407585Y1008641D01*
X7407715Y1008387D01*
X7528028Y842787D01*
X7658634Y712181D01*
X7692119Y650858D01*
X7687135Y581166D01*
X7645263Y525233D01*
X7579799Y500816D01*
X7570953Y500500D01*
X3003751Y500500D01*
X2996264Y500726D01*
X2706205Y518272D01*
X2691340Y520077D01*
X2409201Y571781D01*
X2394663Y575365D01*
X2120832Y660694D01*
X2106831Y666003D01*
X1845263Y783725D01*
X1832004Y790684D01*
X1586540Y939072D01*
X1574217Y947578D01*
X1553156Y964078D01*
X1393064Y1089502D01*
X1348426Y1124474D01*
X1337218Y1134404D01*
X1134403Y1337219D01*
X1124473Y1348427D01*
X1054370Y1437907D01*
X947573Y1574224D01*
X939075Y1586535D01*
X790680Y1832011D01*
X783727Y1845257D01*
X666000Y2106837D01*
X660696Y2120823D01*
X575360Y2394676D01*
X571780Y2409202D01*
X520076Y2691341D01*
X518271Y2706206D01*
X500726Y2996264D01*
X500500Y3003751D01*
X500500Y5230222D01*
X2049500Y5230222D01*
X2049500Y5009779D01*
X2083985Y4792048D01*
X2152103Y4582397D01*
X2152104Y4582394D01*
X2252187Y4385975D01*
X2381752Y4207642D01*
X2381756Y4207637D01*
X2432316Y4157077D01*
X2465801Y4095754D01*
X2460817Y4026062D01*
X2418945Y3970129D01*
X2387969Y3953215D01*
X2307918Y3923357D01*
X2307906Y3923351D01*
X2192812Y3837191D01*
X2192809Y3837188D01*
X2106649Y3722094D01*
X2106645Y3722087D01*
X2056403Y3587380D01*
X2056401Y3587373D01*
X2050000Y3527845D01*
X2050000Y2830000D01*
X3074722Y2830000D01*
X3030667Y2753694D01*
X3000000Y2639244D01*
X3000000Y2520756D01*
X3030667Y2406306D01*
X3074722Y2330000D01*
X2050000Y2330000D01*
X2050000Y1632156D01*
X2056401Y1572628D01*
X2056403Y1572621D01*
X2106645Y1437914D01*
X2106649Y1437907D01*
X2192809Y1322813D01*
X2192812Y1322810D01*
X2307906Y1236650D01*
X2307913Y1236646D01*
X2442620Y1186404D01*
X2442627Y1186402D01*
X2502155Y1180001D01*
X2502172Y1180000D01*
X3200000Y1180000D01*
X3200000Y2204723D01*
X3276306Y2160667D01*
X3390756Y2130000D01*
X3509244Y2130000D01*
X3623694Y2160667D01*
X3700000Y2204723D01*
X3700000Y1180000D01*
X4397828Y1180000D01*
X4397844Y1180001D01*
X4457372Y1186402D01*
X4457379Y1186404D01*
X4592086Y1236646D01*
X4592093Y1236650D01*
X4707187Y1322810D01*
X4707190Y1322813D01*
X4793350Y1437907D01*
X4793354Y1437914D01*
X4843596Y1572621D01*
X4843598Y1572628D01*
X4849999Y1632156D01*
X4850000Y1632173D01*
X4850000Y2330000D01*
X3825278Y2330000D01*
X3869333Y2406306D01*
X3900000Y2520756D01*
X3900000Y2639244D01*
X3869333Y2753694D01*
X3825278Y2830000D01*
X4850000Y2830000D01*
X4850000Y3527828D01*
X4849999Y3527845D01*
X4843598Y3587373D01*
X4843596Y3587380D01*
X4793354Y3722087D01*
X4793350Y3722094D01*
X4707190Y3837188D01*
X4707187Y3837191D01*
X4592093Y3923351D01*
X4592087Y3923354D01*
X4512030Y3953214D01*
X4456097Y3995086D01*
X4431680Y4060550D01*
X4446532Y4128823D01*
X4467681Y4157075D01*
X4518242Y4207635D01*
X4647815Y4385978D01*
X4747895Y4582394D01*
X4816015Y4792049D01*
X4850500Y5009778D01*
X4850500Y5230222D01*
X4816015Y5447951D01*
X4747895Y5657606D01*
X4747895Y5657607D01*
X4713237Y5725625D01*
X4647815Y5854022D01*
X4631260Y5876808D01*
X4518247Y6032359D01*
X4518243Y6032364D01*
X4362363Y6188244D01*
X4362358Y6188248D01*
X4184025Y6317813D01*
X4184024Y6317814D01*
X4184022Y6317815D01*
X4121096Y6349878D01*
X3987606Y6417896D01*
X3987603Y6417897D01*
X3777952Y6486015D01*
X3669086Y6503258D01*
X3560222Y6520500D01*
X3339778Y6520500D01*
X3267201Y6509005D01*
X3122047Y6486015D01*
X2912396Y6417897D01*
X2912393Y6417896D01*
X2715974Y6317813D01*
X2537641Y6188248D01*
X2537636Y6188244D01*
X2381756Y6032364D01*
X2381752Y6032359D01*
X2252187Y5854026D01*
X2152104Y5657607D01*
X2152103Y5657604D01*
X2083985Y5447953D01*
X2049500Y5230222D01*
X500500Y5230222D01*
X500500Y9412352D01*
X7219500Y9412352D01*
X7219500Y9207649D01*
X7251522Y9005466D01*
X7314781Y8810777D01*
X7407715Y8628387D01*
X7528028Y8462787D01*
X7672786Y8318029D01*
X7796956Y8227816D01*
X7838390Y8197713D01*
X7954607Y8138497D01*
X8020776Y8104782D01*
X8020778Y8104782D01*
X8020781Y8104780D01*
X8125137Y8070873D01*
X8215465Y8041523D01*
X8316557Y8025512D01*
X8417648Y8009500D01*
X8417649Y8009500D01*
X8622351Y8009500D01*
X8622352Y8009500D01*
X8824534Y8041523D01*
X9019219Y8104780D01*
X9201610Y8197713D01*
X9294590Y8265268D01*
X9367213Y8318029D01*
X9367215Y8318032D01*
X9367219Y8318034D01*
X9511966Y8462781D01*
X9511968Y8462785D01*
X9511971Y8462787D01*
X9575414Y8550110D01*
X9632287Y8628390D01*
X9725220Y8810781D01*
X9788477Y9005466D01*
X9820500Y9207648D01*
X9820500Y9412352D01*
X10429500Y9412352D01*
X10429500Y9207649D01*
X10461522Y9005466D01*
X10524781Y8810777D01*
X10617715Y8628387D01*
X10738028Y8462787D01*
X10882786Y8318029D01*
X11006956Y8227816D01*
X11048390Y8197713D01*
X11164607Y8138497D01*
X11230776Y8104782D01*
X11230778Y8104782D01*
X11230781Y8104780D01*
X11335137Y8070873D01*
X11425465Y8041523D01*
X11526557Y8025512D01*
X11627648Y8009500D01*
X11627649Y8009500D01*
X11832351Y8009500D01*
X11832352Y8009500D01*
X12034534Y8041523D01*
X12229219Y8104780D01*
X12411610Y8197713D01*
X12504590Y8265268D01*
X12577213Y8318029D01*
X12577215Y8318032D01*
X12577219Y8318034D01*
X12721966Y8462781D01*
X12721968Y8462785D01*
X12721971Y8462787D01*
X12785414Y8550110D01*
X12842287Y8628390D01*
X12935220Y8810781D01*
X12998477Y9005466D01*
X13030500Y9207648D01*
X13030500Y9412352D01*
X12999072Y9610777D01*
X12998477Y9614535D01*
X12956490Y9743757D01*
X12935220Y9809219D01*
X12935218Y9809222D01*
X12935218Y9809224D01*
X12901503Y9875393D01*
X12842287Y9991610D01*
X12830634Y10007649D01*
X12721971Y10157214D01*
X12577213Y10301972D01*
X12411613Y10422285D01*
X12411612Y10422286D01*
X12411610Y10422287D01*
X12354653Y10451309D01*
X12229223Y10515219D01*
X12034534Y10578478D01*
X11859995Y10606122D01*
X11832352Y10610500D01*
X11627648Y10610500D01*
X11603329Y10606649D01*
X11425465Y10578478D01*
X11230776Y10515219D01*
X11048386Y10422285D01*
X10882786Y10301972D01*
X10738028Y10157214D01*
X10617715Y9991614D01*
X10524781Y9809224D01*
X10461522Y9614535D01*
X10429500Y9412352D01*
X9820500Y9412352D01*
X9789072Y9610777D01*
X9788477Y9614535D01*
X9746490Y9743757D01*
X9725220Y9809219D01*
X9725218Y9809222D01*
X9725218Y9809224D01*
X9691503Y9875393D01*
X9632287Y9991610D01*
X9620634Y10007649D01*
X9511971Y10157214D01*
X9367213Y10301972D01*
X9201613Y10422285D01*
X9201612Y10422286D01*
X9201610Y10422287D01*
X9144653Y10451309D01*
X9019223Y10515219D01*
X8824534Y10578478D01*
X8649995Y10606122D01*
X8622352Y10610500D01*
X8417648Y10610500D01*
X8393329Y10606649D01*
X8215465Y10578478D01*
X8020776Y10515219D01*
X7838386Y10422285D01*
X7672786Y10301972D01*
X7528028Y10157214D01*
X7407715Y9991614D01*
X7314781Y9809224D01*
X7251522Y9614535D01*
X7219500Y9412352D01*
X500500Y9412352D01*
X500500Y14114742D01*
X4249500Y14114742D01*
X4249500Y13885259D01*
X4274446Y13695785D01*
X4279452Y13657762D01*
X4286863Y13630104D01*
X4338842Y13436113D01*
X4426650Y13224124D01*
X4426657Y13224110D01*
X4541392Y13025383D01*
X4681081Y12843339D01*
X4681089Y12843330D01*
X4843330Y12681089D01*
X4843338Y12681082D01*
X5025382Y12541393D01*
X5025385Y12541392D01*
X5025388Y12541389D01*
X5224112Y12426656D01*
X5224117Y12426654D01*
X5224123Y12426651D01*
X5315480Y12388810D01*
X5436113Y12338842D01*
X5657762Y12279452D01*
X5885266Y12249500D01*
X5885273Y12249500D01*
X6114727Y12249500D01*
X6114734Y12249500D01*
X6342238Y12279452D01*
X6563887Y12338842D01*
X6775888Y12426656D01*
X6974612Y12541389D01*
X7156661Y12681081D01*
X7156665Y12681086D01*
X7156670Y12681089D01*
X7318911Y12843330D01*
X7318914Y12843335D01*
X7318919Y12843339D01*
X7458611Y13025388D01*
X7573344Y13224112D01*
X7661158Y13436113D01*
X7720548Y13657762D01*
X7750500Y13885266D01*
X7750500Y14114734D01*
X7720548Y14342238D01*
X7661158Y14563887D01*
X7573344Y14775888D01*
X7458611Y14974612D01*
X7458608Y14974615D01*
X7458607Y14974618D01*
X7318918Y15156662D01*
X7318911Y15156670D01*
X7156670Y15318911D01*
X7156661Y15318919D01*
X6974617Y15458608D01*
X6775890Y15573343D01*
X6775876Y15573350D01*
X6563887Y15661158D01*
X6342238Y15720548D01*
X6304215Y15725554D01*
X6114741Y15750500D01*
X6114734Y15750500D01*
X5885266Y15750500D01*
X5885258Y15750500D01*
X5668715Y15721991D01*
X5657762Y15720548D01*
X5564076Y15695446D01*
X5436112Y15661158D01*
X5224123Y15573350D01*
X5224109Y15573343D01*
X5025382Y15458608D01*
X4843338Y15318919D01*
X4681081Y15156662D01*
X4541392Y14974618D01*
X4426657Y14775891D01*
X4426650Y14775877D01*
X4338842Y14563888D01*
X4279453Y14342241D01*
X4279451Y14342230D01*
X4249500Y14114742D01*
X500500Y14114742D01*
X500500Y25408037D01*
X3829500Y25408037D01*
X3829500Y25195463D01*
X3862754Y24985507D01*
X3894617Y24887442D01*
X3928444Y24783336D01*
X4024951Y24593930D01*
X4149890Y24421964D01*
X4300213Y24271641D01*
X4472179Y24146702D01*
X4472181Y24146701D01*
X4472184Y24146699D01*
X4481493Y24141956D01*
X4532290Y24093984D01*
X4549087Y24026163D01*
X4526552Y23960028D01*
X4481505Y23920990D01*
X4472446Y23916374D01*
X4472440Y23916370D01*
X4418282Y23877023D01*
X4418282Y23877022D01*
X5050591Y23244713D01*
X4987007Y23227675D01*
X4872993Y23161849D01*
X4779901Y23068757D01*
X4714075Y22954743D01*
X4697037Y22891159D01*
X4064728Y23523468D01*
X4064727Y23523468D01*
X4025380Y23469311D01*
X3928904Y23279968D01*
X3863242Y23077881D01*
X3863242Y23077878D01*
X3830000Y22867997D01*
X3830000Y22655504D01*
X3863242Y22445623D01*
X3863242Y22445620D01*
X3928904Y22243533D01*
X4025375Y22054200D01*
X4064728Y22000034D01*
X4697037Y22632342D01*
X4714075Y22568757D01*
X4779901Y22454743D01*
X4872993Y22361651D01*
X4987007Y22295825D01*
X5050590Y22278788D01*
X4418282Y21646481D01*
X4418282Y21646480D01*
X4472452Y21607124D01*
X4472451Y21607124D01*
X4481495Y21602516D01*
X4532292Y21554542D01*
X4549087Y21486721D01*
X4526550Y21420586D01*
X4481499Y21381548D01*
X4472182Y21376801D01*
X4300213Y21251860D01*
X4149890Y21101537D01*
X4024951Y20929571D01*
X3928444Y20740165D01*
X3862753Y20537990D01*
X3862476Y20536240D01*
X3829500Y20328037D01*
X3829500Y20115463D01*
X3862754Y19905507D01*
X3875723Y19865592D01*
X3928444Y19703336D01*
X4024951Y19513930D01*
X4149890Y19341964D01*
X4300213Y19191641D01*
X4472179Y19066702D01*
X4472181Y19066701D01*
X4472184Y19066699D01*
X4661588Y18970193D01*
X4863757Y18904504D01*
X5073713Y18871250D01*
X5073714Y18871250D01*
X5286286Y18871250D01*
X5286287Y18871250D01*
X5496243Y18904504D01*
X5698412Y18970193D01*
X5887816Y19066699D01*
X6005708Y19152352D01*
X6059784Y19191640D01*
X6059784Y19191641D01*
X6059792Y19191646D01*
X6173329Y19305184D01*
X6234648Y19338666D01*
X6304340Y19333682D01*
X6360274Y19291811D01*
X6377189Y19260833D01*
X6426202Y19129422D01*
X6426206Y19129415D01*
X6512452Y19014206D01*
X6512455Y19014203D01*
X6627664Y18927957D01*
X6627671Y18927953D01*
X6762517Y18877659D01*
X6762516Y18877659D01*
X6769444Y18876915D01*
X6822127Y18871250D01*
X8617872Y18871251D01*
X8677483Y18877659D01*
X8812331Y18927954D01*
X8927546Y19014204D01*
X9013796Y19129419D01*
X9064091Y19264267D01*
X9070500Y19323877D01*
X9070499Y21119622D01*
X9064091Y21179233D01*
X9062810Y21182667D01*
X9013797Y21314079D01*
X9013793Y21314086D01*
X8927547Y21429295D01*
X8927544Y21429298D01*
X8812335Y21515544D01*
X8812328Y21515548D01*
X8680917Y21564561D01*
X8624983Y21606432D01*
X8600566Y21671897D01*
X8615418Y21740170D01*
X8636563Y21768418D01*
X8750104Y21881958D01*
X8875051Y22053934D01*
X8971557Y22243338D01*
X9037246Y22445507D01*
X9070500Y22655463D01*
X9070500Y22868037D01*
X9037246Y23077993D01*
X8971557Y23280162D01*
X8875051Y23469566D01*
X8875049Y23469569D01*
X8875048Y23469571D01*
X8750109Y23641537D01*
X8599786Y23791860D01*
X8427820Y23916799D01*
X8422491Y23919514D01*
X8419054Y23921265D01*
X8368259Y23969238D01*
X8351463Y24037058D01*
X8373999Y24103194D01*
X8419054Y24142235D01*
X8427816Y24146699D01*
X8449789Y24162664D01*
X8599786Y24271641D01*
X8599788Y24271644D01*
X8599792Y24271646D01*
X8750104Y24421958D01*
X8750106Y24421962D01*
X8750109Y24421964D01*
X8873777Y24592180D01*
X8875051Y24593934D01*
X8971557Y24783338D01*
X9037246Y24985507D01*
X9070500Y25195463D01*
X9070500Y25408037D01*
X9037246Y25617993D01*
X8971557Y25820162D01*
X8875051Y26009566D01*
X8875049Y26009569D01*
X8875048Y26009571D01*
X8750109Y26181537D01*
X8599786Y26331860D01*
X8427820Y26456799D01*
X8238414Y26553306D01*
X8238413Y26553307D01*
X8238412Y26553307D01*
X8036243Y26618996D01*
X8036241Y26618997D01*
X8036240Y26618997D01*
X7874957Y26644542D01*
X7826287Y26652250D01*
X7613713Y26652250D01*
X7565042Y26644542D01*
X7403760Y26618997D01*
X7201585Y26553306D01*
X7012179Y26456799D01*
X6840213Y26331860D01*
X6689890Y26181537D01*
X6564949Y26009568D01*
X6560484Y26000804D01*
X6512509Y25950008D01*
X6444688Y25933214D01*
X6378553Y25955752D01*
X6339516Y26000804D01*
X6335050Y26009568D01*
X6210109Y26181537D01*
X6059786Y26331860D01*
X5887820Y26456799D01*
X5698414Y26553306D01*
X5698413Y26553307D01*
X5698412Y26553307D01*
X5496243Y26618996D01*
X5496241Y26618997D01*
X5496240Y26618997D01*
X5334957Y26644542D01*
X5286287Y26652250D01*
X5073713Y26652250D01*
X5025042Y26644542D01*
X4863760Y26618997D01*
X4661585Y26553306D01*
X4472179Y26456799D01*
X4300213Y26331860D01*
X4149890Y26181537D01*
X4024951Y26009571D01*
X3928444Y25820165D01*
X3862753Y25617990D01*
X3838487Y25464780D01*
X3829500Y25408037D01*
X500500Y25408037D01*
X500500Y36687986D01*
X3140000Y36687986D01*
X3140000Y36452015D01*
X3170799Y36218086D01*
X3231870Y35990163D01*
X3322160Y35772181D01*
X3322165Y35772172D01*
X3440144Y35567829D01*
X3440145Y35567828D01*
X3502721Y35486277D01*
X4338958Y36322513D01*
X4363978Y36262110D01*
X4435112Y36155649D01*
X4525649Y36065112D01*
X4632110Y35993978D01*
X4692511Y35968959D01*
X3856275Y35132723D01*
X3937827Y35070146D01*
X3937828Y35070145D01*
X4142171Y34952166D01*
X4142180Y34952161D01*
X4360163Y34861871D01*
X4360161Y34861871D01*
X4588085Y34800800D01*
X4822014Y34770001D01*
X4822029Y34770000D01*
X5057971Y34770000D01*
X5057985Y34770001D01*
X5291914Y34800800D01*
X5519837Y34861871D01*
X5737819Y34952161D01*
X5737828Y34952166D01*
X5942181Y35070150D01*
X6023723Y35132721D01*
X6023723Y35132724D01*
X5187487Y35968959D01*
X5247890Y35993978D01*
X5354351Y36065112D01*
X5444888Y36155649D01*
X5516022Y36262110D01*
X5541041Y36322512D01*
X6377276Y35486277D01*
X6377279Y35486277D01*
X6439850Y35567819D01*
X6557834Y35772172D01*
X6557839Y35772181D01*
X6648129Y35990163D01*
X6709200Y36218086D01*
X6739999Y36452015D01*
X6740000Y36452029D01*
X6740000Y36687972D01*
X6739999Y36687986D01*
X6709200Y36921915D01*
X6648129Y37149838D01*
X6557839Y37367820D01*
X6557834Y37367829D01*
X6439855Y37572172D01*
X6439854Y37572173D01*
X6377277Y37653725D01*
X5541041Y36817489D01*
X5516022Y36877890D01*
X5444888Y36984351D01*
X5354351Y37074888D01*
X5247890Y37146022D01*
X5187488Y37171042D01*
X6023723Y38007279D01*
X5942172Y38069855D01*
X5942171Y38069856D01*
X5737828Y38187835D01*
X5737819Y38187840D01*
X5519836Y38278130D01*
X5519838Y38278130D01*
X5291914Y38339201D01*
X5057985Y38370000D01*
X4822014Y38370000D01*
X4588085Y38339201D01*
X4360162Y38278130D01*
X4142180Y38187840D01*
X4142171Y38187835D01*
X3937828Y38069856D01*
X3937818Y38069850D01*
X3856275Y38007280D01*
X3856275Y38007279D01*
X4692512Y37171042D01*
X4632110Y37146022D01*
X4525649Y37074888D01*
X4435112Y36984351D01*
X4363978Y36877890D01*
X4338958Y36817488D01*
X3502721Y37653725D01*
X3502720Y37653725D01*
X3440150Y37572182D01*
X3440144Y37572172D01*
X3322165Y37367829D01*
X3322160Y37367820D01*
X3231870Y37149838D01*
X3170799Y36921915D01*
X3140000Y36687986D01*
X500500Y36687986D01*
X500500Y41768005D01*
X3139500Y41768005D01*
X3139500Y41531996D01*
X3139501Y41531980D01*
X3164149Y41344756D01*
X3170307Y41297986D01*
X3191344Y41219476D01*
X3231394Y41070007D01*
X3321714Y40851955D01*
X3321719Y40851944D01*
X3339383Y40821350D01*
X3439727Y40647550D01*
X3439729Y40647547D01*
X3439730Y40647546D01*
X3583406Y40460303D01*
X3583412Y40460296D01*
X3750295Y40293413D01*
X3750302Y40293407D01*
X3816883Y40242318D01*
X3937550Y40149727D01*
X4066134Y40075489D01*
X4141943Y40031720D01*
X4141948Y40031718D01*
X4141951Y40031716D01*
X4360007Y39941394D01*
X4587986Y39880307D01*
X4821989Y39849500D01*
X4821996Y39849500D01*
X5058004Y39849500D01*
X5058011Y39849500D01*
X5292014Y39880307D01*
X5519993Y39941394D01*
X5738049Y40031716D01*
X5942450Y40149727D01*
X6129699Y40293408D01*
X6296592Y40460301D01*
X6440273Y40647550D01*
X6558284Y40851951D01*
X6648606Y41070007D01*
X6709693Y41297986D01*
X6740500Y41531989D01*
X6740500Y41768011D01*
X6709693Y42002014D01*
X6648606Y42229993D01*
X6558284Y42448049D01*
X6558282Y42448052D01*
X6558280Y42448057D01*
X6492732Y42561588D01*
X6440273Y42652450D01*
X6296592Y42839699D01*
X6296587Y42839705D01*
X6129704Y43006588D01*
X6129697Y43006594D01*
X5942454Y43150270D01*
X5942453Y43150271D01*
X5942450Y43150273D01*
X5838037Y43210556D01*
X5738056Y43268281D01*
X5738045Y43268286D01*
X5519993Y43358606D01*
X5292010Y43419694D01*
X5058020Y43450499D01*
X5058017Y43450500D01*
X5058011Y43450500D01*
X4821989Y43450500D01*
X4821983Y43450500D01*
X4821979Y43450499D01*
X4587989Y43419694D01*
X4360006Y43358606D01*
X4141954Y43268286D01*
X4141943Y43268281D01*
X3937545Y43150270D01*
X3750302Y43006594D01*
X3750295Y43006588D01*
X3583412Y42839705D01*
X3583406Y42839698D01*
X3439730Y42652455D01*
X3321719Y42448057D01*
X3321714Y42448046D01*
X3231394Y42229994D01*
X3170306Y42002011D01*
X3139501Y41768021D01*
X3139500Y41768005D01*
X500500Y41768005D01*
X500500Y46848005D01*
X3139500Y46848005D01*
X3139500Y46611996D01*
X3139501Y46611980D01*
X3170306Y46377990D01*
X3231394Y46150007D01*
X3321714Y45931955D01*
X3321719Y45931944D01*
X3392677Y45809043D01*
X3439727Y45727550D01*
X3439729Y45727547D01*
X3439730Y45727546D01*
X3583406Y45540303D01*
X3583412Y45540296D01*
X3750295Y45373413D01*
X3750301Y45373408D01*
X3937550Y45229727D01*
X4068918Y45153882D01*
X4141943Y45111720D01*
X4141948Y45111718D01*
X4141951Y45111716D01*
X4360007Y45021394D01*
X4587986Y44960307D01*
X4821989Y44929500D01*
X4821996Y44929500D01*
X5058004Y44929500D01*
X5058011Y44929500D01*
X5292014Y44960307D01*
X5519993Y45021394D01*
X5738049Y45111716D01*
X5942450Y45229727D01*
X6129699Y45373408D01*
X6296592Y45540301D01*
X6440273Y45727550D01*
X6558284Y45931951D01*
X6648606Y46150007D01*
X6709693Y46377986D01*
X6740500Y46611989D01*
X6740500Y46848011D01*
X6709693Y47082014D01*
X6648606Y47309993D01*
X6558284Y47528049D01*
X6558282Y47528052D01*
X6558280Y47528057D01*
X6516118Y47601082D01*
X6440273Y47732450D01*
X6296592Y47919699D01*
X6296587Y47919705D01*
X6129704Y48086588D01*
X6129697Y48086594D01*
X5942454Y48230270D01*
X5942453Y48230271D01*
X5942450Y48230273D01*
X5860957Y48277323D01*
X5738056Y48348281D01*
X5738045Y48348286D01*
X5519993Y48438606D01*
X5292010Y48499694D01*
X5058020Y48530499D01*
X5058017Y48530500D01*
X5058011Y48530500D01*
X4821989Y48530500D01*
X4821983Y48530500D01*
X4821979Y48530499D01*
X4587989Y48499694D01*
X4360006Y48438606D01*
X4141954Y48348286D01*
X4141943Y48348281D01*
X3937545Y48230270D01*
X3750302Y48086594D01*
X3750295Y48086588D01*
X3583412Y47919705D01*
X3583406Y47919698D01*
X3439730Y47732455D01*
X3321719Y47528057D01*
X3321714Y47528046D01*
X3231394Y47309994D01*
X3170306Y47082011D01*
X3139501Y46848021D01*
X3139500Y46848005D01*
X500500Y46848005D01*
X500500Y51928005D01*
X3139500Y51928005D01*
X3139500Y51691996D01*
X3139501Y51691980D01*
X3168512Y51471614D01*
X3170307Y51457986D01*
X3184867Y51403648D01*
X3231394Y51230007D01*
X3321714Y51011955D01*
X3321719Y51011944D01*
X3360720Y50944394D01*
X3439727Y50807550D01*
X3439729Y50807547D01*
X3439730Y50807546D01*
X3583406Y50620303D01*
X3583412Y50620296D01*
X3750295Y50453413D01*
X3750301Y50453408D01*
X3937550Y50309727D01*
X4046742Y50246685D01*
X4141943Y50191720D01*
X4141948Y50191718D01*
X4141951Y50191716D01*
X4360007Y50101394D01*
X4587986Y50040307D01*
X4821989Y50009500D01*
X4821996Y50009500D01*
X5058004Y50009500D01*
X5058011Y50009500D01*
X5292014Y50040307D01*
X5519993Y50101394D01*
X5738049Y50191716D01*
X5942450Y50309727D01*
X6129699Y50453408D01*
X6296592Y50620301D01*
X6440273Y50807550D01*
X6558284Y51011951D01*
X6648606Y51230007D01*
X6709693Y51457986D01*
X6740500Y51691989D01*
X6740500Y51928011D01*
X6709693Y52162014D01*
X6648606Y52389993D01*
X6558284Y52608049D01*
X6558282Y52608052D01*
X6558280Y52608057D01*
X6516118Y52681082D01*
X6440273Y52812450D01*
X6381001Y52889694D01*
X6296593Y52999698D01*
X6296587Y52999705D01*
X6129704Y53166588D01*
X6129697Y53166594D01*
X5942454Y53310270D01*
X5942453Y53310271D01*
X5942450Y53310273D01*
X5825457Y53377819D01*
X5738056Y53428281D01*
X5738045Y53428286D01*
X5519993Y53518606D01*
X5292010Y53579694D01*
X5058020Y53610499D01*
X5058017Y53610500D01*
X5058011Y53610500D01*
X4821989Y53610500D01*
X4821983Y53610500D01*
X4821979Y53610499D01*
X4587989Y53579694D01*
X4360006Y53518606D01*
X4141954Y53428286D01*
X4141943Y53428281D01*
X3937545Y53310270D01*
X3750302Y53166594D01*
X3750295Y53166588D01*
X3583412Y52999705D01*
X3583406Y52999698D01*
X3439730Y52812455D01*
X3321719Y52608057D01*
X3321714Y52608046D01*
X3231394Y52389994D01*
X3170306Y52162011D01*
X3139501Y51928021D01*
X3139500Y51928005D01*
X500500Y51928005D01*
X500500Y57990017D01*
X3139500Y57990017D01*
X3139500Y55789999D01*
X3139501Y55789982D01*
X3150000Y55687204D01*
X3150001Y55687201D01*
X3200962Y55533413D01*
X3205186Y55520666D01*
X3297288Y55371344D01*
X3421344Y55247288D01*
X3570666Y55155186D01*
X3737203Y55100001D01*
X3839991Y55089500D01*
X6040008Y55089501D01*
X6142797Y55100001D01*
X6309334Y55155186D01*
X6458656Y55247288D01*
X6582712Y55371344D01*
X6674814Y55520666D01*
X6729999Y55687203D01*
X6740500Y55789991D01*
X6740499Y57224220D01*
X6760184Y57291258D01*
X6776813Y57311895D01*
X8389101Y58924181D01*
X8450424Y58957666D01*
X8476782Y58960500D01*
X12750771Y58960500D01*
X12817810Y58940815D01*
X12863565Y58888011D01*
X12873509Y58818853D01*
X12868702Y58798181D01*
X12841522Y58714535D01*
X12809500Y58512352D01*
X12809500Y58307649D01*
X12841522Y58105466D01*
X12904781Y57910777D01*
X12968691Y57785347D01*
X12997585Y57728641D01*
X12997715Y57728387D01*
X13118028Y57562787D01*
X13262786Y57418029D01*
X13383226Y57330526D01*
X13428390Y57297713D01*
X13537705Y57242014D01*
X13610776Y57204782D01*
X13610778Y57204782D01*
X13610781Y57204780D01*
X13715137Y57170873D01*
X13805465Y57141523D01*
X13906557Y57125512D01*
X14007648Y57109500D01*
X14007649Y57109500D01*
X14212351Y57109500D01*
X14212352Y57109500D01*
X14414534Y57141523D01*
X14609219Y57204780D01*
X14791610Y57297713D01*
X14884590Y57365268D01*
X14957213Y57418029D01*
X14957215Y57418032D01*
X14957219Y57418034D01*
X15101966Y57562781D01*
X15101968Y57562785D01*
X15101971Y57562787D01*
X15222284Y57728386D01*
X15222286Y57728389D01*
X15222287Y57728390D01*
X15269516Y57821083D01*
X15317489Y57871877D01*
X15385310Y57888672D01*
X15451445Y57866135D01*
X15490485Y57821081D01*
X15537715Y57728386D01*
X15658028Y57562787D01*
X15802786Y57418029D01*
X15923226Y57330526D01*
X15968390Y57297713D01*
X16150781Y57204780D01*
X16264584Y57167803D01*
X16274639Y57164536D01*
X16332315Y57125098D01*
X16359513Y57060740D01*
X16347598Y56991893D01*
X16324002Y56958924D01*
X12975579Y53610500D01*
X11921221Y52556142D01*
X11921218Y52556139D01*
X11851538Y52486460D01*
X11781859Y52416781D01*
X11672371Y52252921D01*
X11672366Y52252911D01*
X11637892Y52169685D01*
X11619038Y52124166D01*
X11614221Y52112537D01*
X11596950Y52070842D01*
X11596948Y52070834D01*
X11592638Y52049165D01*
X11592638Y52049164D01*
X11558500Y51877544D01*
X11558500Y39024783D01*
X11538815Y38957744D01*
X11522181Y38937102D01*
X5765037Y33179959D01*
X5703714Y33146474D01*
X5634022Y33151458D01*
X5629924Y33153071D01*
X5519993Y33198606D01*
X5292014Y33259693D01*
X5292013Y33259694D01*
X5292010Y33259694D01*
X5058020Y33290499D01*
X5058017Y33290500D01*
X5058011Y33290500D01*
X4821989Y33290500D01*
X4821983Y33290500D01*
X4821979Y33290499D01*
X4587989Y33259694D01*
X4360006Y33198606D01*
X4141954Y33108286D01*
X4141943Y33108281D01*
X3937545Y32990270D01*
X3750302Y32846594D01*
X3750295Y32846588D01*
X3583412Y32679705D01*
X3583406Y32679698D01*
X3439730Y32492455D01*
X3321719Y32288057D01*
X3321714Y32288046D01*
X3231394Y32069994D01*
X3170306Y31842011D01*
X3139501Y31608021D01*
X3139500Y31608005D01*
X3139500Y31371996D01*
X3139501Y31371980D01*
X3170306Y31137990D01*
X3231394Y30910007D01*
X3321714Y30691955D01*
X3321719Y30691944D01*
X3390396Y30572993D01*
X3439727Y30487550D01*
X3439729Y30487547D01*
X3439730Y30487546D01*
X3583406Y30300303D01*
X3583412Y30300296D01*
X3750295Y30133413D01*
X3750302Y30133407D01*
X3766909Y30120664D01*
X3937550Y29989727D01*
X4068583Y29914075D01*
X4141943Y29871720D01*
X4141948Y29871718D01*
X4141951Y29871716D01*
X4360007Y29781394D01*
X4587986Y29720307D01*
X4821989Y29689500D01*
X4821996Y29689500D01*
X5058004Y29689500D01*
X5058011Y29689500D01*
X5292014Y29720307D01*
X5519993Y29781394D01*
X5738049Y29871716D01*
X5942450Y29989727D01*
X6129699Y30133408D01*
X6296592Y30300301D01*
X6440273Y30487550D01*
X6558284Y30691951D01*
X6648606Y30910007D01*
X6709693Y31137986D01*
X6727969Y31276814D01*
X6756235Y31340709D01*
X6763215Y31348297D01*
X13336140Y37921219D01*
X13445632Y38085086D01*
X13521052Y38267165D01*
X13559500Y38460460D01*
X13559500Y38657541D01*
X13559500Y43186287D01*
X14029500Y43186287D01*
X14029500Y42973714D01*
X14050554Y42840781D01*
X14062754Y42763757D01*
X14098918Y42652455D01*
X14128444Y42561586D01*
X14224951Y42372180D01*
X14349890Y42200214D01*
X14500213Y42049891D01*
X14672182Y41924950D01*
X14680946Y41920484D01*
X14731742Y41872509D01*
X14748536Y41804688D01*
X14725998Y41738553D01*
X14680946Y41699516D01*
X14672182Y41695051D01*
X14500213Y41570110D01*
X14349890Y41419787D01*
X14224951Y41247821D01*
X14128444Y41058415D01*
X14062753Y40856240D01*
X14057228Y40821356D01*
X14029500Y40646287D01*
X14029500Y40433713D01*
X14062754Y40223757D01*
X14125796Y40029734D01*
X14128444Y40021586D01*
X14224951Y39832180D01*
X14349890Y39660214D01*
X14500213Y39509891D01*
X14672182Y39384950D01*
X14680946Y39380484D01*
X14731742Y39332509D01*
X14748536Y39264688D01*
X14725998Y39198553D01*
X14680946Y39159516D01*
X14672182Y39155051D01*
X14500213Y39030110D01*
X14349890Y38879787D01*
X14224951Y38707821D01*
X14128444Y38518415D01*
X14062753Y38316240D01*
X14046028Y38210642D01*
X14029500Y38106287D01*
X14029500Y37893713D01*
X14062754Y37683757D01*
X14099010Y37572172D01*
X14128444Y37481586D01*
X14224951Y37292180D01*
X14349890Y37120214D01*
X14500213Y36969891D01*
X14672182Y36844950D01*
X14680946Y36840484D01*
X14731742Y36792509D01*
X14748536Y36724688D01*
X14725998Y36658553D01*
X14680946Y36619516D01*
X14672182Y36615051D01*
X14500213Y36490110D01*
X14349890Y36339787D01*
X14224951Y36167821D01*
X14128444Y35978415D01*
X14062753Y35776240D01*
X14029500Y35566287D01*
X14029500Y35353714D01*
X14062735Y35143873D01*
X14062754Y35143757D01*
X14125005Y34952168D01*
X14128444Y34941586D01*
X14224951Y34752180D01*
X14349890Y34580214D01*
X14500213Y34429891D01*
X14672182Y34304950D01*
X14680946Y34300484D01*
X14731742Y34252509D01*
X14748536Y34184688D01*
X14725998Y34118553D01*
X14680946Y34079516D01*
X14672182Y34075051D01*
X14500213Y33950110D01*
X14349890Y33799787D01*
X14224951Y33627821D01*
X14128444Y33438415D01*
X14062753Y33236240D01*
X14035963Y33067093D01*
X14029500Y33026287D01*
X14029500Y32813713D01*
X14062754Y32603757D01*
X14098918Y32492455D01*
X14128444Y32401586D01*
X14224951Y32212180D01*
X14349890Y32040214D01*
X14500213Y31889891D01*
X14672179Y31764952D01*
X14672181Y31764951D01*
X14672184Y31764949D01*
X14681493Y31760206D01*
X14732290Y31712234D01*
X14749087Y31644413D01*
X14726552Y31578278D01*
X14681505Y31539240D01*
X14672446Y31534624D01*
X14672440Y31534620D01*
X14618282Y31495273D01*
X14618282Y31495272D01*
X15250591Y30862963D01*
X15187007Y30845925D01*
X15072993Y30780099D01*
X14979901Y30687007D01*
X14914075Y30572993D01*
X14897037Y30509409D01*
X14264728Y31141718D01*
X14264727Y31141718D01*
X14225380Y31087561D01*
X14128904Y30898218D01*
X14063242Y30696131D01*
X14063242Y30696128D01*
X14030000Y30486247D01*
X14030000Y30273754D01*
X14063242Y30063873D01*
X14063242Y30063870D01*
X14128904Y29861783D01*
X14225375Y29672450D01*
X14264728Y29618284D01*
X14897037Y30250592D01*
X14914075Y30187007D01*
X14979901Y30072993D01*
X15072993Y29979901D01*
X15187007Y29914075D01*
X15250590Y29897038D01*
X14618282Y29264731D01*
X14618282Y29264730D01*
X14672452Y29225374D01*
X14672451Y29225374D01*
X14681495Y29220766D01*
X14732292Y29172792D01*
X14749087Y29104971D01*
X14726550Y29038836D01*
X14681499Y28999798D01*
X14672182Y28995051D01*
X14500213Y28870110D01*
X14349890Y28719787D01*
X14224951Y28547821D01*
X14128444Y28358415D01*
X14062753Y28156240D01*
X14039736Y28010916D01*
X14029500Y27946287D01*
X14029500Y27733713D01*
X14062754Y27523757D01*
X14128403Y27321710D01*
X14128444Y27321586D01*
X14224951Y27132180D01*
X14349890Y26960214D01*
X14500213Y26809891D01*
X14672182Y26684950D01*
X14680946Y26680484D01*
X14731742Y26632509D01*
X14748536Y26564688D01*
X14725998Y26498553D01*
X14680946Y26459516D01*
X14672182Y26455051D01*
X14500213Y26330110D01*
X14349890Y26179787D01*
X14224951Y26007821D01*
X14128444Y25818415D01*
X14062753Y25616240D01*
X14029500Y25406287D01*
X14029500Y25193714D01*
X14062476Y24985507D01*
X14062754Y24983757D01*
X14128403Y24781710D01*
X14128444Y24781586D01*
X14224951Y24592180D01*
X14349890Y24420214D01*
X14500213Y24269891D01*
X14672182Y24144950D01*
X14680946Y24140484D01*
X14731742Y24092509D01*
X14748536Y24024688D01*
X14725998Y23958553D01*
X14680946Y23919516D01*
X14672182Y23915051D01*
X14500213Y23790110D01*
X14349890Y23639787D01*
X14224951Y23467821D01*
X14128444Y23278415D01*
X14062753Y23076240D01*
X14029500Y22866287D01*
X14029500Y22653714D01*
X14062476Y22445507D01*
X14062754Y22443757D01*
X14127874Y22243338D01*
X14128444Y22241586D01*
X14224951Y22052180D01*
X14349890Y21880214D01*
X14500213Y21729891D01*
X14672182Y21604950D01*
X14680946Y21600484D01*
X14731742Y21552509D01*
X14748536Y21484688D01*
X14725998Y21418553D01*
X14680946Y21379516D01*
X14672182Y21375051D01*
X14500213Y21250110D01*
X14349890Y21099787D01*
X14224951Y20927821D01*
X14128444Y20738415D01*
X14062753Y20536240D01*
X14029500Y20326287D01*
X14029500Y20113714D01*
X14062476Y19905507D01*
X14062754Y19903757D01*
X14128403Y19701710D01*
X14128444Y19701586D01*
X14224951Y19512180D01*
X14349890Y19340214D01*
X14500213Y19189891D01*
X14672182Y19064950D01*
X14680946Y19060484D01*
X14731742Y19012509D01*
X14748536Y18944688D01*
X14725998Y18878553D01*
X14680946Y18839516D01*
X14672182Y18835051D01*
X14500213Y18710110D01*
X14349890Y18559787D01*
X14224951Y18387821D01*
X14128444Y18198415D01*
X14062753Y17996240D01*
X14029500Y17786287D01*
X14029500Y17573714D01*
X14062753Y17363761D01*
X14128444Y17161586D01*
X14224951Y16972180D01*
X14349890Y16800214D01*
X14500213Y16649891D01*
X14672182Y16524950D01*
X14680946Y16520484D01*
X14731742Y16472509D01*
X14748536Y16404688D01*
X14725998Y16338553D01*
X14680946Y16299516D01*
X14672182Y16295051D01*
X14500213Y16170110D01*
X14349890Y16019787D01*
X14224951Y15847821D01*
X14128444Y15658415D01*
X14062753Y15456240D01*
X14029500Y15246287D01*
X14029500Y15033714D01*
X14060225Y14839721D01*
X14062754Y14823757D01*
X14078311Y14775877D01*
X14128444Y14621586D01*
X14224951Y14432180D01*
X14349890Y14260214D01*
X14500213Y14109891D01*
X14672182Y13984950D01*
X14680946Y13980484D01*
X14731742Y13932509D01*
X14748536Y13864688D01*
X14725998Y13798553D01*
X14680946Y13759516D01*
X14672182Y13755051D01*
X14500213Y13630110D01*
X14349890Y13479787D01*
X14224951Y13307821D01*
X14128444Y13118415D01*
X14062753Y12916240D01*
X14029500Y12706287D01*
X14029500Y12493714D01*
X14062753Y12283761D01*
X14128444Y12081586D01*
X14224951Y11892180D01*
X14349890Y11720214D01*
X14500213Y11569891D01*
X14672182Y11444950D01*
X14680946Y11440484D01*
X14731742Y11392509D01*
X14748536Y11324688D01*
X14725998Y11258553D01*
X14680946Y11219516D01*
X14672182Y11215051D01*
X14500213Y11090110D01*
X14349890Y10939787D01*
X14224951Y10767821D01*
X14128444Y10578415D01*
X14062753Y10376240D01*
X14036796Y10212352D01*
X14029500Y10166287D01*
X14029500Y9953713D01*
X14062754Y9743757D01*
X14104741Y9614534D01*
X14128444Y9541586D01*
X14224951Y9352180D01*
X14349890Y9180214D01*
X14500213Y9029891D01*
X14672182Y8904950D01*
X14680946Y8900484D01*
X14731742Y8852509D01*
X14748536Y8784688D01*
X14725998Y8718553D01*
X14680946Y8679516D01*
X14672182Y8675051D01*
X14500213Y8550110D01*
X14349890Y8399787D01*
X14224951Y8227821D01*
X14128444Y8038415D01*
X14062753Y7836240D01*
X14029500Y7626287D01*
X14029500Y7413714D01*
X14062753Y7203761D01*
X14128444Y7001586D01*
X14224951Y6812180D01*
X14349890Y6640214D01*
X14500213Y6489891D01*
X14672182Y6364950D01*
X14680946Y6360484D01*
X14731742Y6312509D01*
X14748536Y6244688D01*
X14725998Y6178553D01*
X14680946Y6139516D01*
X14672182Y6135051D01*
X14500213Y6010110D01*
X14349890Y5859787D01*
X14224951Y5687821D01*
X14128444Y5498415D01*
X14062753Y5296240D01*
X14029500Y5086287D01*
X14029500Y4873714D01*
X14062753Y4663761D01*
X14128444Y4461586D01*
X14224951Y4272180D01*
X14349890Y4100214D01*
X14463430Y3986674D01*
X14496915Y3925351D01*
X14491931Y3855659D01*
X14450059Y3799726D01*
X14419083Y3782811D01*
X14287669Y3733797D01*
X14287664Y3733794D01*
X14172455Y3647548D01*
X14172452Y3647545D01*
X14086206Y3532336D01*
X14086202Y3532329D01*
X14035908Y3397483D01*
X14029501Y3337884D01*
X14029501Y3337877D01*
X14029500Y3337865D01*
X14029500Y1542130D01*
X14029501Y1542124D01*
X14035908Y1482517D01*
X14086202Y1347672D01*
X14086206Y1347665D01*
X14172452Y1232456D01*
X14172455Y1232453D01*
X14287664Y1146207D01*
X14287671Y1146203D01*
X14422517Y1095909D01*
X14422516Y1095909D01*
X14429444Y1095165D01*
X14482127Y1089500D01*
X16277872Y1089501D01*
X16337483Y1095909D01*
X16472331Y1146204D01*
X16587546Y1232454D01*
X16673796Y1347669D01*
X16724091Y1482517D01*
X16730500Y1542127D01*
X16730499Y3337872D01*
X16724091Y3397483D01*
X16673796Y3532331D01*
X16673795Y3532332D01*
X16673793Y3532336D01*
X16587547Y3647545D01*
X16587544Y3647548D01*
X16472335Y3733794D01*
X16472328Y3733798D01*
X16340917Y3782811D01*
X16284983Y3824682D01*
X16260566Y3890147D01*
X16275418Y3958420D01*
X16296563Y3986668D01*
X16410104Y4100208D01*
X16451422Y4157077D01*
X16535048Y4272180D01*
X16535047Y4272180D01*
X16535051Y4272184D01*
X16631557Y4461588D01*
X16697246Y4663757D01*
X16730500Y4873713D01*
X16730500Y5086287D01*
X16697246Y5296243D01*
X16631557Y5498412D01*
X16535051Y5687816D01*
X16535049Y5687819D01*
X16535048Y5687821D01*
X16410109Y5859787D01*
X16259786Y6010110D01*
X16087820Y6135049D01*
X16087115Y6135409D01*
X16079054Y6139515D01*
X16028259Y6187488D01*
X16011463Y6255308D01*
X16033999Y6321444D01*
X16079054Y6360485D01*
X16087816Y6364949D01*
X16143279Y6405245D01*
X16259786Y6489891D01*
X16259788Y6489894D01*
X16259792Y6489896D01*
X16410104Y6640208D01*
X16417705Y6650671D01*
X16417707Y6650672D01*
X16535048Y6812180D01*
X16535047Y6812180D01*
X16535051Y6812184D01*
X16631557Y7001588D01*
X16697246Y7203757D01*
X16730500Y7413713D01*
X16730500Y7626287D01*
X16724739Y7662661D01*
X16719176Y7697787D01*
X16697246Y7836240D01*
X16697246Y7836243D01*
X16631557Y8038412D01*
X16535051Y8227816D01*
X16535049Y8227819D01*
X16535048Y8227821D01*
X16410109Y8399787D01*
X16259786Y8550110D01*
X16087820Y8675049D01*
X16087115Y8675409D01*
X16079054Y8679515D01*
X16028259Y8727488D01*
X16011463Y8795308D01*
X16033999Y8861444D01*
X16079054Y8900485D01*
X16087816Y8904949D01*
X16111603Y8922231D01*
X16259786Y9029891D01*
X16259788Y9029894D01*
X16259792Y9029896D01*
X16410104Y9180208D01*
X16410106Y9180212D01*
X16410109Y9180214D01*
X16535048Y9352180D01*
X16535047Y9352180D01*
X16535051Y9352184D01*
X16631557Y9541588D01*
X16697246Y9743757D01*
X16730500Y9953713D01*
X16730500Y10166287D01*
X16723204Y10212352D01*
X25399500Y10212352D01*
X25399500Y10007649D01*
X25431522Y9805466D01*
X25494781Y9610777D01*
X25587715Y9428387D01*
X25708028Y9262787D01*
X25852786Y9118029D01*
X26018385Y8997716D01*
X26018387Y8997715D01*
X26018390Y8997713D01*
X26072378Y8970205D01*
X26123174Y8922231D01*
X26139969Y8854410D01*
X26117432Y8788275D01*
X26072378Y8749235D01*
X26018644Y8721857D01*
X25974077Y8689477D01*
X25974077Y8689476D01*
X26653554Y8010000D01*
X26647339Y8010000D01*
X26545606Y7982741D01*
X26454394Y7930080D01*
X26379920Y7855606D01*
X26327259Y7764394D01*
X26300000Y7662661D01*
X26300000Y7656447D01*
X25620524Y8335923D01*
X25620523Y8335923D01*
X25588143Y8291356D01*
X25495244Y8109032D01*
X25432009Y7914418D01*
X25400000Y7712318D01*
X25400000Y7507683D01*
X25432009Y7305583D01*
X25495244Y7110969D01*
X25588141Y6928650D01*
X25588147Y6928641D01*
X25620523Y6884079D01*
X25620524Y6884078D01*
X26300000Y7563554D01*
X26300000Y7557339D01*
X26327259Y7455606D01*
X26379920Y7364394D01*
X26454394Y7289920D01*
X26545606Y7237259D01*
X26647339Y7210000D01*
X26653553Y7210000D01*
X25974076Y6530526D01*
X26018650Y6498141D01*
X26200968Y6405245D01*
X26395582Y6342010D01*
X26597683Y6310000D01*
X26802317Y6310000D01*
X27004417Y6342010D01*
X27199031Y6405245D01*
X27381349Y6498141D01*
X27425921Y6530526D01*
X26746447Y7210000D01*
X26752661Y7210000D01*
X26854394Y7237259D01*
X26945606Y7289920D01*
X27020080Y7364394D01*
X27072741Y7455606D01*
X27100000Y7557339D01*
X27100000Y7563553D01*
X27779474Y6884079D01*
X27811859Y6928651D01*
X27904755Y7110969D01*
X27967990Y7305583D01*
X28000000Y7507683D01*
X28000000Y7712318D01*
X27967990Y7914418D01*
X27904755Y8109032D01*
X27811859Y8291350D01*
X27779474Y8335923D01*
X27779474Y8335924D01*
X27100000Y7656449D01*
X27100000Y7662661D01*
X27072741Y7764394D01*
X27020080Y7855606D01*
X26945606Y7930080D01*
X26854394Y7982741D01*
X26752661Y8010000D01*
X26746446Y8010000D01*
X27425922Y8689476D01*
X27425921Y8689477D01*
X27381359Y8721853D01*
X27381350Y8721859D01*
X27327621Y8749235D01*
X27276825Y8797209D01*
X27260030Y8865030D01*
X27282567Y8931165D01*
X27327621Y8970205D01*
X27381610Y8997713D01*
X27431144Y9033702D01*
X27547213Y9118029D01*
X27547215Y9118032D01*
X27547219Y9118034D01*
X27691966Y9262781D01*
X27691968Y9262785D01*
X27691971Y9262787D01*
X27744732Y9335410D01*
X27812287Y9428390D01*
X27905220Y9610781D01*
X27968477Y9805466D01*
X28000500Y10007648D01*
X28000500Y10212352D01*
X27968477Y10414534D01*
X27905220Y10609219D01*
X27905218Y10609222D01*
X27905218Y10609224D01*
X27871503Y10675393D01*
X27812287Y10791610D01*
X27804556Y10802251D01*
X27691971Y10957214D01*
X27547213Y11101972D01*
X27381613Y11222285D01*
X27381612Y11222286D01*
X27381610Y11222287D01*
X27310434Y11258553D01*
X27199223Y11315219D01*
X27004534Y11378478D01*
X26829995Y11406122D01*
X26802352Y11410500D01*
X26597648Y11410500D01*
X26573329Y11406649D01*
X26395465Y11378478D01*
X26200776Y11315219D01*
X26018386Y11222285D01*
X25852786Y11101972D01*
X25708028Y10957214D01*
X25587715Y10791614D01*
X25494781Y10609224D01*
X25431522Y10414535D01*
X25399500Y10212352D01*
X16723204Y10212352D01*
X16697246Y10376243D01*
X16631557Y10578412D01*
X16535051Y10767816D01*
X16535049Y10767819D01*
X16535048Y10767821D01*
X16410109Y10939787D01*
X16259786Y11090110D01*
X16087820Y11215049D01*
X16087115Y11215409D01*
X16079054Y11219515D01*
X16028259Y11267488D01*
X16011463Y11335308D01*
X16033999Y11401444D01*
X16079054Y11440485D01*
X16087816Y11444949D01*
X16109789Y11460914D01*
X16259786Y11569891D01*
X16259788Y11569894D01*
X16259792Y11569896D01*
X16410104Y11720208D01*
X16410106Y11720212D01*
X16410109Y11720214D01*
X16535048Y11892180D01*
X16535047Y11892180D01*
X16535051Y11892184D01*
X16631557Y12081588D01*
X16697246Y12283757D01*
X16730500Y12493713D01*
X16730500Y12706287D01*
X16708793Y12843339D01*
X16696484Y12921055D01*
X16698123Y12921315D01*
X16701257Y12983874D01*
X16730655Y13030711D01*
X21697896Y17997950D01*
X21769085Y18104493D01*
X21818120Y18222876D01*
X21843119Y18348550D01*
X21843119Y18476688D01*
X21843119Y24533889D01*
X21862804Y24600928D01*
X21879435Y24621568D01*
X21892083Y24634215D01*
X21990632Y24781703D01*
X22058513Y24945584D01*
X22093119Y25119559D01*
X22093119Y25296941D01*
X22093119Y25296944D01*
X22093118Y25296946D01*
X22832119Y25296946D01*
X22832119Y25119555D01*
X22866722Y24945592D01*
X22866725Y24945583D01*
X22934602Y24781710D01*
X22934609Y24781697D01*
X23033153Y24634217D01*
X23033154Y24634216D01*
X23033155Y24634215D01*
X23045799Y24621571D01*
X23079284Y24560251D01*
X23082119Y24533889D01*
X23082119Y20802612D01*
X23062434Y20735573D01*
X23045800Y20714931D01*
X23033157Y20702289D01*
X23033154Y20702285D01*
X22934609Y20554804D01*
X22934602Y20554791D01*
X22866725Y20390918D01*
X22866722Y20390909D01*
X22832119Y20216946D01*
X22832119Y20039555D01*
X22866722Y19865592D01*
X22866725Y19865583D01*
X22934602Y19701710D01*
X22934609Y19701697D01*
X23033154Y19554216D01*
X23033157Y19554212D01*
X23158580Y19428789D01*
X23158584Y19428786D01*
X23306065Y19330241D01*
X23306078Y19330234D01*
X23428982Y19279327D01*
X23469953Y19262356D01*
X23469955Y19262356D01*
X23469960Y19262354D01*
X23643923Y19227751D01*
X23643926Y19227750D01*
X23643928Y19227750D01*
X23821312Y19227750D01*
X23821313Y19227751D01*
X23879301Y19239286D01*
X23995277Y19262354D01*
X23995280Y19262356D01*
X23995285Y19262356D01*
X24143787Y19323867D01*
X24159159Y19330234D01*
X24159159Y19330235D01*
X24159166Y19330237D01*
X24306654Y19428786D01*
X24432083Y19554215D01*
X24530632Y19701703D01*
X24598513Y19865584D01*
X24609282Y19919720D01*
X24633118Y20039555D01*
X24633119Y20039557D01*
X24633119Y20216944D01*
X24633118Y20216946D01*
X24598515Y20390909D01*
X24598512Y20390918D01*
X24530635Y20554791D01*
X24530628Y20554804D01*
X24432083Y20702285D01*
X24432080Y20702289D01*
X24419438Y20714931D01*
X24385953Y20776254D01*
X24383119Y20802612D01*
X24383119Y24533889D01*
X24402804Y24600928D01*
X24419435Y24621568D01*
X24432083Y24634215D01*
X24530632Y24781703D01*
X24598513Y24945584D01*
X24633119Y25119559D01*
X24633119Y25296941D01*
X24633119Y25296944D01*
X24633118Y25296946D01*
X24598515Y25470909D01*
X24598512Y25470918D01*
X24530635Y25634791D01*
X24530628Y25634804D01*
X24440479Y25769720D01*
X24440478Y25769721D01*
X24432083Y25782285D01*
X24306654Y25907714D01*
X24294089Y25916110D01*
X24294087Y25916112D01*
X24159172Y26006260D01*
X24159159Y26006267D01*
X23995286Y26074144D01*
X23995277Y26074147D01*
X23821313Y26108750D01*
X23821310Y26108750D01*
X23643928Y26108750D01*
X23643925Y26108750D01*
X23469960Y26074147D01*
X23469951Y26074144D01*
X23306078Y26006267D01*
X23306065Y26006260D01*
X23158584Y25907715D01*
X23158580Y25907712D01*
X23033157Y25782289D01*
X23033154Y25782285D01*
X22934609Y25634804D01*
X22934602Y25634791D01*
X22866725Y25470918D01*
X22866722Y25470909D01*
X22832119Y25296946D01*
X22093118Y25296946D01*
X22058515Y25470909D01*
X22058512Y25470918D01*
X21990635Y25634791D01*
X21990628Y25634804D01*
X21892083Y25782285D01*
X21892080Y25782289D01*
X21766657Y25907712D01*
X21766653Y25907715D01*
X21619172Y26006260D01*
X21619159Y26006267D01*
X21455286Y26074144D01*
X21455277Y26074147D01*
X21281313Y26108750D01*
X21281310Y26108750D01*
X21103928Y26108750D01*
X21103925Y26108750D01*
X20929960Y26074147D01*
X20929951Y26074144D01*
X20766078Y26006267D01*
X20766065Y26006260D01*
X20618584Y25907715D01*
X20618580Y25907712D01*
X20493157Y25782289D01*
X20493154Y25782285D01*
X20394609Y25634804D01*
X20394602Y25634791D01*
X20326725Y25470918D01*
X20326722Y25470909D01*
X20292119Y25296946D01*
X20292119Y25119555D01*
X20326722Y24945592D01*
X20326725Y24945583D01*
X20394602Y24781710D01*
X20394609Y24781697D01*
X20493153Y24634217D01*
X20493154Y24634216D01*
X20493155Y24634215D01*
X20505799Y24621571D01*
X20539284Y24560251D01*
X20542119Y24533889D01*
X20542119Y18733428D01*
X20522434Y18666389D01*
X20505800Y18645747D01*
X16942181Y15082128D01*
X16880858Y15048643D01*
X16811166Y15053627D01*
X16755233Y15095499D01*
X16730816Y15160963D01*
X16730500Y15169809D01*
X16730500Y15246287D01*
X16697246Y15456240D01*
X16697246Y15456243D01*
X16631557Y15658412D01*
X16535051Y15847816D01*
X16535049Y15847819D01*
X16535048Y15847821D01*
X16410109Y16019787D01*
X16259786Y16170110D01*
X16087820Y16295049D01*
X16087115Y16295409D01*
X16079054Y16299515D01*
X16028259Y16347488D01*
X16011463Y16415308D01*
X16033999Y16481444D01*
X16079054Y16520485D01*
X16087816Y16524949D01*
X16109789Y16540914D01*
X16259786Y16649891D01*
X16259788Y16649894D01*
X16259792Y16649896D01*
X16410104Y16800208D01*
X16410106Y16800212D01*
X16410109Y16800214D01*
X16535048Y16972180D01*
X16535047Y16972180D01*
X16535051Y16972184D01*
X16631557Y17161588D01*
X16697246Y17363757D01*
X16730500Y17573713D01*
X16730500Y17786287D01*
X16706516Y17937716D01*
X16696484Y18001055D01*
X16698123Y18001315D01*
X16701257Y18063874D01*
X16730655Y18110711D01*
X19157895Y20537950D01*
X19229084Y20644492D01*
X19278120Y20762875D01*
X19278120Y20762879D01*
X19278122Y20762882D01*
X19285869Y20801829D01*
X19285869Y20801830D01*
X19303119Y20888548D01*
X19303119Y24533889D01*
X19322804Y24600928D01*
X19339435Y24621568D01*
X19352083Y24634215D01*
X19450632Y24781703D01*
X19518513Y24945584D01*
X19553119Y25119559D01*
X19553119Y25296941D01*
X19553119Y25296944D01*
X19553118Y25296946D01*
X19518515Y25470909D01*
X19518512Y25470918D01*
X19450635Y25634791D01*
X19450628Y25634804D01*
X19352083Y25782285D01*
X19352080Y25782289D01*
X19226657Y25907712D01*
X19226653Y25907715D01*
X19079172Y26006260D01*
X19079159Y26006267D01*
X18915286Y26074144D01*
X18915277Y26074147D01*
X18741313Y26108750D01*
X18741310Y26108750D01*
X18563928Y26108750D01*
X18563925Y26108750D01*
X18389960Y26074147D01*
X18389951Y26074144D01*
X18226078Y26006267D01*
X18226065Y26006260D01*
X18078584Y25907715D01*
X18078580Y25907712D01*
X17953157Y25782289D01*
X17953154Y25782285D01*
X17854609Y25634804D01*
X17854602Y25634791D01*
X17786725Y25470918D01*
X17786722Y25470909D01*
X17752119Y25296946D01*
X17752119Y25119555D01*
X17786722Y24945592D01*
X17786725Y24945583D01*
X17854602Y24781710D01*
X17854609Y24781697D01*
X17953153Y24634217D01*
X17953154Y24634216D01*
X17953155Y24634215D01*
X17965799Y24621571D01*
X17999284Y24560251D01*
X18002119Y24533889D01*
X18002119Y21273427D01*
X17982434Y21206388D01*
X17965800Y21185746D01*
X16942181Y20162127D01*
X16880858Y20128642D01*
X16811166Y20133626D01*
X16755233Y20175498D01*
X16730816Y20240962D01*
X16730500Y20249808D01*
X16730500Y20326287D01*
X16697246Y20536240D01*
X16697246Y20536243D01*
X16631557Y20738412D01*
X16535051Y20927816D01*
X16535049Y20927819D01*
X16535048Y20927821D01*
X16410109Y21099787D01*
X16259786Y21250110D01*
X16087820Y21375049D01*
X16084381Y21376801D01*
X16079054Y21379515D01*
X16028259Y21427488D01*
X16011463Y21495308D01*
X16033999Y21561444D01*
X16079054Y21600485D01*
X16087816Y21604949D01*
X16144979Y21646480D01*
X16259786Y21729891D01*
X16259788Y21729894D01*
X16259792Y21729896D01*
X16410104Y21880208D01*
X16410106Y21880212D01*
X16410109Y21880214D01*
X16535048Y22052180D01*
X16535047Y22052180D01*
X16535051Y22052184D01*
X16631557Y22241588D01*
X16697246Y22443757D01*
X16730500Y22653713D01*
X16730500Y22866287D01*
X16697246Y23076243D01*
X16631557Y23278412D01*
X16535051Y23467816D01*
X16535049Y23467819D01*
X16535048Y23467821D01*
X16410109Y23639787D01*
X16259786Y23790110D01*
X16087820Y23915049D01*
X16085219Y23916374D01*
X16079054Y23919515D01*
X16028259Y23967488D01*
X16011463Y24035308D01*
X16033999Y24101444D01*
X16079054Y24140485D01*
X16087816Y24144949D01*
X16109789Y24160914D01*
X16259786Y24269891D01*
X16259788Y24269894D01*
X16259792Y24269896D01*
X16410104Y24420208D01*
X16410106Y24420212D01*
X16410109Y24420214D01*
X16535048Y24592180D01*
X16535047Y24592180D01*
X16535051Y24592184D01*
X16631557Y24781588D01*
X16697246Y24983757D01*
X16730500Y25193713D01*
X16730500Y25406287D01*
X16697246Y25616243D01*
X16631557Y25818412D01*
X16535051Y26007816D01*
X16535049Y26007819D01*
X16535048Y26007821D01*
X16410109Y26179787D01*
X16259786Y26330110D01*
X16087820Y26455049D01*
X16084381Y26456801D01*
X16079054Y26459515D01*
X16028259Y26507488D01*
X16011463Y26575308D01*
X16033999Y26641444D01*
X16079054Y26680485D01*
X16087816Y26684949D01*
X16208117Y26772352D01*
X16259786Y26809891D01*
X16259788Y26809894D01*
X16259792Y26809896D01*
X16410104Y26960208D01*
X16410106Y26960212D01*
X16410109Y26960214D01*
X16535048Y27132180D01*
X16535047Y27132180D01*
X16535051Y27132184D01*
X16631557Y27321588D01*
X16697246Y27523757D01*
X16730500Y27733713D01*
X16730500Y27836946D01*
X22832119Y27836946D01*
X22832119Y27659555D01*
X22866722Y27485592D01*
X22866725Y27485583D01*
X22934602Y27321710D01*
X22934609Y27321697D01*
X23033154Y27174216D01*
X23033157Y27174212D01*
X23158580Y27048789D01*
X23158584Y27048786D01*
X23306065Y26950241D01*
X23306078Y26950234D01*
X23428982Y26899327D01*
X23469953Y26882356D01*
X23469955Y26882356D01*
X23469960Y26882354D01*
X23643923Y26847751D01*
X23643926Y26847750D01*
X23643928Y26847750D01*
X23661811Y26847750D01*
X23728850Y26828065D01*
X23749492Y26811431D01*
X25585800Y24975123D01*
X25619285Y24913800D01*
X25622119Y24887442D01*
X25622119Y20802612D01*
X25602434Y20735573D01*
X25585800Y20714931D01*
X25573157Y20702289D01*
X25573154Y20702285D01*
X25474609Y20554804D01*
X25474602Y20554791D01*
X25406725Y20390918D01*
X25406722Y20390909D01*
X25372119Y20216946D01*
X25372119Y20039555D01*
X25406722Y19865592D01*
X25406725Y19865583D01*
X25474602Y19701710D01*
X25474609Y19701697D01*
X25573154Y19554216D01*
X25573157Y19554212D01*
X25698580Y19428789D01*
X25698584Y19428786D01*
X25846065Y19330241D01*
X25846078Y19330234D01*
X25968982Y19279327D01*
X26009953Y19262356D01*
X26009955Y19262356D01*
X26009960Y19262354D01*
X26183923Y19227751D01*
X26183926Y19227750D01*
X26183928Y19227750D01*
X26361312Y19227750D01*
X26361313Y19227751D01*
X26419301Y19239286D01*
X26535277Y19262354D01*
X26535280Y19262356D01*
X26535285Y19262356D01*
X26683787Y19323867D01*
X26699159Y19330234D01*
X26699159Y19330235D01*
X26699166Y19330237D01*
X26846654Y19428786D01*
X26972083Y19554215D01*
X27070632Y19701703D01*
X27138513Y19865584D01*
X27149282Y19919720D01*
X27173118Y20039555D01*
X27173119Y20039557D01*
X27173119Y20216944D01*
X27173118Y20216946D01*
X27138515Y20390909D01*
X27138512Y20390918D01*
X27070635Y20554791D01*
X27070628Y20554804D01*
X26972083Y20702285D01*
X26972080Y20702289D01*
X26959438Y20714931D01*
X26925953Y20776254D01*
X26923119Y20802612D01*
X26923119Y25272322D01*
X26898121Y25397989D01*
X26898120Y25397990D01*
X26898120Y25397994D01*
X26849084Y25516377D01*
X26798665Y25591835D01*
X26777895Y25622920D01*
X26777893Y25622923D01*
X24669438Y27731378D01*
X24635953Y27792701D01*
X24633119Y27819059D01*
X24633119Y27836944D01*
X24633118Y27836946D01*
X24598515Y28010909D01*
X24598512Y28010918D01*
X24530635Y28174791D01*
X24530628Y28174804D01*
X24432083Y28322285D01*
X24432080Y28322289D01*
X24306657Y28447712D01*
X24306653Y28447715D01*
X24159172Y28546260D01*
X24159159Y28546267D01*
X23995286Y28614144D01*
X23995277Y28614147D01*
X23821313Y28648750D01*
X23821310Y28648750D01*
X23643928Y28648750D01*
X23643925Y28648750D01*
X23469960Y28614147D01*
X23469951Y28614144D01*
X23306078Y28546267D01*
X23306065Y28546260D01*
X23158584Y28447715D01*
X23158580Y28447712D01*
X23033157Y28322289D01*
X23033154Y28322285D01*
X22934609Y28174804D01*
X22934602Y28174791D01*
X22866725Y28010918D01*
X22866722Y28010909D01*
X22832119Y27836946D01*
X16730500Y27836946D01*
X16730500Y27946287D01*
X16697246Y28156243D01*
X16631557Y28358412D01*
X16535051Y28547816D01*
X16535049Y28547819D01*
X16535048Y28547821D01*
X16410109Y28719787D01*
X16259786Y28870110D01*
X16087817Y28995051D01*
X16078504Y28999796D01*
X16027707Y29047770D01*
X16010912Y29115591D01*
X16033449Y29181726D01*
X16078507Y29220768D01*
X16087555Y29225378D01*
X16141716Y29264730D01*
X16141717Y29264730D01*
X15509408Y29897038D01*
X15572993Y29914075D01*
X15687007Y29979901D01*
X15780099Y30072993D01*
X15845925Y30187007D01*
X15862962Y30250591D01*
X16495270Y29618283D01*
X16495270Y29618284D01*
X16534622Y29672446D01*
X16631095Y29861783D01*
X16696757Y30063870D01*
X16696757Y30063873D01*
X16730000Y30273754D01*
X16730000Y30486247D01*
X16696757Y30696128D01*
X16696757Y30696131D01*
X16631095Y30898218D01*
X16534624Y31087551D01*
X16495270Y31141718D01*
X16495269Y31141718D01*
X15862962Y30509410D01*
X15845925Y30572993D01*
X15780099Y30687007D01*
X15687007Y30780099D01*
X15572993Y30845925D01*
X15509409Y30862963D01*
X16141716Y31495272D01*
X16087547Y31534627D01*
X16087547Y31534628D01*
X16078500Y31539237D01*
X16027706Y31587212D01*
X16010912Y31655034D01*
X16033451Y31721168D01*
X16078508Y31760207D01*
X16087816Y31764949D01*
X16169393Y31824218D01*
X16259786Y31889891D01*
X16259788Y31889894D01*
X16259792Y31889896D01*
X16410104Y32040208D01*
X16410106Y32040212D01*
X16410109Y32040214D01*
X16535048Y32212180D01*
X16535047Y32212180D01*
X16535051Y32212184D01*
X16631557Y32401588D01*
X16697246Y32603757D01*
X16730500Y32813713D01*
X16730500Y33026287D01*
X16697246Y33236243D01*
X16631557Y33438412D01*
X16535051Y33627816D01*
X16535049Y33627819D01*
X16535048Y33627821D01*
X16410109Y33799787D01*
X16259786Y33950110D01*
X16087820Y34075049D01*
X16087115Y34075409D01*
X16079054Y34079515D01*
X16028259Y34127488D01*
X16011463Y34195308D01*
X16033999Y34261444D01*
X16079054Y34300485D01*
X16087816Y34304949D01*
X16142572Y34344731D01*
X16259786Y34429891D01*
X16259788Y34429894D01*
X16259792Y34429896D01*
X16410104Y34580208D01*
X16410106Y34580212D01*
X16410109Y34580214D01*
X16535048Y34752180D01*
X16535047Y34752180D01*
X16535051Y34752184D01*
X16631557Y34941588D01*
X16697246Y35143757D01*
X16730500Y35353713D01*
X16730500Y35566287D01*
X16697246Y35776243D01*
X16631557Y35978412D01*
X16535051Y36167816D01*
X16535049Y36167819D01*
X16535048Y36167821D01*
X16410109Y36339787D01*
X16259786Y36490110D01*
X16087820Y36615049D01*
X16079600Y36619237D01*
X16079054Y36619515D01*
X16028259Y36667488D01*
X16011463Y36735308D01*
X16033999Y36801444D01*
X16079054Y36840485D01*
X16087816Y36844949D01*
X16133156Y36877890D01*
X16259786Y36969891D01*
X16259788Y36969894D01*
X16259792Y36969896D01*
X16410104Y37120208D01*
X16410106Y37120212D01*
X16410109Y37120214D01*
X16535048Y37292180D01*
X16535047Y37292180D01*
X16535051Y37292184D01*
X16631557Y37481588D01*
X16697246Y37683757D01*
X16730500Y37893713D01*
X16730500Y38106287D01*
X16697246Y38316243D01*
X16631557Y38518412D01*
X16535051Y38707816D01*
X16535049Y38707819D01*
X16535048Y38707821D01*
X16410109Y38879787D01*
X16259786Y39030110D01*
X16087820Y39155049D01*
X16087115Y39155409D01*
X16079054Y39159515D01*
X16028259Y39207488D01*
X16011463Y39275308D01*
X16033999Y39341444D01*
X16079054Y39380485D01*
X16087816Y39384949D01*
X16127910Y39414079D01*
X16259786Y39509891D01*
X16259788Y39509894D01*
X16259792Y39509896D01*
X16410104Y39660208D01*
X16410106Y39660212D01*
X16410109Y39660214D01*
X16535048Y39832180D01*
X16535047Y39832180D01*
X16535051Y39832184D01*
X16631557Y40021588D01*
X16697246Y40223757D01*
X16700191Y40242352D01*
X17914500Y40242352D01*
X17914500Y40037648D01*
X17917044Y40021588D01*
X17946522Y39835466D01*
X18009781Y39640777D01*
X18073691Y39515347D01*
X18102585Y39458641D01*
X18102715Y39458387D01*
X18223028Y39292787D01*
X18367786Y39148029D01*
X18488226Y39060526D01*
X18533390Y39027713D01*
X18639944Y38973421D01*
X18715776Y38934782D01*
X18715778Y38934782D01*
X18715781Y38934780D01*
X18820137Y38900873D01*
X18910465Y38871523D01*
X19011557Y38855512D01*
X19112648Y38839500D01*
X19112649Y38839500D01*
X19317351Y38839500D01*
X19317352Y38839500D01*
X19519534Y38871523D01*
X19714219Y38934780D01*
X19896610Y39027713D01*
X19989590Y39095268D01*
X20062213Y39148029D01*
X20062215Y39148032D01*
X20062219Y39148034D01*
X20206966Y39292781D01*
X20206968Y39292785D01*
X20206971Y39292787D01*
X20273930Y39384950D01*
X20327287Y39458390D01*
X20420220Y39640781D01*
X20483477Y39835466D01*
X20515500Y40037648D01*
X20515500Y40242318D01*
X25535000Y40242318D01*
X25535000Y40037683D01*
X25567009Y39835583D01*
X25630244Y39640969D01*
X25723141Y39458650D01*
X25723147Y39458641D01*
X25755523Y39414079D01*
X25755524Y39414078D01*
X26435000Y40093554D01*
X26435000Y40087339D01*
X26462259Y39985606D01*
X26514920Y39894394D01*
X26589394Y39819920D01*
X26680606Y39767259D01*
X26782339Y39740000D01*
X26788553Y39740000D01*
X26109076Y39060526D01*
X26153650Y39028141D01*
X26335968Y38935245D01*
X26530582Y38872010D01*
X26732683Y38840000D01*
X26937317Y38840000D01*
X27139417Y38872010D01*
X27334031Y38935245D01*
X27516349Y39028141D01*
X27560921Y39060526D01*
X26881447Y39740000D01*
X26887661Y39740000D01*
X26989394Y39767259D01*
X27080606Y39819920D01*
X27155080Y39894394D01*
X27207741Y39985606D01*
X27235000Y40087339D01*
X27235000Y40093553D01*
X27914474Y39414079D01*
X27946859Y39458651D01*
X28039755Y39640969D01*
X28102990Y39835583D01*
X28135000Y40037683D01*
X28135000Y40242318D01*
X28102990Y40444418D01*
X28039755Y40639032D01*
X27946859Y40821350D01*
X27914474Y40865923D01*
X27914474Y40865924D01*
X27235000Y40186449D01*
X27235000Y40192661D01*
X27207741Y40294394D01*
X27155080Y40385606D01*
X27080606Y40460080D01*
X26989394Y40512741D01*
X26887661Y40540000D01*
X26881446Y40540000D01*
X27560922Y41219476D01*
X27560921Y41219477D01*
X27516359Y41251853D01*
X27516350Y41251859D01*
X27334031Y41344756D01*
X27139417Y41407991D01*
X26937317Y41440000D01*
X26732683Y41440000D01*
X26530582Y41407991D01*
X26335968Y41344756D01*
X26153644Y41251857D01*
X26109077Y41219477D01*
X26109077Y41219476D01*
X26788554Y40540000D01*
X26782339Y40540000D01*
X26680606Y40512741D01*
X26589394Y40460080D01*
X26514920Y40385606D01*
X26462259Y40294394D01*
X26435000Y40192661D01*
X26435000Y40186447D01*
X25755524Y40865923D01*
X25755523Y40865923D01*
X25723143Y40821356D01*
X25630244Y40639032D01*
X25567009Y40444418D01*
X25535000Y40242318D01*
X20515500Y40242318D01*
X20515500Y40242352D01*
X20507257Y40294394D01*
X20483477Y40444535D01*
X20452458Y40540000D01*
X20420220Y40639219D01*
X20420218Y40639222D01*
X20420218Y40639224D01*
X20327419Y40821350D01*
X20327287Y40821610D01*
X20295092Y40865923D01*
X20206971Y40987214D01*
X20062213Y41131972D01*
X19896613Y41252285D01*
X19896612Y41252286D01*
X19896610Y41252287D01*
X19806913Y41297990D01*
X19714223Y41345219D01*
X19519534Y41408478D01*
X19344995Y41436122D01*
X19317352Y41440500D01*
X19112648Y41440500D01*
X19088329Y41436649D01*
X18910465Y41408478D01*
X18715776Y41345219D01*
X18533386Y41252285D01*
X18367786Y41131972D01*
X18223028Y40987214D01*
X18102715Y40821614D01*
X18009781Y40639224D01*
X17946522Y40444535D01*
X17922586Y40293407D01*
X17914500Y40242352D01*
X16700191Y40242352D01*
X16730500Y40433713D01*
X16730500Y40646287D01*
X16697246Y40856243D01*
X16631557Y41058412D01*
X16535051Y41247816D01*
X16535049Y41247819D01*
X16535048Y41247821D01*
X16410109Y41419787D01*
X16259786Y41570110D01*
X16087820Y41695049D01*
X16087115Y41695409D01*
X16079054Y41699515D01*
X16028259Y41747488D01*
X16011463Y41815308D01*
X16033999Y41881444D01*
X16079054Y41920485D01*
X16087816Y41924949D01*
X16109789Y41940914D01*
X16259786Y42049891D01*
X16259788Y42049894D01*
X16259792Y42049896D01*
X16410104Y42200208D01*
X16410106Y42200212D01*
X16410109Y42200214D01*
X16535048Y42372180D01*
X16535047Y42372180D01*
X16535051Y42372184D01*
X16631557Y42561588D01*
X16697246Y42763757D01*
X16730500Y42973713D01*
X16730500Y43186287D01*
X16697246Y43396243D01*
X16682264Y43442352D01*
X17914500Y43442352D01*
X17914500Y43237649D01*
X17946522Y43035466D01*
X18009781Y42840777D01*
X18073691Y42715347D01*
X18102585Y42658641D01*
X18102715Y42658387D01*
X18223028Y42492787D01*
X18367786Y42348029D01*
X18488226Y42260526D01*
X18533390Y42227713D01*
X18649607Y42168497D01*
X18715776Y42134782D01*
X18715778Y42134782D01*
X18715781Y42134780D01*
X18820137Y42100873D01*
X18910465Y42071523D01*
X19011557Y42055512D01*
X19112648Y42039500D01*
X19112649Y42039500D01*
X19317351Y42039500D01*
X19317352Y42039500D01*
X19519534Y42071523D01*
X19714219Y42134780D01*
X19896610Y42227713D01*
X19989590Y42295268D01*
X20062213Y42348029D01*
X20062215Y42348032D01*
X20062219Y42348034D01*
X20206966Y42492781D01*
X20206968Y42492785D01*
X20206971Y42492787D01*
X20259732Y42565410D01*
X20327287Y42658390D01*
X20420220Y42840781D01*
X20483477Y43035466D01*
X20515500Y43237648D01*
X20515500Y43442318D01*
X25535000Y43442318D01*
X25535000Y43237683D01*
X25567009Y43035583D01*
X25630244Y42840969D01*
X25723141Y42658650D01*
X25723147Y42658641D01*
X25755523Y42614079D01*
X25755524Y42614078D01*
X26435000Y43293554D01*
X26435000Y43287339D01*
X26462259Y43185606D01*
X26514920Y43094394D01*
X26589394Y43019920D01*
X26680606Y42967259D01*
X26782339Y42940000D01*
X26788553Y42940000D01*
X26109076Y42260526D01*
X26153650Y42228141D01*
X26335968Y42135245D01*
X26530582Y42072010D01*
X26732683Y42040000D01*
X26937317Y42040000D01*
X27139417Y42072010D01*
X27334031Y42135245D01*
X27516349Y42228141D01*
X27560921Y42260526D01*
X26881447Y42940000D01*
X26887661Y42940000D01*
X26989394Y42967259D01*
X27080606Y43019920D01*
X27155080Y43094394D01*
X27207741Y43185606D01*
X27235000Y43287339D01*
X27235000Y43293553D01*
X27914474Y42614079D01*
X27946859Y42658651D01*
X28039755Y42840969D01*
X28102990Y43035583D01*
X28126860Y43186287D01*
X29269500Y43186287D01*
X29269500Y42973714D01*
X29290554Y42840781D01*
X29302754Y42763757D01*
X29338918Y42652455D01*
X29368444Y42561586D01*
X29464951Y42372180D01*
X29589890Y42200214D01*
X29740213Y42049891D01*
X29912182Y41924950D01*
X29920946Y41920484D01*
X29971742Y41872509D01*
X29988536Y41804688D01*
X29965998Y41738553D01*
X29920946Y41699516D01*
X29912182Y41695051D01*
X29740213Y41570110D01*
X29589890Y41419787D01*
X29464951Y41247821D01*
X29368444Y41058415D01*
X29302753Y40856240D01*
X29297228Y40821356D01*
X29269500Y40646287D01*
X29269500Y40433713D01*
X29302754Y40223757D01*
X29365796Y40029734D01*
X29368444Y40021586D01*
X29464951Y39832180D01*
X29589890Y39660214D01*
X29740213Y39509891D01*
X29912182Y39384950D01*
X29920946Y39380484D01*
X29971742Y39332509D01*
X29988536Y39264688D01*
X29965998Y39198553D01*
X29920946Y39159516D01*
X29912182Y39155051D01*
X29740213Y39030110D01*
X29589890Y38879787D01*
X29464951Y38707821D01*
X29368444Y38518415D01*
X29302753Y38316240D01*
X29286028Y38210642D01*
X29269500Y38106287D01*
X29269500Y37893713D01*
X29302754Y37683757D01*
X29339010Y37572172D01*
X29368444Y37481586D01*
X29464951Y37292180D01*
X29589890Y37120214D01*
X29740213Y36969891D01*
X29912179Y36844952D01*
X29912181Y36844951D01*
X29912184Y36844949D01*
X29921493Y36840206D01*
X29972290Y36792234D01*
X29989087Y36724413D01*
X29966552Y36658278D01*
X29921505Y36619240D01*
X29912446Y36614624D01*
X29912440Y36614620D01*
X29858282Y36575273D01*
X29858282Y36575272D01*
X30490591Y35942963D01*
X30427007Y35925925D01*
X30312993Y35860099D01*
X30219901Y35767007D01*
X30154075Y35652993D01*
X30137037Y35589409D01*
X29504728Y36221718D01*
X29504727Y36221718D01*
X29465380Y36167561D01*
X29368904Y35978218D01*
X29303242Y35776131D01*
X29303242Y35776128D01*
X29270000Y35566247D01*
X29270000Y35353754D01*
X29303242Y35143873D01*
X29303242Y35143870D01*
X29368904Y34941783D01*
X29465375Y34752450D01*
X29504728Y34698284D01*
X30137037Y35330592D01*
X30154075Y35267007D01*
X30219901Y35152993D01*
X30312993Y35059901D01*
X30427007Y34994075D01*
X30490590Y34977038D01*
X29858282Y34344731D01*
X29858282Y34344730D01*
X29912452Y34305374D01*
X29912451Y34305374D01*
X29921495Y34300766D01*
X29972292Y34252792D01*
X29989087Y34184971D01*
X29966550Y34118836D01*
X29921499Y34079798D01*
X29912182Y34075051D01*
X29740213Y33950110D01*
X29589890Y33799787D01*
X29464951Y33627821D01*
X29368444Y33438415D01*
X29302753Y33236240D01*
X29275963Y33067093D01*
X29269500Y33026287D01*
X29269500Y32813713D01*
X29302754Y32603757D01*
X29338918Y32492455D01*
X29368444Y32401586D01*
X29464951Y32212180D01*
X29589890Y32040214D01*
X29740213Y31889891D01*
X29912182Y31764950D01*
X29920946Y31760484D01*
X29971742Y31712509D01*
X29988536Y31644688D01*
X29965998Y31578553D01*
X29920946Y31539516D01*
X29912182Y31535051D01*
X29740213Y31410110D01*
X29589890Y31259787D01*
X29464951Y31087821D01*
X29368444Y30898415D01*
X29302753Y30696240D01*
X29269500Y30486287D01*
X29269500Y30273714D01*
X29302735Y30063873D01*
X29302754Y30063757D01*
X29365152Y29871716D01*
X29368444Y29861586D01*
X29464951Y29672180D01*
X29589890Y29500214D01*
X29740213Y29349891D01*
X29912182Y29224950D01*
X29920946Y29220484D01*
X29971742Y29172509D01*
X29988536Y29104688D01*
X29965998Y29038553D01*
X29920946Y28999516D01*
X29912182Y28995051D01*
X29740213Y28870110D01*
X29589890Y28719787D01*
X29464951Y28547821D01*
X29368444Y28358415D01*
X29302753Y28156240D01*
X29279736Y28010916D01*
X29269500Y27946287D01*
X29269500Y27733713D01*
X29302754Y27523757D01*
X29368403Y27321710D01*
X29368444Y27321586D01*
X29464951Y27132180D01*
X29589890Y26960214D01*
X29740213Y26809891D01*
X29912182Y26684950D01*
X29920946Y26680484D01*
X29971742Y26632509D01*
X29988536Y26564688D01*
X29965998Y26498553D01*
X29920946Y26459516D01*
X29912182Y26455051D01*
X29740213Y26330110D01*
X29589890Y26179787D01*
X29464951Y26007821D01*
X29368444Y25818415D01*
X29302753Y25616240D01*
X29269500Y25406287D01*
X29269500Y25193714D01*
X29302476Y24985507D01*
X29302754Y24983757D01*
X29368403Y24781710D01*
X29368444Y24781586D01*
X29464951Y24592180D01*
X29589890Y24420214D01*
X29740213Y24269891D01*
X29912182Y24144950D01*
X29920946Y24140484D01*
X29971742Y24092509D01*
X29988536Y24024688D01*
X29965998Y23958553D01*
X29920946Y23919516D01*
X29912182Y23915051D01*
X29740213Y23790110D01*
X29589890Y23639787D01*
X29464951Y23467821D01*
X29368444Y23278415D01*
X29302753Y23076240D01*
X29269500Y22866287D01*
X29269500Y22653714D01*
X29302476Y22445507D01*
X29302754Y22443757D01*
X29367874Y22243338D01*
X29368444Y22241586D01*
X29464951Y22052180D01*
X29589890Y21880214D01*
X29740213Y21729891D01*
X29912182Y21604950D01*
X29920946Y21600484D01*
X29971742Y21552509D01*
X29988536Y21484688D01*
X29965998Y21418553D01*
X29920946Y21379516D01*
X29912182Y21375051D01*
X29740213Y21250110D01*
X29589890Y21099787D01*
X29464951Y20927821D01*
X29368444Y20738415D01*
X29302753Y20536240D01*
X29269500Y20326287D01*
X29269500Y20113714D01*
X29302476Y19905507D01*
X29302754Y19903757D01*
X29368403Y19701710D01*
X29368444Y19701586D01*
X29464951Y19512180D01*
X29589890Y19340214D01*
X29740213Y19189891D01*
X29912182Y19064950D01*
X29920946Y19060484D01*
X29971742Y19012509D01*
X29988536Y18944688D01*
X29965998Y18878553D01*
X29920946Y18839516D01*
X29912182Y18835051D01*
X29740213Y18710110D01*
X29589890Y18559787D01*
X29464951Y18387821D01*
X29368444Y18198415D01*
X29302753Y17996240D01*
X29269500Y17786287D01*
X29269500Y17573714D01*
X29302753Y17363761D01*
X29368444Y17161586D01*
X29464951Y16972180D01*
X29589890Y16800214D01*
X29740213Y16649891D01*
X29912182Y16524950D01*
X29920946Y16520484D01*
X29971742Y16472509D01*
X29988536Y16404688D01*
X29965998Y16338553D01*
X29920946Y16299516D01*
X29912182Y16295051D01*
X29740213Y16170110D01*
X29589890Y16019787D01*
X29464951Y15847821D01*
X29368444Y15658415D01*
X29302753Y15456240D01*
X29269500Y15246287D01*
X29269500Y15033714D01*
X29300225Y14839721D01*
X29302754Y14823757D01*
X29318311Y14775877D01*
X29368444Y14621586D01*
X29464951Y14432180D01*
X29589890Y14260214D01*
X29740213Y14109891D01*
X29912182Y13984950D01*
X29920946Y13980484D01*
X29971742Y13932509D01*
X29988536Y13864688D01*
X29965998Y13798553D01*
X29920946Y13759516D01*
X29912182Y13755051D01*
X29740213Y13630110D01*
X29589890Y13479787D01*
X29464951Y13307821D01*
X29368444Y13118415D01*
X29302753Y12916240D01*
X29269500Y12706287D01*
X29269500Y12493714D01*
X29302753Y12283761D01*
X29368444Y12081586D01*
X29464951Y11892180D01*
X29589890Y11720214D01*
X29740213Y11569891D01*
X29912182Y11444950D01*
X29920946Y11440484D01*
X29971742Y11392509D01*
X29988536Y11324688D01*
X29965998Y11258553D01*
X29920946Y11219516D01*
X29912182Y11215051D01*
X29740213Y11090110D01*
X29589890Y10939787D01*
X29464951Y10767821D01*
X29368444Y10578415D01*
X29302753Y10376240D01*
X29276796Y10212352D01*
X29269500Y10166287D01*
X29269500Y9953713D01*
X29302754Y9743757D01*
X29344741Y9614534D01*
X29368444Y9541586D01*
X29464951Y9352180D01*
X29589890Y9180214D01*
X29740213Y9029891D01*
X29912182Y8904950D01*
X29920946Y8900484D01*
X29971742Y8852509D01*
X29988536Y8784688D01*
X29965998Y8718553D01*
X29920946Y8679516D01*
X29912182Y8675051D01*
X29740213Y8550110D01*
X29589890Y8399787D01*
X29464951Y8227821D01*
X29368444Y8038415D01*
X29302753Y7836240D01*
X29269500Y7626287D01*
X29269500Y7413714D01*
X29302753Y7203761D01*
X29368444Y7001586D01*
X29464951Y6812180D01*
X29589890Y6640214D01*
X29740213Y6489891D01*
X29912182Y6364950D01*
X29920946Y6360484D01*
X29971742Y6312509D01*
X29988536Y6244688D01*
X29965998Y6178553D01*
X29920946Y6139516D01*
X29912182Y6135051D01*
X29740213Y6010110D01*
X29589890Y5859787D01*
X29464951Y5687821D01*
X29368444Y5498415D01*
X29302753Y5296240D01*
X29269500Y5086287D01*
X29269500Y4873714D01*
X29302753Y4663761D01*
X29368444Y4461586D01*
X29464951Y4272180D01*
X29589890Y4100214D01*
X29703430Y3986674D01*
X29736915Y3925351D01*
X29731931Y3855659D01*
X29690059Y3799726D01*
X29659083Y3782811D01*
X29527669Y3733797D01*
X29527664Y3733794D01*
X29412455Y3647548D01*
X29412452Y3647545D01*
X29326206Y3532336D01*
X29326202Y3532329D01*
X29275908Y3397483D01*
X29269501Y3337884D01*
X29269501Y3337877D01*
X29269500Y3337865D01*
X29269500Y1542130D01*
X29269501Y1542124D01*
X29275908Y1482517D01*
X29326202Y1347672D01*
X29326206Y1347665D01*
X29412452Y1232456D01*
X29412455Y1232453D01*
X29527664Y1146207D01*
X29527671Y1146203D01*
X29662517Y1095909D01*
X29662516Y1095909D01*
X29669444Y1095165D01*
X29722127Y1089500D01*
X31517872Y1089501D01*
X31577483Y1095909D01*
X31712331Y1146204D01*
X31827546Y1232454D01*
X31913796Y1347669D01*
X31964091Y1482517D01*
X31970500Y1542127D01*
X31970499Y3337872D01*
X31964091Y3397483D01*
X31913796Y3532331D01*
X31913795Y3532332D01*
X31913793Y3532336D01*
X31827547Y3647545D01*
X31827544Y3647548D01*
X31712335Y3733794D01*
X31712328Y3733798D01*
X31580917Y3782811D01*
X31524983Y3824682D01*
X31500566Y3890147D01*
X31515418Y3958420D01*
X31536563Y3986668D01*
X31650104Y4100208D01*
X31691422Y4157077D01*
X31775048Y4272180D01*
X31775047Y4272180D01*
X31775051Y4272184D01*
X31871557Y4461588D01*
X31937246Y4663757D01*
X31970500Y4873713D01*
X31970500Y5086287D01*
X31970500Y5086288D01*
X31950004Y5215697D01*
X31947703Y5230222D01*
X41349500Y5230222D01*
X41349500Y5009779D01*
X41383985Y4792048D01*
X41452103Y4582397D01*
X41452104Y4582394D01*
X41552187Y4385975D01*
X41681752Y4207642D01*
X41681756Y4207637D01*
X41732316Y4157077D01*
X41765801Y4095754D01*
X41760817Y4026062D01*
X41718945Y3970129D01*
X41687969Y3953215D01*
X41607918Y3923357D01*
X41607906Y3923351D01*
X41492812Y3837191D01*
X41492809Y3837188D01*
X41406649Y3722094D01*
X41406645Y3722087D01*
X41356403Y3587380D01*
X41356401Y3587373D01*
X41350000Y3527845D01*
X41350000Y2830000D01*
X42374722Y2830000D01*
X42330667Y2753694D01*
X42300000Y2639244D01*
X42300000Y2520756D01*
X42330667Y2406306D01*
X42374722Y2330000D01*
X41350000Y2330000D01*
X41350000Y1632156D01*
X41356401Y1572628D01*
X41356403Y1572621D01*
X41406645Y1437914D01*
X41406649Y1437907D01*
X41492809Y1322813D01*
X41492812Y1322810D01*
X41607906Y1236650D01*
X41607913Y1236646D01*
X41742620Y1186404D01*
X41742627Y1186402D01*
X41802155Y1180001D01*
X41802172Y1180000D01*
X42500000Y1180000D01*
X42500000Y2204723D01*
X42576306Y2160667D01*
X42690756Y2130000D01*
X42809244Y2130000D01*
X42923694Y2160667D01*
X43000000Y2204723D01*
X43000000Y1180000D01*
X43697828Y1180000D01*
X43697844Y1180001D01*
X43757372Y1186402D01*
X43757379Y1186404D01*
X43892086Y1236646D01*
X43892093Y1236650D01*
X44007187Y1322810D01*
X44007190Y1322813D01*
X44093350Y1437907D01*
X44093354Y1437914D01*
X44143596Y1572621D01*
X44143598Y1572628D01*
X44149999Y1632156D01*
X44150000Y1632173D01*
X44150000Y2330000D01*
X43125278Y2330000D01*
X43169333Y2406306D01*
X43200000Y2520756D01*
X43200000Y2639244D01*
X43169333Y2753694D01*
X43125278Y2830000D01*
X44150000Y2830000D01*
X44150000Y3527828D01*
X44149999Y3527845D01*
X44143598Y3587373D01*
X44143596Y3587380D01*
X44093354Y3722087D01*
X44093350Y3722094D01*
X44007190Y3837188D01*
X44007187Y3837191D01*
X43892093Y3923351D01*
X43892087Y3923354D01*
X43812030Y3953214D01*
X43756097Y3995086D01*
X43731680Y4060550D01*
X43746532Y4128823D01*
X43767681Y4157075D01*
X43818242Y4207635D01*
X43947815Y4385978D01*
X44047895Y4582394D01*
X44116015Y4792049D01*
X44150500Y5009778D01*
X44150500Y5230222D01*
X44116015Y5447951D01*
X44047895Y5657606D01*
X44047895Y5657607D01*
X44013237Y5725625D01*
X43947815Y5854022D01*
X43931260Y5876808D01*
X43818247Y6032359D01*
X43818243Y6032364D01*
X43662363Y6188244D01*
X43662358Y6188248D01*
X43484025Y6317813D01*
X43484024Y6317814D01*
X43484022Y6317815D01*
X43421096Y6349878D01*
X43287606Y6417896D01*
X43287603Y6417897D01*
X43077952Y6486015D01*
X42969086Y6503258D01*
X42860222Y6520500D01*
X42639778Y6520500D01*
X42567201Y6509005D01*
X42422047Y6486015D01*
X42212396Y6417897D01*
X42212393Y6417896D01*
X42015974Y6317813D01*
X41837641Y6188248D01*
X41837636Y6188244D01*
X41681756Y6032364D01*
X41681752Y6032359D01*
X41552187Y5854026D01*
X41452104Y5657607D01*
X41452103Y5657604D01*
X41383985Y5447953D01*
X41349500Y5230222D01*
X31947703Y5230222D01*
X31937246Y5296241D01*
X31937246Y5296243D01*
X31871557Y5498412D01*
X31775051Y5687816D01*
X31775049Y5687819D01*
X31775048Y5687821D01*
X31650109Y5859787D01*
X31499786Y6010110D01*
X31327820Y6135049D01*
X31327115Y6135409D01*
X31319054Y6139515D01*
X31268259Y6187488D01*
X31251463Y6255308D01*
X31273999Y6321444D01*
X31319054Y6360485D01*
X31327816Y6364949D01*
X31383279Y6405245D01*
X31499786Y6489891D01*
X31499788Y6489894D01*
X31499792Y6489896D01*
X31650104Y6640208D01*
X31650106Y6640212D01*
X31650109Y6640214D01*
X31775048Y6812180D01*
X31775047Y6812180D01*
X31775051Y6812184D01*
X31871557Y7001588D01*
X31937246Y7203757D01*
X31970500Y7413713D01*
X31970500Y7626287D01*
X31937246Y7836243D01*
X31871557Y8038412D01*
X31775051Y8227816D01*
X31775049Y8227819D01*
X31775048Y8227821D01*
X31650109Y8399787D01*
X31499786Y8550110D01*
X31327820Y8675049D01*
X31327115Y8675409D01*
X31319054Y8679515D01*
X31268259Y8727488D01*
X31251463Y8795308D01*
X31273999Y8861444D01*
X31319054Y8900485D01*
X31327816Y8904949D01*
X31351603Y8922231D01*
X31499786Y9029891D01*
X31499788Y9029894D01*
X31499792Y9029896D01*
X31650104Y9180208D01*
X31650106Y9180212D01*
X31650109Y9180214D01*
X31775048Y9352180D01*
X31775047Y9352180D01*
X31775051Y9352184D01*
X31805708Y9412352D01*
X32909500Y9412352D01*
X32909500Y9207649D01*
X32941522Y9005466D01*
X33004781Y8810777D01*
X33097715Y8628387D01*
X33218028Y8462787D01*
X33362786Y8318029D01*
X33486956Y8227816D01*
X33528390Y8197713D01*
X33644607Y8138497D01*
X33710776Y8104782D01*
X33710778Y8104782D01*
X33710781Y8104780D01*
X33815137Y8070873D01*
X33905465Y8041523D01*
X34006557Y8025512D01*
X34107648Y8009500D01*
X34107649Y8009500D01*
X34312351Y8009500D01*
X34312352Y8009500D01*
X34514534Y8041523D01*
X34709219Y8104780D01*
X34891610Y8197713D01*
X34984590Y8265268D01*
X35057213Y8318029D01*
X35057215Y8318032D01*
X35057219Y8318034D01*
X35201966Y8462781D01*
X35201968Y8462785D01*
X35201971Y8462787D01*
X35265414Y8550110D01*
X35322287Y8628390D01*
X35415220Y8810781D01*
X35478477Y9005466D01*
X35510500Y9207648D01*
X35510500Y9412352D01*
X36279500Y9412352D01*
X36279500Y9207649D01*
X36311522Y9005466D01*
X36374781Y8810777D01*
X36467715Y8628387D01*
X36588028Y8462787D01*
X36732786Y8318029D01*
X36856956Y8227816D01*
X36898390Y8197713D01*
X37014607Y8138497D01*
X37080776Y8104782D01*
X37080778Y8104782D01*
X37080781Y8104780D01*
X37185137Y8070873D01*
X37275465Y8041523D01*
X37376557Y8025512D01*
X37477648Y8009500D01*
X37477649Y8009500D01*
X37682351Y8009500D01*
X37682352Y8009500D01*
X37884534Y8041523D01*
X38079219Y8104780D01*
X38261610Y8197713D01*
X38354590Y8265268D01*
X38427213Y8318029D01*
X38427215Y8318032D01*
X38427219Y8318034D01*
X38571966Y8462781D01*
X38571968Y8462785D01*
X38571971Y8462787D01*
X38635414Y8550110D01*
X38692287Y8628390D01*
X38785220Y8810781D01*
X38848477Y9005466D01*
X38880500Y9207648D01*
X38880500Y9412352D01*
X38849072Y9610777D01*
X38848477Y9614535D01*
X38806490Y9743757D01*
X38785220Y9809219D01*
X38785218Y9809222D01*
X38785218Y9809224D01*
X38751503Y9875393D01*
X38692287Y9991610D01*
X38680634Y10007649D01*
X38571971Y10157214D01*
X38427213Y10301972D01*
X38261613Y10422285D01*
X38261612Y10422286D01*
X38261610Y10422287D01*
X38204653Y10451309D01*
X38079223Y10515219D01*
X37884534Y10578478D01*
X37709995Y10606122D01*
X37682352Y10610500D01*
X37477648Y10610500D01*
X37453329Y10606649D01*
X37275465Y10578478D01*
X37080776Y10515219D01*
X36898386Y10422285D01*
X36732786Y10301972D01*
X36588028Y10157214D01*
X36467715Y9991614D01*
X36374781Y9809224D01*
X36311522Y9614535D01*
X36279500Y9412352D01*
X35510500Y9412352D01*
X35479072Y9610777D01*
X35478477Y9614535D01*
X35436490Y9743757D01*
X35415220Y9809219D01*
X35415218Y9809222D01*
X35415218Y9809224D01*
X35381503Y9875393D01*
X35322287Y9991610D01*
X35310634Y10007649D01*
X35201971Y10157214D01*
X35057213Y10301972D01*
X34891613Y10422285D01*
X34891612Y10422286D01*
X34891610Y10422287D01*
X34834653Y10451309D01*
X34709223Y10515219D01*
X34514534Y10578478D01*
X34339995Y10606122D01*
X34312352Y10610500D01*
X34107648Y10610500D01*
X34083329Y10606649D01*
X33905465Y10578478D01*
X33710776Y10515219D01*
X33528386Y10422285D01*
X33362786Y10301972D01*
X33218028Y10157214D01*
X33097715Y9991614D01*
X33004781Y9809224D01*
X32941522Y9614535D01*
X32909500Y9412352D01*
X31805708Y9412352D01*
X31871557Y9541588D01*
X31937246Y9743757D01*
X31970500Y9953713D01*
X31970500Y10166287D01*
X31937246Y10376243D01*
X31871557Y10578412D01*
X31775051Y10767816D01*
X31775049Y10767819D01*
X31775048Y10767821D01*
X31650109Y10939787D01*
X31499786Y11090110D01*
X31327820Y11215049D01*
X31327115Y11215409D01*
X31319054Y11219515D01*
X31268259Y11267488D01*
X31251463Y11335308D01*
X31273999Y11401444D01*
X31319054Y11440485D01*
X31327816Y11444949D01*
X31349789Y11460914D01*
X31499786Y11569891D01*
X31499788Y11569894D01*
X31499792Y11569896D01*
X31650104Y11720208D01*
X31650106Y11720212D01*
X31650109Y11720214D01*
X31775048Y11892180D01*
X31775047Y11892180D01*
X31775051Y11892184D01*
X31871557Y12081588D01*
X31937246Y12283757D01*
X31970500Y12493713D01*
X31970500Y12706287D01*
X31937246Y12916243D01*
X31871557Y13118412D01*
X31775051Y13307816D01*
X31775049Y13307819D01*
X31775048Y13307821D01*
X31650109Y13479787D01*
X31499786Y13630110D01*
X31327820Y13755049D01*
X31327115Y13755409D01*
X31319054Y13759515D01*
X31268259Y13807488D01*
X31251463Y13875308D01*
X31273999Y13941444D01*
X31319054Y13980485D01*
X31327816Y13984949D01*
X31349789Y14000914D01*
X31499786Y14109891D01*
X31499788Y14109894D01*
X31499792Y14109896D01*
X31504638Y14114742D01*
X38249500Y14114742D01*
X38249500Y13885259D01*
X38274446Y13695785D01*
X38279452Y13657762D01*
X38286863Y13630104D01*
X38338842Y13436113D01*
X38426650Y13224124D01*
X38426657Y13224110D01*
X38541392Y13025383D01*
X38681081Y12843339D01*
X38681089Y12843330D01*
X38843330Y12681089D01*
X38843338Y12681082D01*
X39025382Y12541393D01*
X39025385Y12541392D01*
X39025388Y12541389D01*
X39224112Y12426656D01*
X39224117Y12426654D01*
X39224123Y12426651D01*
X39315480Y12388810D01*
X39436113Y12338842D01*
X39657762Y12279452D01*
X39885266Y12249500D01*
X39885273Y12249500D01*
X40114727Y12249500D01*
X40114734Y12249500D01*
X40342238Y12279452D01*
X40563887Y12338842D01*
X40775888Y12426656D01*
X40974612Y12541389D01*
X41156661Y12681081D01*
X41156665Y12681086D01*
X41156670Y12681089D01*
X41318911Y12843330D01*
X41318914Y12843335D01*
X41318919Y12843339D01*
X41458611Y13025388D01*
X41573344Y13224112D01*
X41661158Y13436113D01*
X41720548Y13657762D01*
X41750500Y13885266D01*
X41750500Y14114734D01*
X41720548Y14342238D01*
X41661158Y14563887D01*
X41573344Y14775888D01*
X41458611Y14974612D01*
X41458608Y14974615D01*
X41458607Y14974618D01*
X41318918Y15156662D01*
X41318911Y15156670D01*
X41156670Y15318911D01*
X41156661Y15318919D01*
X40974617Y15458608D01*
X40775890Y15573343D01*
X40775876Y15573350D01*
X40563887Y15661158D01*
X40342238Y15720548D01*
X40304215Y15725554D01*
X40114741Y15750500D01*
X40114734Y15750500D01*
X39885266Y15750500D01*
X39885258Y15750500D01*
X39668715Y15721991D01*
X39657762Y15720548D01*
X39564076Y15695446D01*
X39436112Y15661158D01*
X39224123Y15573350D01*
X39224109Y15573343D01*
X39025382Y15458608D01*
X38843338Y15318919D01*
X38681081Y15156662D01*
X38541392Y14974618D01*
X38426657Y14775891D01*
X38426650Y14775877D01*
X38338842Y14563888D01*
X38279453Y14342241D01*
X38279451Y14342230D01*
X38249500Y14114742D01*
X31504638Y14114742D01*
X31650104Y14260208D01*
X31650106Y14260212D01*
X31650109Y14260214D01*
X31775048Y14432180D01*
X31775047Y14432180D01*
X31775051Y14432184D01*
X31871557Y14621588D01*
X31937246Y14823757D01*
X31970500Y15033713D01*
X31970500Y15246287D01*
X31937246Y15456243D01*
X31871557Y15658412D01*
X31775051Y15847816D01*
X31775049Y15847819D01*
X31775048Y15847821D01*
X31650109Y16019787D01*
X31499786Y16170110D01*
X31327820Y16295049D01*
X31327115Y16295409D01*
X31319054Y16299515D01*
X31268259Y16347488D01*
X31251463Y16415308D01*
X31273999Y16481444D01*
X31319054Y16520485D01*
X31327816Y16524949D01*
X31349789Y16540914D01*
X31499786Y16649891D01*
X31499788Y16649894D01*
X31499792Y16649896D01*
X31650104Y16800208D01*
X31650106Y16800212D01*
X31650109Y16800214D01*
X31775048Y16972180D01*
X31775047Y16972180D01*
X31775051Y16972184D01*
X31871557Y17161588D01*
X31937246Y17363757D01*
X31970500Y17573713D01*
X31970500Y17786287D01*
X31937246Y17996243D01*
X31871557Y18198412D01*
X31775051Y18387816D01*
X31775049Y18387819D01*
X31775048Y18387821D01*
X31650109Y18559787D01*
X31499786Y18710110D01*
X31327820Y18835049D01*
X31327115Y18835409D01*
X31319054Y18839515D01*
X31268259Y18887488D01*
X31251463Y18955308D01*
X31273999Y19021444D01*
X31319054Y19060485D01*
X31327816Y19064949D01*
X31349789Y19080914D01*
X31448117Y19152352D01*
X32909500Y19152352D01*
X32909500Y18947649D01*
X32941522Y18745466D01*
X33004781Y18550777D01*
X33042532Y18476688D01*
X33087812Y18387821D01*
X33097715Y18368387D01*
X33218028Y18202787D01*
X33362786Y18058029D01*
X33517749Y17945444D01*
X33528390Y17937713D01*
X33644607Y17878497D01*
X33710776Y17844782D01*
X33710778Y17844782D01*
X33710781Y17844780D01*
X33815137Y17810873D01*
X33905465Y17781523D01*
X34006557Y17765512D01*
X34107648Y17749500D01*
X34107649Y17749500D01*
X34312351Y17749500D01*
X34312352Y17749500D01*
X34514534Y17781523D01*
X34709219Y17844780D01*
X34891610Y17937713D01*
X34984590Y18005268D01*
X35057213Y18058029D01*
X35057215Y18058032D01*
X35057219Y18058034D01*
X35201966Y18202781D01*
X35201968Y18202785D01*
X35201971Y18202787D01*
X35254732Y18275410D01*
X35322287Y18368390D01*
X35415220Y18550781D01*
X35478477Y18745466D01*
X35510500Y18947648D01*
X35510500Y19152352D01*
X36259500Y19152352D01*
X36259500Y18947649D01*
X36291522Y18745466D01*
X36354781Y18550777D01*
X36392532Y18476688D01*
X36437812Y18387821D01*
X36447715Y18368387D01*
X36568028Y18202787D01*
X36712786Y18058029D01*
X36867749Y17945444D01*
X36878390Y17937713D01*
X36994607Y17878497D01*
X37060776Y17844782D01*
X37060778Y17844782D01*
X37060781Y17844780D01*
X37165137Y17810873D01*
X37255465Y17781523D01*
X37356557Y17765512D01*
X37457648Y17749500D01*
X37457649Y17749500D01*
X37662351Y17749500D01*
X37662352Y17749500D01*
X37864534Y17781523D01*
X38059219Y17844780D01*
X38241610Y17937713D01*
X38334590Y18005268D01*
X38407213Y18058029D01*
X38407215Y18058032D01*
X38407219Y18058034D01*
X38551966Y18202781D01*
X38551968Y18202785D01*
X38551971Y18202787D01*
X38604732Y18275410D01*
X38672287Y18368390D01*
X38765220Y18550781D01*
X38828477Y18745466D01*
X38860500Y18947648D01*
X38860500Y19152352D01*
X38828477Y19354534D01*
X38765220Y19549219D01*
X38765218Y19549222D01*
X38765218Y19549224D01*
X38731503Y19615393D01*
X38672287Y19731610D01*
X38664556Y19742251D01*
X38551971Y19897214D01*
X38407213Y20041972D01*
X38241613Y20162285D01*
X38241612Y20162286D01*
X38241610Y20162287D01*
X38134346Y20216941D01*
X38059223Y20255219D01*
X37864534Y20318478D01*
X37689995Y20346122D01*
X37662352Y20350500D01*
X37457648Y20350500D01*
X37433329Y20346649D01*
X37255465Y20318478D01*
X37060776Y20255219D01*
X36878386Y20162285D01*
X36712786Y20041972D01*
X36568028Y19897214D01*
X36447715Y19731614D01*
X36354781Y19549224D01*
X36291522Y19354535D01*
X36259500Y19152352D01*
X35510500Y19152352D01*
X35478477Y19354534D01*
X35415220Y19549219D01*
X35415218Y19549222D01*
X35415218Y19549224D01*
X35381503Y19615393D01*
X35322287Y19731610D01*
X35314556Y19742251D01*
X35201971Y19897214D01*
X35057213Y20041972D01*
X34891613Y20162285D01*
X34891612Y20162286D01*
X34891610Y20162287D01*
X34784346Y20216941D01*
X34709223Y20255219D01*
X34514534Y20318478D01*
X34339995Y20346122D01*
X34312352Y20350500D01*
X34107648Y20350500D01*
X34083329Y20346649D01*
X33905465Y20318478D01*
X33710776Y20255219D01*
X33528386Y20162285D01*
X33362786Y20041972D01*
X33218028Y19897214D01*
X33097715Y19731614D01*
X33004781Y19549224D01*
X32941522Y19354535D01*
X32909500Y19152352D01*
X31448117Y19152352D01*
X31499786Y19189891D01*
X31499788Y19189894D01*
X31499792Y19189896D01*
X31650104Y19340208D01*
X31650106Y19340212D01*
X31650109Y19340214D01*
X31775048Y19512180D01*
X31775047Y19512180D01*
X31775051Y19512184D01*
X31871557Y19701588D01*
X31937246Y19903757D01*
X31970500Y20113713D01*
X31970500Y20326287D01*
X31937246Y20536243D01*
X31871557Y20738412D01*
X31775051Y20927816D01*
X31775049Y20927819D01*
X31775048Y20927821D01*
X31650109Y21099787D01*
X31499786Y21250110D01*
X31327820Y21375049D01*
X31324381Y21376801D01*
X31319054Y21379515D01*
X31268259Y21427488D01*
X31251463Y21495308D01*
X31273999Y21561444D01*
X31319054Y21600485D01*
X31327816Y21604949D01*
X31384979Y21646480D01*
X31499786Y21729891D01*
X31499788Y21729894D01*
X31499792Y21729896D01*
X31650104Y21880208D01*
X31650106Y21880212D01*
X31650109Y21880214D01*
X31775048Y22052180D01*
X31775047Y22052180D01*
X31775051Y22052184D01*
X31871557Y22241588D01*
X31937246Y22443757D01*
X31970500Y22653713D01*
X31970500Y22866287D01*
X31937246Y23076243D01*
X31871557Y23278412D01*
X31775051Y23467816D01*
X31775049Y23467819D01*
X31775048Y23467821D01*
X31650109Y23639787D01*
X31499786Y23790110D01*
X31327820Y23915049D01*
X31325219Y23916374D01*
X31319054Y23919515D01*
X31268259Y23967488D01*
X31251463Y24035308D01*
X31273999Y24101444D01*
X31319054Y24140485D01*
X31327816Y24144949D01*
X31349789Y24160914D01*
X31499786Y24269891D01*
X31499788Y24269894D01*
X31499792Y24269896D01*
X31650104Y24420208D01*
X31650106Y24420212D01*
X31650109Y24420214D01*
X31775048Y24592180D01*
X31775047Y24592180D01*
X31775051Y24592184D01*
X31871557Y24781588D01*
X31937246Y24983757D01*
X31970500Y25193713D01*
X31970500Y25406287D01*
X31937246Y25616243D01*
X31871557Y25818412D01*
X31775051Y26007816D01*
X31775049Y26007819D01*
X31775048Y26007821D01*
X31650109Y26179787D01*
X31499786Y26330110D01*
X31327820Y26455049D01*
X31324381Y26456801D01*
X31319054Y26459515D01*
X31268259Y26507488D01*
X31251463Y26575308D01*
X31273999Y26641444D01*
X31319054Y26680485D01*
X31327816Y26684949D01*
X31448117Y26772352D01*
X32909500Y26772352D01*
X32909500Y26567648D01*
X32911772Y26553306D01*
X32941522Y26365466D01*
X33004781Y26170777D01*
X33054019Y26074144D01*
X33088606Y26006263D01*
X33097715Y25988387D01*
X33218028Y25822787D01*
X33362786Y25678029D01*
X33481426Y25591834D01*
X33528390Y25557713D01*
X33644607Y25498497D01*
X33710776Y25464782D01*
X33710778Y25464782D01*
X33710781Y25464780D01*
X33815137Y25430873D01*
X33905465Y25401523D01*
X33927778Y25397989D01*
X34107648Y25369500D01*
X34107649Y25369500D01*
X34312351Y25369500D01*
X34312352Y25369500D01*
X34514534Y25401523D01*
X34709219Y25464780D01*
X34891610Y25557713D01*
X34997718Y25634804D01*
X35057213Y25678029D01*
X35057215Y25678032D01*
X35057219Y25678034D01*
X35201966Y25822781D01*
X35201968Y25822785D01*
X35201971Y25822787D01*
X35269774Y25916112D01*
X35322287Y25988390D01*
X35415220Y26170781D01*
X35478477Y26365466D01*
X35510500Y26567648D01*
X35510500Y26772352D01*
X36259500Y26772352D01*
X36259500Y26567648D01*
X36261772Y26553306D01*
X36291522Y26365466D01*
X36354781Y26170777D01*
X36404019Y26074144D01*
X36438606Y26006263D01*
X36447715Y25988387D01*
X36568028Y25822787D01*
X36712786Y25678029D01*
X36831426Y25591834D01*
X36878390Y25557713D01*
X36994607Y25498497D01*
X37060776Y25464782D01*
X37060778Y25464782D01*
X37060781Y25464780D01*
X37165137Y25430873D01*
X37255465Y25401523D01*
X37277778Y25397989D01*
X37457648Y25369500D01*
X37457649Y25369500D01*
X37662351Y25369500D01*
X37662352Y25369500D01*
X37864534Y25401523D01*
X38059219Y25464780D01*
X38241610Y25557713D01*
X38347718Y25634804D01*
X38407213Y25678029D01*
X38407215Y25678032D01*
X38407219Y25678034D01*
X38551966Y25822781D01*
X38551968Y25822785D01*
X38551971Y25822787D01*
X38619774Y25916112D01*
X38672287Y25988390D01*
X38765220Y26170781D01*
X38828477Y26365466D01*
X38860500Y26567648D01*
X38860500Y26772352D01*
X38828477Y26974534D01*
X38765220Y27169219D01*
X38765218Y27169222D01*
X38765218Y27169224D01*
X38731503Y27235393D01*
X38672287Y27351610D01*
X38664556Y27362251D01*
X38551971Y27517214D01*
X38407213Y27661972D01*
X38241613Y27782285D01*
X38241612Y27782286D01*
X38241610Y27782287D01*
X38134346Y27836941D01*
X38059223Y27875219D01*
X37864534Y27938478D01*
X37689995Y27966122D01*
X37662352Y27970500D01*
X37457648Y27970500D01*
X37433329Y27966649D01*
X37255465Y27938478D01*
X37060776Y27875219D01*
X36878386Y27782285D01*
X36712786Y27661972D01*
X36568028Y27517214D01*
X36447715Y27351614D01*
X36354781Y27169224D01*
X36291522Y26974535D01*
X36259500Y26772352D01*
X35510500Y26772352D01*
X35478477Y26974534D01*
X35415220Y27169219D01*
X35415218Y27169222D01*
X35415218Y27169224D01*
X35381503Y27235393D01*
X35322287Y27351610D01*
X35314556Y27362251D01*
X35201971Y27517214D01*
X35057213Y27661972D01*
X34891613Y27782285D01*
X34891612Y27782286D01*
X34891610Y27782287D01*
X34784346Y27836941D01*
X34709223Y27875219D01*
X34514534Y27938478D01*
X34339995Y27966122D01*
X34312352Y27970500D01*
X34107648Y27970500D01*
X34083329Y27966649D01*
X33905465Y27938478D01*
X33710776Y27875219D01*
X33528386Y27782285D01*
X33362786Y27661972D01*
X33218028Y27517214D01*
X33097715Y27351614D01*
X33004781Y27169224D01*
X32941522Y26974535D01*
X32909500Y26772352D01*
X31448117Y26772352D01*
X31499786Y26809891D01*
X31499788Y26809894D01*
X31499792Y26809896D01*
X31650104Y26960208D01*
X31650106Y26960212D01*
X31650109Y26960214D01*
X31775048Y27132180D01*
X31775047Y27132180D01*
X31775051Y27132184D01*
X31871557Y27321588D01*
X31937246Y27523757D01*
X31970500Y27733713D01*
X31970500Y27946287D01*
X31937246Y28156243D01*
X31871557Y28358412D01*
X31775051Y28547816D01*
X31775049Y28547819D01*
X31775048Y28547821D01*
X31650109Y28719787D01*
X31499786Y28870110D01*
X31327820Y28995049D01*
X31327115Y28995409D01*
X31319054Y28999515D01*
X31268259Y29047488D01*
X31251463Y29115308D01*
X31273999Y29181444D01*
X31319054Y29220485D01*
X31327816Y29224949D01*
X31382572Y29264731D01*
X31499786Y29349891D01*
X31499788Y29349894D01*
X31499792Y29349896D01*
X31650104Y29500208D01*
X31650106Y29500212D01*
X31650109Y29500214D01*
X31775048Y29672180D01*
X31775047Y29672180D01*
X31775051Y29672184D01*
X31871557Y29861588D01*
X31937246Y30063757D01*
X31970500Y30273713D01*
X31970500Y30486287D01*
X31937246Y30696243D01*
X31871557Y30898412D01*
X31775051Y31087816D01*
X31775049Y31087819D01*
X31775048Y31087821D01*
X31650109Y31259787D01*
X31499786Y31410110D01*
X31327820Y31535049D01*
X31319600Y31539237D01*
X31319054Y31539515D01*
X31268259Y31587488D01*
X31251463Y31655308D01*
X31273999Y31721444D01*
X31319054Y31760485D01*
X31327816Y31764949D01*
X31349789Y31780914D01*
X31499786Y31889891D01*
X31499788Y31889894D01*
X31499792Y31889896D01*
X31650104Y32040208D01*
X31650106Y32040212D01*
X31650109Y32040214D01*
X31775048Y32212180D01*
X31775047Y32212180D01*
X31775051Y32212184D01*
X31871557Y32401588D01*
X31937246Y32603757D01*
X31970500Y32813713D01*
X31970500Y33026287D01*
X31937246Y33236243D01*
X31871557Y33438412D01*
X31775051Y33627816D01*
X31775049Y33627819D01*
X31775048Y33627821D01*
X31650109Y33799787D01*
X31499786Y33950110D01*
X31327817Y34075051D01*
X31318504Y34079796D01*
X31267707Y34127770D01*
X31250912Y34195591D01*
X31273449Y34261726D01*
X31318507Y34300768D01*
X31327555Y34305378D01*
X31381716Y34344730D01*
X31381717Y34344730D01*
X30749408Y34977038D01*
X30812993Y34994075D01*
X30927007Y35059901D01*
X31020099Y35152993D01*
X31085925Y35267007D01*
X31102962Y35330592D01*
X31735270Y34698283D01*
X31735270Y34698284D01*
X31774622Y34752446D01*
X31871095Y34941783D01*
X31936757Y35143870D01*
X31936757Y35143873D01*
X31970000Y35353754D01*
X31970000Y35566247D01*
X31936757Y35776128D01*
X31936757Y35776131D01*
X31871095Y35978218D01*
X31774624Y36167551D01*
X31735270Y36221718D01*
X31735269Y36221718D01*
X31102962Y35589410D01*
X31085925Y35652993D01*
X31020099Y35767007D01*
X30927007Y35860099D01*
X30812993Y35925925D01*
X30749409Y35942963D01*
X31381716Y36575272D01*
X31327547Y36614627D01*
X31327547Y36614628D01*
X31318500Y36619237D01*
X31267706Y36667212D01*
X31250912Y36735034D01*
X31273451Y36801168D01*
X31318508Y36840207D01*
X31327816Y36844949D01*
X31407007Y36902485D01*
X31499786Y36969891D01*
X31499788Y36969894D01*
X31499792Y36969896D01*
X31650104Y37120208D01*
X31650106Y37120212D01*
X31650109Y37120214D01*
X31775048Y37292180D01*
X31775047Y37292180D01*
X31775051Y37292184D01*
X31871557Y37481588D01*
X31937246Y37683757D01*
X31970500Y37893713D01*
X31970500Y38106287D01*
X31937246Y38316243D01*
X31871557Y38518412D01*
X31775051Y38707816D01*
X31775049Y38707819D01*
X31775048Y38707821D01*
X31650109Y38879787D01*
X31499786Y39030110D01*
X31327820Y39155049D01*
X31327115Y39155409D01*
X31319054Y39159515D01*
X31268259Y39207488D01*
X31251463Y39275308D01*
X31273999Y39341444D01*
X31319054Y39380485D01*
X31327816Y39384949D01*
X31367910Y39414079D01*
X31499786Y39509891D01*
X31499788Y39509894D01*
X31499792Y39509896D01*
X31650104Y39660208D01*
X31650106Y39660212D01*
X31650109Y39660214D01*
X31775048Y39832180D01*
X31775047Y39832180D01*
X31775051Y39832184D01*
X31871557Y40021588D01*
X31937246Y40223757D01*
X31970500Y40433713D01*
X31970500Y40646287D01*
X31937246Y40856243D01*
X31871557Y41058412D01*
X31775051Y41247816D01*
X31775049Y41247819D01*
X31775048Y41247821D01*
X31650109Y41419787D01*
X31499786Y41570110D01*
X31327820Y41695049D01*
X31327115Y41695409D01*
X31319054Y41699515D01*
X31268259Y41747488D01*
X31251463Y41815308D01*
X31273999Y41881444D01*
X31319054Y41920485D01*
X31327816Y41924949D01*
X31349789Y41940914D01*
X31499786Y42049891D01*
X31499788Y42049894D01*
X31499792Y42049896D01*
X31650104Y42200208D01*
X31650106Y42200212D01*
X31650109Y42200214D01*
X31775048Y42372180D01*
X31775047Y42372180D01*
X31775051Y42372184D01*
X31871557Y42561588D01*
X31937246Y42763757D01*
X31970500Y42973713D01*
X31970500Y43186287D01*
X31937246Y43396243D01*
X31871557Y43598412D01*
X31775051Y43787816D01*
X31775049Y43787819D01*
X31775048Y43787821D01*
X31650109Y43959787D01*
X31499786Y44110110D01*
X31327820Y44235049D01*
X31138414Y44331556D01*
X31138413Y44331557D01*
X31138412Y44331557D01*
X30936243Y44397246D01*
X30936241Y44397247D01*
X30936240Y44397247D01*
X30774957Y44422792D01*
X30726287Y44430500D01*
X30513713Y44430500D01*
X30465042Y44422792D01*
X30303760Y44397247D01*
X30101585Y44331556D01*
X29912179Y44235049D01*
X29740213Y44110110D01*
X29589890Y43959787D01*
X29464951Y43787821D01*
X29368444Y43598415D01*
X29302753Y43396240D01*
X29269500Y43186287D01*
X28126860Y43186287D01*
X28130686Y43210445D01*
X28130703Y43210556D01*
X28135000Y43237688D01*
X28135000Y43442318D01*
X28102990Y43644418D01*
X28039755Y43839032D01*
X27946859Y44021350D01*
X27914474Y44065923D01*
X27914474Y44065924D01*
X27235000Y43386449D01*
X27235000Y43392661D01*
X27207741Y43494394D01*
X27155080Y43585606D01*
X27080606Y43660080D01*
X26989394Y43712741D01*
X26887661Y43740000D01*
X26881446Y43740000D01*
X27560922Y44419476D01*
X27560921Y44419477D01*
X27516359Y44451853D01*
X27516350Y44451859D01*
X27334031Y44544756D01*
X27139417Y44607991D01*
X26937317Y44640000D01*
X26732683Y44640000D01*
X26530582Y44607991D01*
X26335968Y44544756D01*
X26153644Y44451857D01*
X26109077Y44419477D01*
X26109077Y44419476D01*
X26788554Y43740000D01*
X26782339Y43740000D01*
X26680606Y43712741D01*
X26589394Y43660080D01*
X26514920Y43585606D01*
X26462259Y43494394D01*
X26435000Y43392661D01*
X26435000Y43386447D01*
X25755524Y44065923D01*
X25755523Y44065923D01*
X25723143Y44021356D01*
X25630244Y43839032D01*
X25567009Y43644418D01*
X25535000Y43442318D01*
X20515500Y43442318D01*
X20515500Y43442352D01*
X20507257Y43494394D01*
X20483477Y43644535D01*
X20436920Y43787821D01*
X20420220Y43839219D01*
X20420218Y43839222D01*
X20420218Y43839224D01*
X20358787Y43959787D01*
X20327287Y44021610D01*
X20295092Y44065923D01*
X20206971Y44187214D01*
X20062213Y44331972D01*
X19896613Y44452285D01*
X19896612Y44452286D01*
X19896610Y44452287D01*
X19839653Y44481309D01*
X19714223Y44545219D01*
X19519534Y44608478D01*
X19344995Y44636122D01*
X19317352Y44640500D01*
X19112648Y44640500D01*
X19088329Y44636649D01*
X18910465Y44608478D01*
X18715776Y44545219D01*
X18533386Y44452285D01*
X18367786Y44331972D01*
X18223028Y44187214D01*
X18102715Y44021614D01*
X18009781Y43839224D01*
X17946522Y43644535D01*
X17914500Y43442352D01*
X16682264Y43442352D01*
X16631557Y43598412D01*
X16535051Y43787816D01*
X16535049Y43787819D01*
X16535048Y43787821D01*
X16410109Y43959787D01*
X16259786Y44110110D01*
X16087820Y44235049D01*
X15898414Y44331556D01*
X15898413Y44331557D01*
X15898412Y44331557D01*
X15696243Y44397246D01*
X15696241Y44397247D01*
X15696240Y44397247D01*
X15534957Y44422792D01*
X15486287Y44430500D01*
X15273713Y44430500D01*
X15225042Y44422792D01*
X15063760Y44397247D01*
X14861585Y44331556D01*
X14672179Y44235049D01*
X14500213Y44110110D01*
X14349890Y43959787D01*
X14224951Y43787821D01*
X14128444Y43598415D01*
X14062753Y43396240D01*
X14029500Y43186287D01*
X13559500Y43186287D01*
X13559500Y49365501D01*
X13579185Y49432540D01*
X13631989Y49478295D01*
X13683500Y49489501D01*
X14710002Y49489501D01*
X14710008Y49489501D01*
X14812797Y49500001D01*
X14979334Y49555186D01*
X15128656Y49647288D01*
X15252712Y49771344D01*
X15344814Y49920666D01*
X15371955Y50002573D01*
X15411726Y50060016D01*
X15476242Y50086839D01*
X15545018Y50074524D01*
X15589977Y50036453D01*
X15658030Y49942787D01*
X15658034Y49942781D01*
X15802786Y49798029D01*
X15923226Y49710526D01*
X15968390Y49677713D01*
X16084607Y49618497D01*
X16150776Y49584782D01*
X16150778Y49584782D01*
X16150781Y49584780D01*
X16241856Y49555188D01*
X16345465Y49521523D01*
X16446557Y49505512D01*
X16547648Y49489500D01*
X16547649Y49489500D01*
X16752351Y49489500D01*
X16752352Y49489500D01*
X16954534Y49521523D01*
X17149219Y49584780D01*
X17331610Y49677713D01*
X17460482Y49771343D01*
X17497213Y49798029D01*
X17497215Y49798032D01*
X17497219Y49798034D01*
X17641966Y49942781D01*
X17641968Y49942785D01*
X17641971Y49942787D01*
X17762284Y50108386D01*
X17762286Y50108389D01*
X17762287Y50108390D01*
X17809516Y50201083D01*
X17857489Y50251877D01*
X17925310Y50268672D01*
X17991445Y50246135D01*
X18030483Y50201083D01*
X18041583Y50179299D01*
X18077715Y50108386D01*
X18198028Y49942787D01*
X18342786Y49798029D01*
X18463226Y49710526D01*
X18508390Y49677713D01*
X18624607Y49618497D01*
X18690776Y49584782D01*
X18690778Y49584782D01*
X18690781Y49584780D01*
X18781856Y49555188D01*
X18885465Y49521523D01*
X18986557Y49505512D01*
X19087648Y49489500D01*
X19087649Y49489500D01*
X19292351Y49489500D01*
X19292352Y49489500D01*
X19494534Y49521523D01*
X19689219Y49584780D01*
X19871610Y49677713D01*
X20000482Y49771343D01*
X20037213Y49798029D01*
X20037215Y49798032D01*
X20037219Y49798034D01*
X20181966Y49942781D01*
X20181968Y49942785D01*
X20181971Y49942787D01*
X20302286Y50108389D01*
X20302415Y50108641D01*
X20349795Y50201631D01*
X20397769Y50252427D01*
X20465590Y50269222D01*
X20531725Y50246685D01*
X20570765Y50201631D01*
X20618141Y50108650D01*
X20618147Y50108641D01*
X20650523Y50064079D01*
X20650524Y50064078D01*
X21330000Y50743554D01*
X21330000Y50737339D01*
X21357259Y50635606D01*
X21409920Y50544394D01*
X21484394Y50469920D01*
X21575606Y50417259D01*
X21677339Y50390000D01*
X21683553Y50390000D01*
X21004076Y49710526D01*
X21048650Y49678141D01*
X21230968Y49585245D01*
X21425582Y49522010D01*
X21627683Y49490000D01*
X21832317Y49490000D01*
X22034417Y49522010D01*
X22229031Y49585245D01*
X22411349Y49678141D01*
X22455921Y49710526D01*
X21776447Y50390000D01*
X21782661Y50390000D01*
X21884394Y50417259D01*
X21975606Y50469920D01*
X22050080Y50544394D01*
X22102741Y50635606D01*
X22130000Y50737339D01*
X22130000Y50743553D01*
X22809474Y50064079D01*
X22841861Y50108653D01*
X22841861Y50108654D01*
X22889515Y50202180D01*
X22937489Y50252976D01*
X23005310Y50269772D01*
X23071445Y50247235D01*
X23110485Y50202181D01*
X23158141Y50108650D01*
X23158147Y50108641D01*
X23190523Y50064079D01*
X23190524Y50064078D01*
X23870000Y50743554D01*
X23870000Y50737339D01*
X23897259Y50635606D01*
X23949920Y50544394D01*
X24024394Y50469920D01*
X24115606Y50417259D01*
X24217339Y50390000D01*
X24223553Y50390000D01*
X23544076Y49710526D01*
X23588650Y49678141D01*
X23770968Y49585245D01*
X23965582Y49522010D01*
X24167683Y49490000D01*
X24372317Y49490000D01*
X24574417Y49522010D01*
X24769031Y49585245D01*
X24951349Y49678141D01*
X24995921Y49710526D01*
X24316447Y50390000D01*
X24322661Y50390000D01*
X24424394Y50417259D01*
X24515606Y50469920D01*
X24590080Y50544394D01*
X24642741Y50635606D01*
X24670000Y50737339D01*
X24670000Y50743553D01*
X25349474Y50064079D01*
X25381861Y50108653D01*
X25381861Y50108654D01*
X25429234Y50201629D01*
X25477208Y50252425D01*
X25545028Y50269221D01*
X25611164Y50246684D01*
X25650203Y50201631D01*
X25697713Y50108389D01*
X25818028Y49942787D01*
X25962786Y49798029D01*
X26083226Y49710526D01*
X26128390Y49677713D01*
X26244607Y49618497D01*
X26310776Y49584782D01*
X26310778Y49584782D01*
X26310781Y49584780D01*
X26401856Y49555188D01*
X26505465Y49521523D01*
X26582966Y49509249D01*
X26653513Y49498075D01*
X26716648Y49468146D01*
X26721797Y49463283D01*
X27580735Y48604345D01*
X27580764Y48604314D01*
X27723214Y48461864D01*
X27723218Y48461861D01*
X27887079Y48352372D01*
X27887081Y48352371D01*
X27887086Y48352368D01*
X27983851Y48312287D01*
X28069164Y48276949D01*
X28165812Y48257725D01*
X28207043Y48249524D01*
X28262458Y48238500D01*
X28262459Y48238500D01*
X28262460Y48238500D01*
X28459540Y48238500D01*
X28653691Y48238500D01*
X28720730Y48218815D01*
X28741372Y48202181D01*
X29343554Y47600000D01*
X29337339Y47600000D01*
X29235606Y47572741D01*
X29144394Y47520080D01*
X29069920Y47445606D01*
X29017259Y47354394D01*
X28990000Y47252661D01*
X28990000Y47246447D01*
X28310524Y47925923D01*
X28310523Y47925923D01*
X28278143Y47881356D01*
X28185244Y47699032D01*
X28122009Y47504418D01*
X28090000Y47302318D01*
X28090000Y47097683D01*
X28122009Y46895583D01*
X28185244Y46700969D01*
X28278141Y46518650D01*
X28278147Y46518641D01*
X28310523Y46474079D01*
X28310524Y46474078D01*
X28990000Y47153554D01*
X28990000Y47147339D01*
X29017259Y47045606D01*
X29069920Y46954394D01*
X29144394Y46879920D01*
X29235606Y46827259D01*
X29337339Y46800000D01*
X29343553Y46800000D01*
X28664076Y46120526D01*
X28708650Y46088141D01*
X28890968Y45995245D01*
X29085582Y45932010D01*
X29287683Y45900000D01*
X29492317Y45900000D01*
X29694417Y45932010D01*
X29889031Y45995245D01*
X30071349Y46088141D01*
X30115921Y46120526D01*
X29436447Y46800000D01*
X29442661Y46800000D01*
X29544394Y46827259D01*
X29635606Y46879920D01*
X29710080Y46954394D01*
X29762741Y47045606D01*
X29790000Y47147339D01*
X29790000Y47153553D01*
X30469474Y46474079D01*
X30501859Y46518651D01*
X30529233Y46572376D01*
X30577207Y46623173D01*
X30645028Y46639969D01*
X30711163Y46617433D01*
X30750203Y46572379D01*
X30777713Y46518389D01*
X30898028Y46352787D01*
X31042786Y46208029D01*
X31163226Y46120526D01*
X31208390Y46087713D01*
X31324607Y46028497D01*
X31390776Y45994782D01*
X31390778Y45994782D01*
X31390781Y45994780D01*
X31495137Y45960873D01*
X31585465Y45931523D01*
X31686557Y45915512D01*
X31787648Y45899500D01*
X31787649Y45899500D01*
X31992351Y45899500D01*
X31992352Y45899500D01*
X32194534Y45931523D01*
X32389219Y45994780D01*
X32571610Y46087713D01*
X32664590Y46155268D01*
X32737213Y46208029D01*
X32737215Y46208032D01*
X32737219Y46208034D01*
X32881966Y46352781D01*
X32881968Y46352785D01*
X32881971Y46352787D01*
X32934732Y46425410D01*
X33002287Y46518390D01*
X33095220Y46700781D01*
X33158477Y46895466D01*
X33160213Y46906428D01*
X33190139Y46969561D01*
X33249449Y47006494D01*
X33319311Y47005500D01*
X33370367Y46974713D01*
X37972181Y42372899D01*
X38005666Y42311576D01*
X38008500Y42285218D01*
X38008500Y33442459D01*
X38008500Y33442457D01*
X38008499Y33442457D01*
X38046947Y33249171D01*
X38046950Y33249161D01*
X38122364Y33067093D01*
X38122371Y33067080D01*
X38231860Y32903219D01*
X38231863Y32903215D01*
X38375537Y32759541D01*
X38375559Y32759521D01*
X39223181Y31911899D01*
X39256666Y31850576D01*
X39259500Y31824218D01*
X39259500Y30389999D01*
X39259501Y30389982D01*
X39270000Y30287204D01*
X39270001Y30287201D01*
X39320962Y30133413D01*
X39325186Y30120666D01*
X39417288Y29971344D01*
X39541344Y29847288D01*
X39690666Y29755186D01*
X39857203Y29700001D01*
X39959991Y29689500D01*
X42160008Y29689501D01*
X42262797Y29700001D01*
X42429334Y29755186D01*
X42578656Y29847288D01*
X42702712Y29971344D01*
X42794814Y30120666D01*
X42849999Y30287203D01*
X42860500Y30389991D01*
X42860499Y32590008D01*
X42849999Y32692797D01*
X42794814Y32859334D01*
X42702712Y33008656D01*
X42578656Y33132712D01*
X42429334Y33224814D01*
X42262797Y33279999D01*
X42262795Y33280000D01*
X42160016Y33290500D01*
X42160009Y33290500D01*
X40725782Y33290500D01*
X40658743Y33310185D01*
X40638101Y33326819D01*
X40045819Y33919101D01*
X40012334Y33980424D01*
X40009500Y34006782D01*
X40009500Y34883272D01*
X40029185Y34950311D01*
X40081989Y34996066D01*
X40151147Y35006010D01*
X40195502Y34990658D01*
X40262167Y34952168D01*
X40262180Y34952161D01*
X40480163Y34861871D01*
X40480161Y34861871D01*
X40708085Y34800800D01*
X40942014Y34770001D01*
X40942029Y34770000D01*
X41177971Y34770000D01*
X41177985Y34770001D01*
X41411914Y34800800D01*
X41639837Y34861871D01*
X41857819Y34952161D01*
X41857828Y34952166D01*
X42062181Y35070150D01*
X42143723Y35132721D01*
X42143723Y35132724D01*
X41307488Y35968959D01*
X41367890Y35993978D01*
X41474351Y36065112D01*
X41564888Y36155649D01*
X41636022Y36262110D01*
X41661041Y36322513D01*
X42497276Y35486277D01*
X42497279Y35486277D01*
X42559850Y35567819D01*
X42677834Y35772172D01*
X42677839Y35772181D01*
X42768129Y35990163D01*
X42829200Y36218086D01*
X42859999Y36452015D01*
X42860000Y36452029D01*
X42860000Y36687972D01*
X42859999Y36687986D01*
X42829200Y36921915D01*
X42768129Y37149838D01*
X42677839Y37367820D01*
X42677834Y37367829D01*
X42559855Y37572172D01*
X42559854Y37572173D01*
X42497277Y37653725D01*
X41661041Y36817489D01*
X41636022Y36877890D01*
X41564888Y36984351D01*
X41474351Y37074888D01*
X41367890Y37146022D01*
X41307486Y37171043D01*
X42143723Y38007279D01*
X42062172Y38069855D01*
X42062171Y38069856D01*
X41857828Y38187835D01*
X41857819Y38187840D01*
X41639836Y38278130D01*
X41639838Y38278130D01*
X41411914Y38339201D01*
X41177985Y38370000D01*
X40942014Y38370000D01*
X40708085Y38339201D01*
X40480162Y38278130D01*
X40262180Y38187840D01*
X40262171Y38187835D01*
X40195501Y38149342D01*
X40127601Y38132869D01*
X40061574Y38155721D01*
X40018383Y38210642D01*
X40009500Y38256729D01*
X40009500Y39962695D01*
X40029185Y40029734D01*
X40081989Y40075489D01*
X40151147Y40085433D01*
X40195501Y40070081D01*
X40261939Y40031722D01*
X40261947Y40031719D01*
X40261951Y40031716D01*
X40480007Y39941394D01*
X40707986Y39880307D01*
X40941989Y39849500D01*
X40941996Y39849500D01*
X41178004Y39849500D01*
X41178011Y39849500D01*
X41412014Y39880307D01*
X41639993Y39941394D01*
X41858049Y40031716D01*
X42062450Y40149727D01*
X42249699Y40293408D01*
X42416592Y40460301D01*
X42560273Y40647550D01*
X42678284Y40851951D01*
X42768606Y41070007D01*
X42829693Y41297986D01*
X42860500Y41531989D01*
X42860500Y41768011D01*
X42829693Y42002014D01*
X42768606Y42229993D01*
X42678284Y42448049D01*
X42678282Y42448052D01*
X42678280Y42448057D01*
X42612732Y42561588D01*
X42560273Y42652450D01*
X42416592Y42839699D01*
X42416587Y42839705D01*
X42249704Y43006588D01*
X42249697Y43006594D01*
X42062454Y43150270D01*
X42062453Y43150271D01*
X42062450Y43150273D01*
X41958037Y43210556D01*
X41858056Y43268281D01*
X41858045Y43268286D01*
X41639993Y43358606D01*
X41412010Y43419694D01*
X41178020Y43450499D01*
X41178017Y43450500D01*
X41178011Y43450500D01*
X40941989Y43450500D01*
X40941983Y43450500D01*
X40941979Y43450499D01*
X40707989Y43419694D01*
X40480006Y43358606D01*
X40261954Y43268286D01*
X40261943Y43268281D01*
X40074283Y43159935D01*
X40006383Y43143462D01*
X39940356Y43166315D01*
X39897722Y43219868D01*
X39895630Y43224918D01*
X39786143Y43388777D01*
X39786137Y43388785D01*
X36410532Y46764389D01*
X36326916Y46848005D01*
X39259500Y46848005D01*
X39259500Y46611996D01*
X39259501Y46611980D01*
X39290306Y46377990D01*
X39351394Y46150007D01*
X39441714Y45931955D01*
X39441719Y45931944D01*
X39512677Y45809043D01*
X39559727Y45727550D01*
X39559729Y45727547D01*
X39559730Y45727546D01*
X39703406Y45540303D01*
X39703412Y45540296D01*
X39870295Y45373413D01*
X39870301Y45373408D01*
X40057550Y45229727D01*
X40188918Y45153882D01*
X40261943Y45111720D01*
X40261948Y45111718D01*
X40261951Y45111716D01*
X40480007Y45021394D01*
X40707986Y44960307D01*
X40941989Y44929500D01*
X40941996Y44929500D01*
X41178004Y44929500D01*
X41178011Y44929500D01*
X41412014Y44960307D01*
X41639993Y45021394D01*
X41858049Y45111716D01*
X42062450Y45229727D01*
X42249699Y45373408D01*
X42416592Y45540301D01*
X42560273Y45727550D01*
X42678284Y45931951D01*
X42768606Y46150007D01*
X42829693Y46377986D01*
X42860500Y46611989D01*
X42860500Y46848011D01*
X42829693Y47082014D01*
X42768606Y47309993D01*
X42678284Y47528049D01*
X42678282Y47528052D01*
X42678280Y47528057D01*
X42636118Y47601082D01*
X42560273Y47732450D01*
X42416592Y47919699D01*
X42416587Y47919705D01*
X42249704Y48086588D01*
X42249697Y48086594D01*
X42062454Y48230270D01*
X42062453Y48230271D01*
X42062450Y48230273D01*
X41980957Y48277323D01*
X41858056Y48348281D01*
X41858045Y48348286D01*
X41639993Y48438606D01*
X41412010Y48499694D01*
X41178020Y48530499D01*
X41178017Y48530500D01*
X41178011Y48530500D01*
X40941989Y48530500D01*
X40941983Y48530500D01*
X40941979Y48530499D01*
X40707989Y48499694D01*
X40480006Y48438606D01*
X40261954Y48348286D01*
X40261943Y48348281D01*
X40057545Y48230270D01*
X39870302Y48086594D01*
X39870295Y48086588D01*
X39703412Y47919705D01*
X39703406Y47919698D01*
X39559730Y47732455D01*
X39441719Y47528057D01*
X39441714Y47528046D01*
X39351394Y47309994D01*
X39290306Y47082011D01*
X39259501Y46848021D01*
X39259500Y46848005D01*
X36326916Y46848005D01*
X33305209Y49869711D01*
X33305206Y49869715D01*
X33305206Y49869714D01*
X33298139Y49876781D01*
X33298139Y49876782D01*
X33158782Y50016139D01*
X33158781Y50016140D01*
X33158780Y50016141D01*
X33098587Y50056361D01*
X33053782Y50109974D01*
X33045075Y50179299D01*
X33056994Y50215759D01*
X33075678Y50252427D01*
X33095220Y50290781D01*
X33158477Y50485466D01*
X33190500Y50687648D01*
X33190500Y50892352D01*
X33171557Y51011951D01*
X33158477Y51094535D01*
X33131298Y51178181D01*
X33129303Y51248022D01*
X33165383Y51307855D01*
X33228083Y51338684D01*
X33249229Y51340500D01*
X36609543Y51340500D01*
X36651317Y51348810D01*
X36727858Y51364035D01*
X36802836Y51378949D01*
X36856165Y51401039D01*
X36984914Y51454368D01*
X37148782Y51563861D01*
X37288139Y51703218D01*
X37288139Y51703220D01*
X37298347Y51713427D01*
X37298348Y51713430D01*
X37512923Y51928005D01*
X39259500Y51928005D01*
X39259500Y51691996D01*
X39259501Y51691980D01*
X39288512Y51471614D01*
X39290307Y51457986D01*
X39304867Y51403648D01*
X39351394Y51230007D01*
X39441714Y51011955D01*
X39441719Y51011944D01*
X39480720Y50944394D01*
X39559727Y50807550D01*
X39559729Y50807547D01*
X39559730Y50807546D01*
X39703406Y50620303D01*
X39703412Y50620296D01*
X39870295Y50453413D01*
X39870301Y50453408D01*
X40057550Y50309727D01*
X40166742Y50246685D01*
X40261943Y50191720D01*
X40261948Y50191718D01*
X40261951Y50191716D01*
X40480007Y50101394D01*
X40707986Y50040307D01*
X40941989Y50009500D01*
X40941996Y50009500D01*
X41178004Y50009500D01*
X41178011Y50009500D01*
X41412014Y50040307D01*
X41639993Y50101394D01*
X41858049Y50191716D01*
X42062450Y50309727D01*
X42249699Y50453408D01*
X42416592Y50620301D01*
X42560273Y50807550D01*
X42678284Y51011951D01*
X42768606Y51230007D01*
X42829693Y51457986D01*
X42860500Y51691989D01*
X42860500Y51928011D01*
X42829693Y52162014D01*
X42768606Y52389993D01*
X42678284Y52608049D01*
X42678282Y52608052D01*
X42678280Y52608057D01*
X42636118Y52681082D01*
X42560273Y52812450D01*
X42501001Y52889694D01*
X42416593Y52999698D01*
X42416587Y52999705D01*
X42249704Y53166588D01*
X42249697Y53166594D01*
X42062454Y53310270D01*
X42062453Y53310271D01*
X42062450Y53310273D01*
X41945457Y53377819D01*
X41858056Y53428281D01*
X41858045Y53428286D01*
X41639993Y53518606D01*
X41412010Y53579694D01*
X41178020Y53610499D01*
X41178017Y53610500D01*
X41178011Y53610500D01*
X40941989Y53610500D01*
X40941983Y53610500D01*
X40941979Y53610499D01*
X40707989Y53579694D01*
X40480006Y53518606D01*
X40261954Y53428286D01*
X40261943Y53428281D01*
X40057545Y53310270D01*
X39870302Y53166594D01*
X39870295Y53166588D01*
X39703412Y52999705D01*
X39703406Y52999698D01*
X39559730Y52812455D01*
X39441719Y52608057D01*
X39441714Y52608046D01*
X39351394Y52389994D01*
X39290306Y52162011D01*
X39259501Y51928021D01*
X39259500Y51928005D01*
X37512923Y51928005D01*
X40662310Y55077391D01*
X40723631Y55110874D01*
X40766170Y55112647D01*
X40929681Y55091121D01*
X40941973Y55089502D01*
X40941989Y55089500D01*
X40941996Y55089500D01*
X41178004Y55089500D01*
X41178011Y55089500D01*
X41412014Y55120307D01*
X41639993Y55181394D01*
X41858049Y55271716D01*
X42062450Y55389727D01*
X42249699Y55533408D01*
X42416592Y55700301D01*
X42560273Y55887550D01*
X42678284Y56091951D01*
X42768606Y56310007D01*
X42829693Y56537986D01*
X42860500Y56771989D01*
X42860500Y57008011D01*
X42829693Y57242014D01*
X42768606Y57469993D01*
X42678284Y57688049D01*
X42678282Y57688052D01*
X42678280Y57688057D01*
X42636118Y57761082D01*
X42560273Y57892450D01*
X42416592Y58079699D01*
X42416587Y58079705D01*
X42249704Y58246588D01*
X42249697Y58246594D01*
X42062454Y58390270D01*
X42062453Y58390271D01*
X42062450Y58390273D01*
X41980957Y58437323D01*
X41858056Y58508281D01*
X41858045Y58508286D01*
X41639993Y58598606D01*
X41412010Y58659694D01*
X41178020Y58690499D01*
X41178017Y58690500D01*
X41178011Y58690500D01*
X40941989Y58690500D01*
X40941983Y58690500D01*
X40941979Y58690499D01*
X40707989Y58659694D01*
X40480006Y58598606D01*
X40261954Y58508286D01*
X40261943Y58508281D01*
X40057545Y58390270D01*
X39870302Y58246594D01*
X39870295Y58246588D01*
X39703412Y58079705D01*
X39703406Y58079698D01*
X39559730Y57892455D01*
X39441719Y57688057D01*
X39441714Y57688046D01*
X39351394Y57469994D01*
X39290306Y57242011D01*
X39259501Y57008021D01*
X39259500Y57008005D01*
X39259500Y56771996D01*
X39259501Y56771979D01*
X39282645Y56596176D01*
X39271879Y56527140D01*
X39247387Y56492310D01*
X36132899Y53377819D01*
X36071576Y53344334D01*
X36045218Y53341500D01*
X20642455Y53341500D01*
X20545812Y53322276D01*
X20449167Y53303053D01*
X20449161Y53303051D01*
X20395834Y53280963D01*
X20395834Y53280962D01*
X20350315Y53262108D01*
X20267089Y53227634D01*
X20267079Y53227629D01*
X20103219Y53118141D01*
X20033540Y53048462D01*
X19963861Y52978782D01*
X19963858Y52978779D01*
X19101797Y52116719D01*
X19040474Y52083234D01*
X19033515Y52081927D01*
X18885468Y52058478D01*
X18690778Y51995219D01*
X18508386Y51902285D01*
X18342786Y51781972D01*
X18198028Y51637214D01*
X18077715Y51471614D01*
X18030485Y51378920D01*
X17982510Y51328124D01*
X17914689Y51311329D01*
X17848554Y51333866D01*
X17809515Y51378920D01*
X17796915Y51403648D01*
X17762287Y51471610D01*
X17710021Y51543549D01*
X17641971Y51637214D01*
X17497213Y51781972D01*
X17331613Y51902285D01*
X17331612Y51902286D01*
X17331610Y51902287D01*
X17271898Y51932712D01*
X17149223Y51995219D01*
X16954534Y52058478D01*
X16766690Y52088229D01*
X16752352Y52090500D01*
X16547648Y52090500D01*
X16533310Y52088229D01*
X16345465Y52058478D01*
X16150776Y51995219D01*
X15968386Y51902285D01*
X15802786Y51781972D01*
X15658032Y51637218D01*
X15658028Y51637213D01*
X15589978Y51543549D01*
X15534648Y51500883D01*
X15465035Y51494904D01*
X15403240Y51527510D01*
X15371954Y51577430D01*
X15352144Y51637213D01*
X15344814Y51659334D01*
X15252712Y51808656D01*
X15128656Y51932712D01*
X15027314Y51995220D01*
X14979336Y52024813D01*
X14979331Y52024815D01*
X14977862Y52025302D01*
X14812797Y52079999D01*
X14812795Y52080000D01*
X14710016Y52090500D01*
X14710009Y52090500D01*
X14584781Y52090500D01*
X14517742Y52110185D01*
X14471987Y52162989D01*
X14462043Y52232147D01*
X14491068Y52295703D01*
X14497100Y52302181D01*
X15805419Y53610500D01*
X19278203Y57083285D01*
X19339524Y57116768D01*
X19346473Y57118073D01*
X19494534Y57141523D01*
X19689219Y57204780D01*
X19871610Y57297713D01*
X19964590Y57365268D01*
X20037213Y57418029D01*
X20037215Y57418032D01*
X20037219Y57418034D01*
X20181966Y57562781D01*
X20181968Y57562785D01*
X20181971Y57562787D01*
X20302286Y57728389D01*
X20302415Y57728641D01*
X20349795Y57821631D01*
X20397769Y57872427D01*
X20465590Y57889222D01*
X20531725Y57866685D01*
X20570765Y57821631D01*
X20618141Y57728650D01*
X20618147Y57728641D01*
X20650523Y57684079D01*
X20650524Y57684078D01*
X21330000Y58363554D01*
X21330000Y58357339D01*
X21357259Y58255606D01*
X21409920Y58164394D01*
X21484394Y58089920D01*
X21575606Y58037259D01*
X21677339Y58010000D01*
X21683553Y58010000D01*
X21004076Y57330526D01*
X21048650Y57298141D01*
X21230968Y57205245D01*
X21425582Y57142010D01*
X21627683Y57110000D01*
X21832317Y57110000D01*
X22034417Y57142010D01*
X22229031Y57205245D01*
X22411349Y57298141D01*
X22455921Y57330526D01*
X21776447Y58010000D01*
X21782661Y58010000D01*
X21884394Y58037259D01*
X21975606Y58089920D01*
X22050080Y58164394D01*
X22102741Y58255606D01*
X22130000Y58357339D01*
X22130000Y58363553D01*
X22809474Y57684079D01*
X22841861Y57728653D01*
X22841861Y57728654D01*
X22889515Y57822180D01*
X22937489Y57872976D01*
X23005310Y57889772D01*
X23071445Y57867235D01*
X23110485Y57822181D01*
X23158141Y57728650D01*
X23158147Y57728641D01*
X23190523Y57684079D01*
X23190524Y57684078D01*
X23870000Y58363554D01*
X23870000Y58357339D01*
X23897259Y58255606D01*
X23949920Y58164394D01*
X24024394Y58089920D01*
X24115606Y58037259D01*
X24217339Y58010000D01*
X24223553Y58010000D01*
X23544076Y57330526D01*
X23588650Y57298141D01*
X23770968Y57205245D01*
X23965582Y57142010D01*
X24167683Y57110000D01*
X24372317Y57110000D01*
X24574417Y57142010D01*
X24769031Y57205245D01*
X24951349Y57298141D01*
X24995921Y57330526D01*
X24316447Y58010000D01*
X24322661Y58010000D01*
X24424394Y58037259D01*
X24515606Y58089920D01*
X24590080Y58164394D01*
X24642741Y58255606D01*
X24670000Y58357339D01*
X24670000Y58363553D01*
X25349474Y57684079D01*
X25381861Y57728653D01*
X25381861Y57728654D01*
X25429234Y57821629D01*
X25477208Y57872425D01*
X25545028Y57889221D01*
X25611164Y57866684D01*
X25650203Y57821631D01*
X25697713Y57728389D01*
X25818028Y57562787D01*
X25962786Y57418029D01*
X26083226Y57330526D01*
X26128390Y57297713D01*
X26237705Y57242014D01*
X26310776Y57204782D01*
X26310778Y57204782D01*
X26310781Y57204780D01*
X26415137Y57170873D01*
X26505465Y57141523D01*
X26606557Y57125512D01*
X26707648Y57109500D01*
X26707649Y57109500D01*
X26912351Y57109500D01*
X26912352Y57109500D01*
X27114534Y57141523D01*
X27309219Y57204780D01*
X27491610Y57297713D01*
X27584590Y57365268D01*
X27657213Y57418029D01*
X27657215Y57418032D01*
X27657219Y57418034D01*
X27801966Y57562781D01*
X27801968Y57562785D01*
X27801971Y57562787D01*
X27922284Y57728386D01*
X27922286Y57728389D01*
X27922287Y57728390D01*
X27969516Y57821083D01*
X28017489Y57871877D01*
X28085310Y57888672D01*
X28151445Y57866135D01*
X28190485Y57821081D01*
X28237715Y57728386D01*
X28358028Y57562787D01*
X28502786Y57418029D01*
X28623226Y57330526D01*
X28668390Y57297713D01*
X28777705Y57242014D01*
X28850776Y57204782D01*
X28850778Y57204782D01*
X28850781Y57204780D01*
X28955137Y57170873D01*
X29045465Y57141523D01*
X29146557Y57125512D01*
X29247648Y57109500D01*
X29247649Y57109500D01*
X29452351Y57109500D01*
X29452352Y57109500D01*
X29654534Y57141523D01*
X29849219Y57204780D01*
X30031610Y57297713D01*
X30124590Y57365268D01*
X30197213Y57418029D01*
X30197215Y57418032D01*
X30197219Y57418034D01*
X30341966Y57562781D01*
X30341968Y57562785D01*
X30341971Y57562787D01*
X30462284Y57728386D01*
X30462286Y57728389D01*
X30462287Y57728390D01*
X30509516Y57821083D01*
X30557489Y57871877D01*
X30625310Y57888672D01*
X30691445Y57866135D01*
X30730485Y57821081D01*
X30777715Y57728386D01*
X30898028Y57562787D01*
X31042786Y57418029D01*
X31163226Y57330526D01*
X31208390Y57297713D01*
X31317705Y57242014D01*
X31390776Y57204782D01*
X31390778Y57204782D01*
X31390781Y57204780D01*
X31495137Y57170873D01*
X31585465Y57141523D01*
X31686557Y57125512D01*
X31787648Y57109500D01*
X31787649Y57109500D01*
X31992351Y57109500D01*
X31992352Y57109500D01*
X32194534Y57141523D01*
X32389219Y57204780D01*
X32571610Y57297713D01*
X32664590Y57365268D01*
X32737213Y57418029D01*
X32737215Y57418032D01*
X32737219Y57418034D01*
X32881966Y57562781D01*
X32881968Y57562785D01*
X32881971Y57562787D01*
X32934732Y57635410D01*
X33002287Y57728390D01*
X33095220Y57910781D01*
X33158477Y58105466D01*
X33190500Y58307648D01*
X33190500Y58512352D01*
X33182257Y58564394D01*
X33158477Y58714535D01*
X33095218Y58909224D01*
X33049515Y58998920D01*
X33002287Y59091610D01*
X32994556Y59102251D01*
X32881971Y59257214D01*
X32737213Y59401972D01*
X32571613Y59522285D01*
X32571612Y59522286D01*
X32571610Y59522287D01*
X32514653Y59551309D01*
X32389223Y59615219D01*
X32194534Y59678478D01*
X32006690Y59708229D01*
X31992352Y59710500D01*
X31787648Y59710500D01*
X31773310Y59708229D01*
X31585465Y59678478D01*
X31390776Y59615219D01*
X31208386Y59522285D01*
X31042786Y59401972D01*
X30898028Y59257214D01*
X30777715Y59091614D01*
X30730485Y58998920D01*
X30682510Y58948124D01*
X30614689Y58931329D01*
X30548554Y58953866D01*
X30509515Y58998920D01*
X30508883Y59000160D01*
X30462287Y59091610D01*
X30454556Y59102251D01*
X30341971Y59257214D01*
X30197213Y59401972D01*
X30031613Y59522285D01*
X30031612Y59522286D01*
X30031610Y59522287D01*
X29974653Y59551309D01*
X29849223Y59615219D01*
X29654534Y59678478D01*
X29466690Y59708229D01*
X29452352Y59710500D01*
X29247648Y59710500D01*
X29233310Y59708229D01*
X29045465Y59678478D01*
X28850776Y59615219D01*
X28668386Y59522285D01*
X28502786Y59401972D01*
X28358028Y59257214D01*
X28237715Y59091614D01*
X28190485Y58998920D01*
X28142510Y58948124D01*
X28074689Y58931329D01*
X28008554Y58953866D01*
X27969515Y58998920D01*
X27968883Y59000160D01*
X27922287Y59091610D01*
X27914556Y59102251D01*
X27801971Y59257214D01*
X27657213Y59401972D01*
X27491613Y59522285D01*
X27491612Y59522286D01*
X27491610Y59522287D01*
X27434653Y59551309D01*
X27309223Y59615219D01*
X27114535Y59678477D01*
X26966483Y59701927D01*
X26903349Y59731857D01*
X26898201Y59736719D01*
X26040479Y60594441D01*
X26040459Y60594463D01*
X25896785Y60738137D01*
X25896781Y60738140D01*
X25732920Y60847629D01*
X25732911Y60847634D01*
X25660315Y60877704D01*
X25604165Y60900962D01*
X25550836Y60923051D01*
X25550832Y60923052D01*
X25550828Y60923054D01*
X25454188Y60942276D01*
X25357544Y60961500D01*
X25357541Y60961500D01*
X15110047Y60961500D01*
X15043008Y60981185D01*
X14997253Y61033989D01*
X14987309Y61103147D01*
X15016334Y61166703D01*
X15022366Y61173181D01*
X15101966Y61252781D01*
X15101968Y61252785D01*
X15101971Y61252787D01*
X15154732Y61325410D01*
X15222287Y61418390D01*
X15315220Y61600781D01*
X15378477Y61795466D01*
X15410500Y61997648D01*
X15410500Y62202352D01*
X15402257Y62254394D01*
X15378477Y62404535D01*
X15347458Y62500000D01*
X15315220Y62599219D01*
X15315218Y62599222D01*
X15315218Y62599224D01*
X15272750Y62682571D01*
X15222287Y62781610D01*
X15190092Y62825923D01*
X15101971Y62947214D01*
X14957213Y63091972D01*
X14791613Y63212285D01*
X14791612Y63212286D01*
X14791610Y63212287D01*
X14734653Y63241309D01*
X14609223Y63305219D01*
X14414534Y63368478D01*
X14239995Y63396122D01*
X14212352Y63400500D01*
X14007648Y63400500D01*
X13983329Y63396649D01*
X13805465Y63368478D01*
X13610776Y63305219D01*
X13428386Y63212285D01*
X13262786Y63091972D01*
X13118028Y62947214D01*
X12997714Y62781614D01*
X12970203Y62727621D01*
X12922227Y62676826D01*
X12854406Y62660032D01*
X12788272Y62682571D01*
X12749234Y62727624D01*
X12721861Y62781348D01*
X12689474Y62825923D01*
X12689474Y62825924D01*
X12010000Y62146449D01*
X12010000Y62152661D01*
X11982741Y62254394D01*
X11930080Y62345606D01*
X11855606Y62420080D01*
X11764394Y62472741D01*
X11662661Y62500000D01*
X11656446Y62500000D01*
X12335922Y63179476D01*
X12335921Y63179477D01*
X12291359Y63211853D01*
X12291350Y63211859D01*
X12109031Y63304756D01*
X11914417Y63367991D01*
X11712317Y63400000D01*
X11507683Y63400000D01*
X11305582Y63367991D01*
X11110968Y63304756D01*
X10928644Y63211857D01*
X10884077Y63179477D01*
X10884077Y63179476D01*
X11563554Y62500000D01*
X11557339Y62500000D01*
X11455606Y62472741D01*
X11364394Y62420080D01*
X11289920Y62345606D01*
X11237259Y62254394D01*
X11210000Y62152661D01*
X11210000Y62146447D01*
X10530524Y62825923D01*
X10530523Y62825923D01*
X10498143Y62781356D01*
X10405244Y62599032D01*
X10342009Y62404418D01*
X10310000Y62202318D01*
X10310000Y61997683D01*
X10342009Y61795583D01*
X10405244Y61600969D01*
X10498141Y61418650D01*
X10498147Y61418641D01*
X10530523Y61374079D01*
X10530524Y61374078D01*
X11210000Y62053554D01*
X11210000Y62047339D01*
X11237259Y61945606D01*
X11289920Y61854394D01*
X11364394Y61779920D01*
X11455606Y61727259D01*
X11557339Y61700000D01*
X11563553Y61700000D01*
X10861370Y60997819D01*
X10800047Y60964334D01*
X10773689Y60961500D01*
X7912455Y60961500D01*
X7815812Y60942276D01*
X7719167Y60923053D01*
X7719161Y60923051D01*
X7665834Y60900963D01*
X7665834Y60900962D01*
X7620315Y60882108D01*
X7537089Y60847634D01*
X7537079Y60847629D01*
X7373219Y60738141D01*
X7303540Y60668462D01*
X7233861Y60598782D01*
X7233858Y60598779D01*
X5361897Y58726819D01*
X5300574Y58693334D01*
X5274216Y58690500D01*
X3839998Y58690500D01*
X3839981Y58690499D01*
X3737203Y58680000D01*
X3737200Y58679999D01*
X3570668Y58624815D01*
X3570663Y58624813D01*
X3421342Y58532711D01*
X3297289Y58408658D01*
X3205187Y58259337D01*
X3205185Y58259332D01*
X3200962Y58246588D01*
X3150001Y58092797D01*
X3150001Y58092796D01*
X3150000Y58092796D01*
X3139500Y57990017D01*
X500500Y57990017D01*
X500500Y64952318D01*
X30612380Y64952318D01*
X30612380Y64747683D01*
X30644389Y64545583D01*
X30707624Y64350969D01*
X30800521Y64168650D01*
X30800527Y64168641D01*
X30832903Y64124079D01*
X30832904Y64124078D01*
X31512380Y64803554D01*
X31512380Y64797339D01*
X31539639Y64695606D01*
X31592300Y64604394D01*
X31666774Y64529920D01*
X31757986Y64477259D01*
X31859719Y64450000D01*
X31865933Y64450000D01*
X31186456Y63770526D01*
X31231030Y63738141D01*
X31413348Y63645245D01*
X31607962Y63582010D01*
X31810063Y63550000D01*
X32014697Y63550000D01*
X32216797Y63582010D01*
X32411411Y63645245D01*
X32593729Y63738141D01*
X32638301Y63770526D01*
X31958827Y64450000D01*
X31965041Y64450000D01*
X32066774Y64477259D01*
X32157986Y64529920D01*
X32232460Y64604394D01*
X32285121Y64695606D01*
X32312380Y64797339D01*
X32312380Y64803553D01*
X32991853Y64124079D01*
X33029660Y64127054D01*
X33098038Y64112690D01*
X33147795Y64063639D01*
X33157094Y64042444D01*
X33177566Y63980666D01*
X33269668Y63831344D01*
X33393724Y63707288D01*
X33543046Y63615186D01*
X33709583Y63560001D01*
X33812371Y63549500D01*
X35012388Y63549501D01*
X35115177Y63560001D01*
X35281714Y63615186D01*
X35431036Y63707288D01*
X35555092Y63831344D01*
X35647194Y63980666D01*
X35702379Y64147203D01*
X35712880Y64249991D01*
X35712879Y65450008D01*
X35702379Y65552797D01*
X35647194Y65719334D01*
X35555092Y65868656D01*
X35431036Y65992712D01*
X35317682Y66062629D01*
X35281716Y66084813D01*
X35281711Y66084815D01*
X35280242Y66085302D01*
X35115177Y66139999D01*
X35115175Y66140000D01*
X35012390Y66150500D01*
X33812378Y66150500D01*
X33812361Y66150499D01*
X33709583Y66140000D01*
X33709580Y66139999D01*
X33543048Y66084815D01*
X33543043Y66084813D01*
X33393722Y65992711D01*
X33269669Y65868658D01*
X33177567Y65719337D01*
X33177565Y65719332D01*
X33157097Y65657562D01*
X33117324Y65600117D01*
X33052808Y65573294D01*
X33029663Y65572948D01*
X32991854Y65575924D01*
X32312380Y64896449D01*
X32312380Y64902661D01*
X32285121Y65004394D01*
X32232460Y65095606D01*
X32157986Y65170080D01*
X32066774Y65222741D01*
X31965041Y65250000D01*
X31958826Y65250000D01*
X32638302Y65929476D01*
X32638301Y65929477D01*
X32593739Y65961853D01*
X32593730Y65961859D01*
X32411411Y66054756D01*
X32216797Y66117991D01*
X32014697Y66150000D01*
X31810063Y66150000D01*
X31607962Y66117991D01*
X31413348Y66054756D01*
X31231024Y65961857D01*
X31186457Y65929477D01*
X31186457Y65929476D01*
X31865934Y65250000D01*
X31859719Y65250000D01*
X31757986Y65222741D01*
X31666774Y65170080D01*
X31592300Y65095606D01*
X31539639Y65004394D01*
X31512380Y64902661D01*
X31512380Y64896447D01*
X30832904Y65575923D01*
X30832903Y65575923D01*
X30800523Y65531356D01*
X30707624Y65349032D01*
X30644389Y65154418D01*
X30612380Y64952318D01*
X500500Y64952318D01*
X500500Y68114742D01*
X4249500Y68114742D01*
X4249500Y67885259D01*
X4260357Y67802800D01*
X4279452Y67657762D01*
X4321724Y67500000D01*
X4338842Y67436113D01*
X4426650Y67224124D01*
X4426657Y67224110D01*
X4541392Y67025383D01*
X4681081Y66843339D01*
X4681089Y66843330D01*
X4843330Y66681089D01*
X4843338Y66681082D01*
X5025382Y66541393D01*
X5025385Y66541392D01*
X5025388Y66541389D01*
X5224112Y66426656D01*
X5224117Y66426654D01*
X5224123Y66426651D01*
X5315480Y66388810D01*
X5436113Y66338842D01*
X5657762Y66279452D01*
X5885266Y66249500D01*
X5885273Y66249500D01*
X6114727Y66249500D01*
X6114734Y66249500D01*
X6342238Y66279452D01*
X6563887Y66338842D01*
X6775888Y66426656D01*
X6974612Y66541389D01*
X7156661Y66681081D01*
X7156665Y66681086D01*
X7156670Y66681089D01*
X7318911Y66843330D01*
X7318914Y66843335D01*
X7318919Y66843339D01*
X7458611Y67025388D01*
X7560761Y67202318D01*
X10810000Y67202318D01*
X10810000Y66997683D01*
X10842009Y66795583D01*
X10905244Y66600969D01*
X10998141Y66418650D01*
X10998147Y66418641D01*
X11030523Y66374079D01*
X11030524Y66374078D01*
X11710000Y67053554D01*
X11710000Y67047339D01*
X11737259Y66945606D01*
X11789920Y66854394D01*
X11864394Y66779920D01*
X11955606Y66727259D01*
X12057339Y66700000D01*
X12063552Y66700000D01*
X11384076Y66020526D01*
X11428650Y65988141D01*
X11610968Y65895245D01*
X11805582Y65832010D01*
X12007683Y65800000D01*
X12212317Y65800000D01*
X12414417Y65832010D01*
X12609031Y65895245D01*
X12791341Y65988137D01*
X12791349Y65988142D01*
X12861552Y66039148D01*
X12927358Y66062629D01*
X12995412Y66046804D01*
X13022120Y66026512D01*
X13091344Y65957288D01*
X13240666Y65865186D01*
X13407203Y65810001D01*
X13509991Y65799500D01*
X14710008Y65799501D01*
X14812797Y65810001D01*
X14979334Y65865186D01*
X15128656Y65957288D01*
X15252712Y66081344D01*
X15344814Y66230666D01*
X15399999Y66397203D01*
X15410500Y66499991D01*
X15410499Y67177986D01*
X18595000Y67177986D01*
X18595000Y66942015D01*
X18625799Y66708086D01*
X18686870Y66480163D01*
X18777160Y66262181D01*
X18777165Y66262172D01*
X18895144Y66057829D01*
X18895145Y66057828D01*
X18957721Y65976277D01*
X19793958Y66812513D01*
X19818978Y66752110D01*
X19890112Y66645649D01*
X19980649Y66555112D01*
X20087110Y66483978D01*
X20147511Y66458959D01*
X19311275Y65622723D01*
X19392827Y65560146D01*
X19392828Y65560145D01*
X19597171Y65442166D01*
X19597180Y65442161D01*
X19815163Y65351871D01*
X19815161Y65351871D01*
X20043085Y65290800D01*
X20277014Y65260001D01*
X20277029Y65260000D01*
X20512971Y65260000D01*
X20512985Y65260001D01*
X20746914Y65290800D01*
X20974837Y65351871D01*
X21192819Y65442161D01*
X21192828Y65442166D01*
X21397181Y65560150D01*
X21478723Y65622721D01*
X21478723Y65622724D01*
X20642487Y66458959D01*
X20702890Y66483978D01*
X20809351Y66555112D01*
X20899888Y66645649D01*
X20971022Y66752110D01*
X20996041Y66812512D01*
X21832276Y65976277D01*
X21832279Y65976277D01*
X21894850Y66057819D01*
X22012834Y66262172D01*
X22012839Y66262181D01*
X22103129Y66480163D01*
X22164200Y66708086D01*
X22194999Y66942015D01*
X22195000Y66942029D01*
X22195000Y67177972D01*
X22194999Y67177986D01*
X22164200Y67411915D01*
X22103129Y67639838D01*
X22012839Y67857820D01*
X22012834Y67857829D01*
X21894855Y68062172D01*
X21894848Y68062183D01*
X21875286Y68087676D01*
X21875283Y68087679D01*
X21832277Y68143725D01*
X20996041Y67307489D01*
X20971022Y67367890D01*
X20899888Y67474351D01*
X20809351Y67564888D01*
X20702890Y67636022D01*
X20642488Y67661042D01*
X21141462Y68160017D01*
X23674500Y68160017D01*
X23674500Y65959999D01*
X23674501Y65959982D01*
X23685000Y65857204D01*
X23685001Y65857201D01*
X23740185Y65690669D01*
X23740187Y65690664D01*
X23775069Y65634112D01*
X23832288Y65541344D01*
X23956344Y65417288D01*
X24105666Y65325186D01*
X24272203Y65270001D01*
X24374991Y65259500D01*
X26575008Y65259501D01*
X26677797Y65270001D01*
X26844334Y65325186D01*
X26993656Y65417288D01*
X27117712Y65541344D01*
X27209814Y65690666D01*
X27264999Y65857203D01*
X27275500Y65959991D01*
X27275499Y68114742D01*
X38249500Y68114742D01*
X38249500Y67885259D01*
X38260357Y67802800D01*
X38279452Y67657762D01*
X38321724Y67500000D01*
X38338842Y67436113D01*
X38426650Y67224124D01*
X38426657Y67224110D01*
X38541392Y67025383D01*
X38681081Y66843339D01*
X38681089Y66843330D01*
X38843330Y66681089D01*
X38843338Y66681082D01*
X39025382Y66541393D01*
X39025385Y66541392D01*
X39025388Y66541389D01*
X39224112Y66426656D01*
X39224117Y66426654D01*
X39224123Y66426651D01*
X39315480Y66388810D01*
X39436113Y66338842D01*
X39657762Y66279452D01*
X39885266Y66249500D01*
X39885273Y66249500D01*
X40114727Y66249500D01*
X40114734Y66249500D01*
X40342238Y66279452D01*
X40563887Y66338842D01*
X40775888Y66426656D01*
X40974612Y66541389D01*
X41156661Y66681081D01*
X41156665Y66681086D01*
X41156670Y66681089D01*
X41318911Y66843330D01*
X41318914Y66843335D01*
X41318919Y66843339D01*
X41458611Y67025388D01*
X41573344Y67224112D01*
X41661158Y67436113D01*
X41720548Y67657762D01*
X41750500Y67885266D01*
X41750500Y68114734D01*
X41720548Y68342238D01*
X41661158Y68563887D01*
X41603655Y68702712D01*
X41573349Y68775877D01*
X41573346Y68775883D01*
X41573344Y68775888D01*
X41458611Y68974612D01*
X41458608Y68974615D01*
X41458607Y68974618D01*
X41318918Y69156662D01*
X41318911Y69156670D01*
X41156670Y69318911D01*
X41156661Y69318919D01*
X40974617Y69458608D01*
X40775890Y69573343D01*
X40775876Y69573350D01*
X40563887Y69661158D01*
X40342238Y69720548D01*
X40304215Y69725554D01*
X40114741Y69750500D01*
X40114734Y69750500D01*
X39885266Y69750500D01*
X39885258Y69750500D01*
X39668715Y69721991D01*
X39657762Y69720548D01*
X39564076Y69695446D01*
X39436112Y69661158D01*
X39224123Y69573350D01*
X39224109Y69573343D01*
X39025382Y69458608D01*
X38843338Y69318919D01*
X38681081Y69156662D01*
X38541392Y68974618D01*
X38426657Y68775891D01*
X38426650Y68775877D01*
X38338842Y68563888D01*
X38337760Y68559850D01*
X38286353Y68367991D01*
X38279453Y68342241D01*
X38279451Y68342230D01*
X38249500Y68114742D01*
X27275499Y68114742D01*
X27275499Y68160008D01*
X27270202Y68211858D01*
X27264999Y68262797D01*
X27264998Y68262800D01*
X27241135Y68334814D01*
X27209814Y68429334D01*
X27117712Y68578656D01*
X26993656Y68702712D01*
X26844334Y68794814D01*
X26677797Y68849999D01*
X26677795Y68850000D01*
X26575010Y68860500D01*
X24374998Y68860500D01*
X24374981Y68860499D01*
X24272203Y68850000D01*
X24272200Y68849999D01*
X24105668Y68794815D01*
X24105663Y68794813D01*
X23956342Y68702711D01*
X23832289Y68578658D01*
X23740187Y68429337D01*
X23740185Y68429332D01*
X23719859Y68367991D01*
X23685001Y68262797D01*
X23685001Y68262796D01*
X23685000Y68262796D01*
X23674500Y68160017D01*
X21141462Y68160017D01*
X21478723Y68497279D01*
X21397172Y68559855D01*
X21397171Y68559856D01*
X21192828Y68677835D01*
X21192819Y68677840D01*
X20974836Y68768130D01*
X20974838Y68768130D01*
X20746914Y68829201D01*
X20512985Y68860000D01*
X20277014Y68860000D01*
X20043085Y68829201D01*
X19815162Y68768130D01*
X19597180Y68677840D01*
X19597171Y68677835D01*
X19392828Y68559856D01*
X19392818Y68559850D01*
X19311275Y68497280D01*
X19311275Y68497279D01*
X20147512Y67661042D01*
X20087110Y67636022D01*
X19980649Y67564888D01*
X19890112Y67474351D01*
X19818978Y67367890D01*
X19793958Y67307488D01*
X18957721Y68143725D01*
X18957720Y68143725D01*
X18895150Y68062182D01*
X18895144Y68062172D01*
X18777165Y67857829D01*
X18777160Y67857820D01*
X18686870Y67639838D01*
X18625799Y67411915D01*
X18595000Y67177986D01*
X15410499Y67177986D01*
X15410499Y67700008D01*
X15399999Y67802797D01*
X15344814Y67969334D01*
X15252712Y68118656D01*
X15128656Y68242712D01*
X14979334Y68334814D01*
X14812797Y68389999D01*
X14812795Y68390000D01*
X14710010Y68400500D01*
X13509998Y68400500D01*
X13509981Y68400499D01*
X13407203Y68390000D01*
X13407200Y68389999D01*
X13240668Y68334815D01*
X13240663Y68334813D01*
X13091345Y68242713D01*
X13022121Y68173489D01*
X12960797Y68140005D01*
X12891106Y68144990D01*
X12861555Y68160853D01*
X12791352Y68211858D01*
X12609031Y68304756D01*
X12414417Y68367991D01*
X12212317Y68400000D01*
X12007683Y68400000D01*
X11805582Y68367991D01*
X11610968Y68304756D01*
X11428644Y68211857D01*
X11384077Y68179477D01*
X11384077Y68179476D01*
X12063553Y67500000D01*
X12057339Y67500000D01*
X11955606Y67472741D01*
X11864394Y67420080D01*
X11789920Y67345606D01*
X11737259Y67254394D01*
X11710000Y67152661D01*
X11710000Y67146447D01*
X11030524Y67825923D01*
X11030523Y67825923D01*
X10998143Y67781356D01*
X10905244Y67599032D01*
X10842009Y67404418D01*
X10810000Y67202318D01*
X7560761Y67202318D01*
X7573344Y67224112D01*
X7583901Y67249598D01*
X7585988Y67254636D01*
X7611061Y67315170D01*
X7661158Y67436113D01*
X7720548Y67657762D01*
X7750500Y67885266D01*
X7750500Y68114734D01*
X7720548Y68342238D01*
X7661158Y68563887D01*
X7603655Y68702712D01*
X7573349Y68775877D01*
X7573346Y68775883D01*
X7573344Y68775888D01*
X7458611Y68974612D01*
X7458608Y68974615D01*
X7458607Y68974618D01*
X7318918Y69156662D01*
X7318911Y69156670D01*
X7156670Y69318911D01*
X7156661Y69318919D01*
X6974617Y69458608D01*
X6775890Y69573343D01*
X6775876Y69573350D01*
X6563887Y69661158D01*
X6342238Y69720548D01*
X6304215Y69725554D01*
X6114741Y69750500D01*
X6114734Y69750500D01*
X5885266Y69750500D01*
X5885258Y69750500D01*
X5668715Y69721991D01*
X5657762Y69720548D01*
X5564076Y69695446D01*
X5436112Y69661158D01*
X5224123Y69573350D01*
X5224109Y69573343D01*
X5025382Y69458608D01*
X4843338Y69318919D01*
X4681081Y69156662D01*
X4541392Y68974618D01*
X4426657Y68775891D01*
X4426650Y68775877D01*
X4338842Y68563888D01*
X4337760Y68559850D01*
X4286353Y68367991D01*
X4279453Y68342241D01*
X4279451Y68342230D01*
X4249500Y68114742D01*
X500500Y68114742D01*
X500500Y68996250D01*
X500726Y69003737D01*
X518271Y69293795D01*
X520076Y69308660D01*
X568583Y69573350D01*
X571780Y69590803D01*
X575364Y69605337D01*
X660696Y69879178D01*
X665998Y69893159D01*
X783731Y70154751D01*
X790676Y70167984D01*
X939080Y70413474D01*
X947567Y70425770D01*
X1124480Y70651583D01*
X1134395Y70662774D01*
X1337226Y70865605D01*
X1348417Y70875520D01*
X1574230Y71052433D01*
X1586526Y71060920D01*
X1832016Y71209324D01*
X1845249Y71216269D01*
X2106841Y71334002D01*
X2120822Y71339304D01*
X2394668Y71424638D01*
X2409197Y71428220D01*
X2691344Y71479925D01*
X2706201Y71481729D01*
X2996264Y71499274D01*
X3003751Y71499500D01*
X3065892Y71499500D01*
X42934108Y71499500D01*
X42996249Y71499500D01*
X43003736Y71499274D01*
G37*
%TD.AperFunction*%
%TD*%
M02*
