M48
; DRILL file {KiCad 9.0.6} date 2026-02-27T09:16:40+0200
; FORMAT={-:-/ absolute / inch / decimal}
; #@! TF.CreationDate,2026-02-27T09:16:40+02:00
; #@! TF.GenerationSoftware,Kicad,Pcbnew,9.0.6
; #@! TF.FileFunction,Plated,1,2,PTH
FMAT,2
INCH
; #@! TA.AperFunction,Plated,PTH,ViaDrill
T1C0.0157
; #@! TA.AperFunction,Plated,PTH,ComponentDrill
T2C0.0315
; #@! TA.AperFunction,Plated,PTH,ComponentDrill
T3C0.0354
; #@! TA.AperFunction,Plated,PTH,ComponentDrill
T4C0.0394
; #@! TA.AperFunction,Plated,PTH,ComponentDrill
T5C0.0512
%
G90
G05
T1
X0.0844Y2.6925
X0.0844Y2.5925
X0.0844Y2.4925
X0.0844Y2.3925
X0.0844Y2.2925
X0.0844Y2.1925
X0.0844Y2.0925
X0.0844Y0.6925
X0.0844Y0.5925
X0.0844Y0.4925
X0.0844Y0.3925
X0.0844Y0.2925
X0.1844Y2.4925
X0.1844Y2.3925
X0.1844Y0.3925
X0.1844Y0.2925
X0.2844Y2.4925
X0.2844Y1.8925
X0.2844Y0.6925
X0.2844Y0.2925
X0.2844Y0.1925
X0.3844Y2.6925
X0.3844Y2.5925
X0.3844Y2.4925
X0.3844Y2.0925
X0.3844Y1.8925
X0.3844Y1.7925
X0.3844Y1.6925
X0.3844Y1.5925
X0.3844Y1.1925
X0.3844Y0.2925
X0.4844Y2.1925
X0.4844Y1.3925
X0.4844Y1.0925
X0.4844Y0.5925
X0.4844Y0.1925
X0.5844Y1.7925
X0.6844Y2.5925
X0.6844Y2.4925
X0.6844Y1.6925
X0.6844Y1.5925
X0.6844Y1.4925
X0.6844Y1.3925
X0.6844Y1.2925
X0.6844Y1.1925
X0.6844Y1.0925
X0.7344Y0.9925
X0.7844Y2.4925
X0.7844Y2.1925
X0.7844Y0.8925
X0.7844Y0.7925
X0.7844Y0.4925
X0.7844Y0.0925
X0.8344Y0.9925
X0.8844Y2.4925
X0.8844Y2.1925
X0.8844Y1.8925
X0.8844Y1.6925
X0.8844Y1.5925
X0.8844Y1.4925
X0.8844Y1.3925
X0.8844Y1.2925
X0.8844Y1.1925
X0.8844Y0.8925
X0.8844Y0.6925
X0.8844Y0.5925
X0.8844Y0.1925
X0.8844Y0.0925
X0.9344Y1.0925
X0.9344Y0.9925
X0.9344Y0.7925
X0.9844Y2.4925
X0.9844Y2.1925
X0.9844Y0.8925
X0.9844Y0.6925
X0.9844Y0.5925
X0.9844Y0.2925
X0.9844Y0.1925
X0.9844Y0.0925
X1.0344Y0.7925
X1.0844Y2.4925
X1.0844Y2.3925
X1.0844Y2.1925
X1.0844Y1.4925
X1.0844Y1.3925
X1.0844Y1.2925
X1.0844Y1.1925
X1.0844Y1.0925
X1.0844Y0.9925
X1.0844Y0.8925
X1.0844Y0.6925
X1.0844Y0.5925
X1.0844Y0.4925
X1.0844Y0.1925
X1.0844Y0.0925
X1.1844Y2.4925
X1.1844Y2.3925
X1.2844Y2.3925
X1.2844Y2.1925
X1.2844Y1.6925
X1.2844Y1.5925
X1.2844Y1.4925
X1.2844Y1.3925
X1.2844Y0.9925
X1.2844Y0.8925
X1.2844Y0.6925
X1.2844Y0.5925
X1.2844Y0.4925
X1.2844Y0.1925
X1.3844Y1.9925
X1.3844Y1.6925
X1.3844Y1.5925
X1.3844Y1.4925
X1.3844Y1.1925
X1.4844Y1.1925
X1.4844Y0.4925
X1.4844Y0.2925
X1.4844Y0.1925
X1.5844Y0.8925
X1.5844Y0.7925
X1.5844Y0.3925
X1.5844Y0.2925
X1.5844Y0.1925
X1.5844Y0.0925
X1.6844Y2.6925
X1.6844Y2.5925
X1.6844Y2.4925
X1.6844Y2.3925
X1.6844Y0.9925
X1.6844Y0.8925
X1.6844Y0.7925
X1.6844Y0.6925
T2
X0.3354Y0.3665
X0.3354Y0.0665
X0.4571Y2.4449
X0.4618Y0.3665
X0.4618Y0.0665
X0.4768Y2.6417
X0.5555Y2.6417
X0.5555Y2.4449
X0.5555Y2.2996
X0.5555Y1.9996
X0.6555Y2.2996
X0.6555Y1.9996
X0.7555Y2.2996
X0.7555Y1.9996
X0.7565Y1.7063
X0.7565Y1.5803
X0.8555Y2.2996
X0.8555Y1.9996
X0.9555Y2.2996
X0.9555Y1.9996
X1.0512Y0.398
X1.0512Y0.2996
X1.0555Y2.2996
X1.0555Y1.9996
X1.0565Y1.7063
X1.0565Y1.5803
X1.1555Y2.2996
X1.1555Y1.9996
X1.1571Y1.8583
X1.2555Y2.2996
X1.2555Y1.9996
X1.2555Y1.8583
X1.2564Y2.5531
X1.3469Y1.05
X1.3469Y0.75
X1.3469Y0.3665
X1.3469Y0.0665
X1.3548Y2.5531
X1.4787Y1.05
X1.4787Y0.75
X1.4795Y0.3665
X1.4795Y0.0665
T3
X0.1358Y0.2016
X0.1358Y0.1016
X1.6831Y0.2016
X1.6831Y0.1016
T4
X0.2039Y0.9961
X0.2039Y0.8961
X0.2039Y0.7961
X0.3039Y0.9961
X0.3039Y0.8961
X0.3039Y0.7961
X0.6055Y1.6961
X0.6055Y1.5961
X0.6055Y1.4961
X0.6055Y1.3961
X0.6055Y1.2961
X0.6055Y1.1961
X0.6055Y1.0961
X0.6055Y0.9961
X0.6055Y0.8961
X0.6055Y0.7961
X0.6055Y0.6961
X0.6055Y0.5961
X0.6055Y0.4961
X0.6055Y0.3961
X0.6055Y0.2961
X0.6055Y0.1961
X0.6055Y0.0961
X1.2055Y1.6961
X1.2055Y1.5961
X1.2055Y1.4961
X1.2055Y1.3961
X1.2055Y1.2961
X1.2055Y1.1961
X1.2055Y1.0961
X1.2055Y0.9961
X1.2055Y0.8961
X1.2055Y0.7961
X1.2055Y0.6961
X1.2055Y0.5961
X1.2055Y0.4961
X1.2055Y0.3961
X1.2055Y0.2961
X1.2055Y0.1961
X1.2055Y0.0961
T5
X0.1945Y2.2398
X0.1945Y2.0398
X0.1945Y1.8398
X0.1945Y1.6398
X0.1945Y1.4398
X0.1945Y1.2398
X0.803Y2.6402
X1.003Y2.6402
X1.6165Y2.2398
X1.6165Y2.0398
X1.6165Y1.8398
X1.6165Y1.6398
X1.6165Y1.4398
X1.6165Y1.2398
M30
