%TF.GenerationSoftware,KiCad,Pcbnew,9.0.6*%
%TF.CreationDate,2026-02-27T09:16:40+02:00*%
%TF.ProjectId,SeBot,5365426f-742e-46b6-9963-61645f706362,rev?*%
%TF.SameCoordinates,Original*%
%TF.FileFunction,Legend,Bot*%
%TF.FilePolarity,Positive*%
%FSLAX46Y46*%
G04 Gerber Fmt 4.6, Leading zero omitted, Abs format (unit mm)*
G04 Created by KiCad (PCBNEW 9.0.6) date 2026-02-27 09:16:40*
%MOMM*%
%LPD*%
G01*
G04 APERTURE LIST*
G04 Aperture macros list*
%AMRoundRect*
0 Rectangle with rounded corners*
0 $1 Rounding radius*
0 $2 $3 $4 $5 $6 $7 $8 $9 X,Y pos of 4 corners*
0 Add a 4 corners polygon primitive as box body*
4,1,4,$2,$3,$4,$5,$6,$7,$8,$9,$2,$3,0*
0 Add four circle primitives for the rounded corners*
1,1,$1+$1,$2,$3*
1,1,$1+$1,$4,$5*
1,1,$1+$1,$6,$7*
1,1,$1+$1,$8,$9*
0 Add four rect primitives between the rounded corners*
20,1,$1+$1,$2,$3,$4,$5,0*
20,1,$1+$1,$4,$5,$6,$7,0*
20,1,$1+$1,$6,$7,$8,$9,0*
20,1,$1+$1,$8,$9,$2,$3,0*%
G04 Aperture macros list end*
%ADD10C,0.150000*%
%ADD11RoundRect,0.250000X0.550000X-0.550000X0.550000X0.550000X-0.550000X0.550000X-0.550000X-0.550000X0*%
%ADD12C,1.600000*%
%ADD13RoundRect,0.250000X1.050000X1.050000X-1.050000X1.050000X-1.050000X-1.050000X1.050000X-1.050000X0*%
%ADD14C,2.600000*%
%ADD15R,1.700000X1.700000*%
%ADD16C,1.700000*%
%ADD17R,1.800000X1.800000*%
%ADD18C,1.800000*%
%ADD19C,3.000000*%
%ADD20RoundRect,0.250000X-1.050000X1.050000X-1.050000X-1.050000X1.050000X-1.050000X1.050000X1.050000X0*%
%ADD21RoundRect,0.250000X1.050000X-1.050000X1.050000X1.050000X-1.050000X1.050000X-1.050000X-1.050000X0*%
%ADD22RoundRect,0.250000X0.550000X0.550000X-0.550000X0.550000X-0.550000X-0.550000X0.550000X-0.550000X0*%
G04 APERTURE END LIST*
D10*
G36*
X39054489Y55779265D02*
G01*
X37684578Y55779265D01*
X37684578Y56725840D01*
X38413866Y56725840D01*
X38413866Y55963935D01*
X38415307Y55949303D01*
X38426506Y55922267D01*
X38447198Y55901575D01*
X38474234Y55890376D01*
X38503498Y55890376D01*
X38530534Y55901575D01*
X38551226Y55922267D01*
X38562425Y55949303D01*
X38563866Y55963935D01*
X38563866Y56725840D01*
X38562425Y56740472D01*
X38551226Y56767508D01*
X38530534Y56788200D01*
X38503498Y56799399D01*
X38474234Y56799399D01*
X38447198Y56788200D01*
X38426506Y56767508D01*
X38415307Y56740472D01*
X38413866Y56725840D01*
X37684578Y56725840D01*
X37684578Y57857309D01*
X37795689Y57857309D01*
X37796260Y57855739D01*
X37796260Y57854065D01*
X37801241Y57842039D01*
X37805689Y57829808D01*
X37806818Y57828575D01*
X37807459Y57827029D01*
X37816664Y57817824D01*
X37825453Y57808227D01*
X37827435Y57807053D01*
X37828151Y57806337D01*
X37829787Y57805659D01*
X37838103Y57800733D01*
X38406750Y57535364D01*
X37838103Y57269995D01*
X37829787Y57265070D01*
X37828151Y57264391D01*
X37827435Y57263676D01*
X37825453Y57262501D01*
X37816664Y57252905D01*
X37807459Y57243699D01*
X37806818Y57242154D01*
X37805689Y57240920D01*
X37801241Y57228690D01*
X37796260Y57216663D01*
X37796260Y57214990D01*
X37795689Y57213419D01*
X37796260Y57200418D01*
X37796260Y57187399D01*
X37796899Y57185855D01*
X37796973Y57184183D01*
X37802479Y57172385D01*
X37807459Y57160363D01*
X37808641Y57159181D01*
X37809349Y57157665D01*
X37818945Y57148877D01*
X37828151Y57139671D01*
X37829696Y57139031D01*
X37830930Y57137901D01*
X37843160Y57133454D01*
X37855187Y57128472D01*
X37857482Y57128246D01*
X37858431Y57127901D01*
X37860197Y57127979D01*
X37869819Y57127031D01*
X38869819Y57127031D01*
X38884451Y57128472D01*
X38911487Y57139671D01*
X38932179Y57160363D01*
X38943378Y57187399D01*
X38943378Y57216663D01*
X38932179Y57243699D01*
X38911487Y57264391D01*
X38884451Y57275590D01*
X38869819Y57277031D01*
X38207887Y57277031D01*
X38615821Y57467400D01*
X38621180Y57470575D01*
X38622993Y57471234D01*
X38624275Y57472409D01*
X38628471Y57474894D01*
X38636168Y57483300D01*
X38644575Y57490998D01*
X38645984Y57494019D01*
X38648234Y57496475D01*
X38652128Y57507185D01*
X38656950Y57517516D01*
X38657096Y57520845D01*
X38658235Y57523976D01*
X38657734Y57535364D01*
X38658235Y57546752D01*
X38657096Y57549884D01*
X38656950Y57553212D01*
X38652128Y57563544D01*
X38648234Y57574253D01*
X38645984Y57576710D01*
X38644575Y57579730D01*
X38636168Y57587429D01*
X38628471Y57595834D01*
X38624275Y57598320D01*
X38622993Y57599494D01*
X38621180Y57600154D01*
X38615821Y57603328D01*
X38207887Y57793697D01*
X38869819Y57793697D01*
X38884451Y57795138D01*
X38911487Y57806337D01*
X38932179Y57827029D01*
X38943378Y57854065D01*
X38943378Y57883329D01*
X38932179Y57910365D01*
X38911487Y57931057D01*
X38884451Y57942256D01*
X38869819Y57943697D01*
X37869819Y57943697D01*
X37860197Y57942750D01*
X37858431Y57942827D01*
X37857482Y57942483D01*
X37855187Y57942256D01*
X37843160Y57937275D01*
X37830930Y57932827D01*
X37829696Y57931698D01*
X37828151Y57931057D01*
X37818945Y57921852D01*
X37809349Y57913063D01*
X37808641Y57911548D01*
X37807459Y57910365D01*
X37802479Y57898344D01*
X37796973Y57886545D01*
X37796899Y57884874D01*
X37796260Y57883329D01*
X37796260Y57870311D01*
X37795689Y57857309D01*
X37684578Y57857309D01*
X37684578Y58054808D01*
X39054489Y58054808D01*
X39054489Y55779265D01*
G37*
G36*
X8044819Y35608486D02*
G01*
X8006648Y35493974D01*
X7932534Y35419861D01*
X7855547Y35381367D01*
X7682013Y35337983D01*
X7557624Y35337983D01*
X7384090Y35381367D01*
X7307103Y35419860D01*
X7232990Y35493973D01*
X7194819Y35608487D01*
X7194819Y35759411D01*
X8044819Y35759411D01*
X8044819Y35608486D01*
G37*
G36*
X8305930Y35076872D02*
G01*
X6933708Y35076872D01*
X6933708Y35834411D01*
X7044819Y35834411D01*
X7044819Y35596316D01*
X7045548Y35588911D01*
X7045408Y35586936D01*
X7045998Y35584339D01*
X7046260Y35581684D01*
X7047018Y35579853D01*
X7048668Y35572599D01*
X7096287Y35429742D01*
X7102281Y35416317D01*
X7104046Y35414282D01*
X7105078Y35411791D01*
X7114405Y35400426D01*
X7209643Y35305188D01*
X7215393Y35300468D01*
X7216692Y35298971D01*
X7218946Y35297552D01*
X7221008Y35295860D01*
X7222840Y35295102D01*
X7229135Y35291139D01*
X7324373Y35243520D01*
X7325442Y35243111D01*
X7325878Y35242788D01*
X7332014Y35240596D01*
X7338104Y35238265D01*
X7338644Y35238227D01*
X7339724Y35237841D01*
X7530200Y35190222D01*
X7532736Y35189847D01*
X7533758Y35189424D01*
X7539270Y35188882D01*
X7544744Y35188072D01*
X7545836Y35188235D01*
X7548390Y35187983D01*
X7691247Y35187983D01*
X7693800Y35188235D01*
X7694893Y35188072D01*
X7700366Y35188882D01*
X7705879Y35189424D01*
X7706900Y35189847D01*
X7709437Y35190222D01*
X7899913Y35237841D01*
X7900992Y35238227D01*
X7901532Y35238265D01*
X7907613Y35240593D01*
X7913759Y35242788D01*
X7914194Y35243111D01*
X7915264Y35243520D01*
X8010502Y35291139D01*
X8016798Y35295103D01*
X8018628Y35295860D01*
X8020686Y35297550D01*
X8022945Y35298971D01*
X8024244Y35300470D01*
X8029994Y35305188D01*
X8125233Y35400426D01*
X8134561Y35411791D01*
X8135592Y35414282D01*
X8137357Y35416316D01*
X8143351Y35429742D01*
X8190970Y35572598D01*
X8192619Y35579854D01*
X8193378Y35581684D01*
X8193639Y35584338D01*
X8194230Y35586935D01*
X8194089Y35588910D01*
X8194819Y35596316D01*
X8194819Y35834411D01*
X8193378Y35849043D01*
X8182179Y35876079D01*
X8161487Y35896771D01*
X8134451Y35907970D01*
X8119819Y35909411D01*
X7119819Y35909411D01*
X7105187Y35907970D01*
X7078151Y35896771D01*
X7057459Y35876079D01*
X7046260Y35849043D01*
X7044819Y35834411D01*
X6933708Y35834411D01*
X6933708Y36876791D01*
X7045002Y36876791D01*
X7046260Y36872179D01*
X7046260Y36867398D01*
X7050077Y36858183D01*
X7052702Y36848559D01*
X7055629Y36844779D01*
X7057459Y36840362D01*
X7064509Y36833312D01*
X7070619Y36825422D01*
X7076751Y36821070D01*
X7078151Y36819670D01*
X7079525Y36819101D01*
X7082609Y36816912D01*
X7837402Y36385602D01*
X7119819Y36385602D01*
X7105187Y36384161D01*
X7078151Y36372962D01*
X7057459Y36352270D01*
X7046260Y36325234D01*
X7046260Y36295970D01*
X7057459Y36268934D01*
X7078151Y36248242D01*
X7105187Y36237043D01*
X7119819Y36235602D01*
X8119819Y36235602D01*
X8123582Y36235973D01*
X8125058Y36235785D01*
X8126968Y36236307D01*
X8134451Y36237043D01*
X8143666Y36240861D01*
X8153290Y36243485D01*
X8157070Y36246413D01*
X8161487Y36248242D01*
X8168537Y36255293D01*
X8176427Y36261402D01*
X8178800Y36265556D01*
X8182179Y36268934D01*
X8185995Y36278147D01*
X8190946Y36286811D01*
X8191548Y36291555D01*
X8193378Y36295970D01*
X8193378Y36305945D01*
X8194636Y36315841D01*
X8193378Y36320454D01*
X8193378Y36325234D01*
X8189560Y36334451D01*
X8186936Y36344072D01*
X8184009Y36347852D01*
X8182179Y36352270D01*
X8175127Y36359322D01*
X8169019Y36367210D01*
X8162884Y36371565D01*
X8161487Y36372962D01*
X8160114Y36373531D01*
X8157030Y36375720D01*
X7402236Y36807030D01*
X8119819Y36807030D01*
X8134451Y36808471D01*
X8161487Y36819670D01*
X8182179Y36840362D01*
X8193378Y36867398D01*
X8193378Y36896662D01*
X8182179Y36923698D01*
X8161487Y36944390D01*
X8134451Y36955589D01*
X8119819Y36957030D01*
X7119819Y36957030D01*
X7116055Y36956660D01*
X7114580Y36956847D01*
X7112669Y36956326D01*
X7105187Y36955589D01*
X7095971Y36951772D01*
X7086348Y36949147D01*
X7082567Y36946220D01*
X7078151Y36944390D01*
X7071100Y36937340D01*
X7063211Y36931230D01*
X7060837Y36927077D01*
X7057459Y36923698D01*
X7053642Y36914486D01*
X7048692Y36905821D01*
X7048089Y36901078D01*
X7046260Y36896662D01*
X7046260Y36886688D01*
X7045002Y36876791D01*
X6933708Y36876791D01*
X6933708Y37596316D01*
X7044819Y37596316D01*
X7044819Y37453459D01*
X7046260Y37438827D01*
X7047291Y37436338D01*
X7047482Y37433650D01*
X7052737Y37419918D01*
X7100356Y37324680D01*
X7108188Y37312237D01*
X7130296Y37293064D01*
X7158057Y37283810D01*
X7187247Y37285884D01*
X7213422Y37298972D01*
X7232595Y37321079D01*
X7241849Y37348841D01*
X7239775Y37378031D01*
X7234520Y37391762D01*
X7194819Y37471164D01*
X7194819Y37584146D01*
X7232990Y37698660D01*
X7307103Y37772772D01*
X7384090Y37811266D01*
X7557624Y37854649D01*
X7682013Y37854649D01*
X7855547Y37811266D01*
X7932534Y37772772D01*
X8006648Y37698659D01*
X8044819Y37584146D01*
X8044819Y37513248D01*
X8006648Y37398736D01*
X7993514Y37385602D01*
X7766247Y37385602D01*
X7766247Y37501078D01*
X7764806Y37515710D01*
X7753607Y37542746D01*
X7732915Y37563438D01*
X7705879Y37574637D01*
X7676615Y37574637D01*
X7649579Y37563438D01*
X7628887Y37542746D01*
X7617688Y37515710D01*
X7616247Y37501078D01*
X7616247Y37310602D01*
X7617688Y37295971D01*
X7617688Y37295970D01*
X7628887Y37268934D01*
X7649579Y37248242D01*
X7676615Y37237043D01*
X7691247Y37235602D01*
X8024580Y37235602D01*
X8039212Y37237043D01*
X8050410Y37241682D01*
X8066247Y37248241D01*
X8077612Y37257568D01*
X8125232Y37305187D01*
X8134560Y37316553D01*
X8135590Y37319042D01*
X8137357Y37321078D01*
X8143351Y37334504D01*
X8190970Y37477360D01*
X8192619Y37484616D01*
X8193378Y37486446D01*
X8193639Y37489100D01*
X8194230Y37491697D01*
X8194089Y37493672D01*
X8194819Y37501078D01*
X8194819Y37596316D01*
X8194089Y37603723D01*
X8194230Y37605697D01*
X8193639Y37608295D01*
X8193378Y37610948D01*
X8192619Y37612779D01*
X8190970Y37620034D01*
X8143351Y37762890D01*
X8137357Y37776316D01*
X8135592Y37778351D01*
X8134561Y37780841D01*
X8125233Y37792206D01*
X8029994Y37887444D01*
X8024244Y37892163D01*
X8022945Y37893661D01*
X8020686Y37895083D01*
X8018628Y37896772D01*
X8016798Y37897530D01*
X8010502Y37901493D01*
X7915264Y37949112D01*
X7914194Y37949522D01*
X7913759Y37949844D01*
X7907613Y37952040D01*
X7901532Y37954367D01*
X7900992Y37954406D01*
X7899913Y37954791D01*
X7709437Y38002410D01*
X7706900Y38002786D01*
X7705879Y38003208D01*
X7700366Y38003751D01*
X7694893Y38004560D01*
X7693800Y38004398D01*
X7691247Y38004649D01*
X7548390Y38004649D01*
X7545836Y38004398D01*
X7544744Y38004560D01*
X7539270Y38003751D01*
X7533758Y38003208D01*
X7532736Y38002786D01*
X7530200Y38002410D01*
X7339724Y37954791D01*
X7338644Y37954406D01*
X7338104Y37954367D01*
X7332014Y37952037D01*
X7325878Y37949844D01*
X7325442Y37949522D01*
X7324373Y37949112D01*
X7229135Y37901493D01*
X7222840Y37897531D01*
X7221008Y37896772D01*
X7218946Y37895081D01*
X7216692Y37893661D01*
X7215393Y37892165D01*
X7209643Y37887444D01*
X7114405Y37792206D01*
X7105078Y37780841D01*
X7104046Y37778351D01*
X7102281Y37776315D01*
X7096287Y37762890D01*
X7048668Y37620033D01*
X7047018Y37612780D01*
X7046260Y37610948D01*
X7045998Y37608294D01*
X7045408Y37605696D01*
X7045548Y37603722D01*
X7044819Y37596316D01*
X6933708Y37596316D01*
X6933708Y38115760D01*
X8305930Y38115760D01*
X8305930Y35076872D01*
G37*
G36*
X38794819Y41503545D02*
G01*
X38760561Y41435030D01*
X38730153Y41404623D01*
X38661637Y41370364D01*
X38554190Y41370364D01*
X38485674Y41404622D01*
X38459180Y41431116D01*
X38421009Y41545630D01*
X38421009Y41791792D01*
X38794819Y41791792D01*
X38794819Y41503545D01*
G37*
G36*
X38271009Y41551164D02*
G01*
X38236751Y41482648D01*
X38206344Y41452241D01*
X38137828Y41417983D01*
X38078000Y41417983D01*
X38009484Y41452241D01*
X37979077Y41482648D01*
X37944819Y41551164D01*
X37944819Y41791792D01*
X38271009Y41791792D01*
X38271009Y41551164D01*
G37*
G36*
X39055930Y41109253D02*
G01*
X37683708Y41109253D01*
X37683708Y41866792D01*
X37794819Y41866792D01*
X37794819Y41533459D01*
X37796260Y41518827D01*
X37797291Y41516338D01*
X37797482Y41513650D01*
X37802737Y41499918D01*
X37850356Y41404680D01*
X37854320Y41398381D01*
X37855078Y41396553D01*
X37856766Y41394497D01*
X37858188Y41392237D01*
X37859686Y41390938D01*
X37864405Y41385188D01*
X37912024Y41337569D01*
X37917773Y41332851D01*
X37919073Y41331352D01*
X37921332Y41329931D01*
X37923389Y41328242D01*
X37925216Y41327485D01*
X37931516Y41323520D01*
X38026754Y41275901D01*
X38040485Y41270646D01*
X38043174Y41270455D01*
X38045663Y41269424D01*
X38060295Y41267983D01*
X38155533Y41267983D01*
X38170165Y41269424D01*
X38172654Y41270456D01*
X38175342Y41270646D01*
X38189074Y41275901D01*
X38284312Y41323520D01*
X38290611Y41327485D01*
X38292439Y41328242D01*
X38294495Y41329931D01*
X38296755Y41331352D01*
X38298054Y41332851D01*
X38303804Y41337569D01*
X38325762Y41359528D01*
X38328471Y41353460D01*
X38330236Y41351425D01*
X38331268Y41348934D01*
X38340595Y41337569D01*
X38388214Y41289950D01*
X38393963Y41285232D01*
X38395263Y41283733D01*
X38397522Y41282312D01*
X38399579Y41280623D01*
X38401406Y41279866D01*
X38407706Y41275901D01*
X38502944Y41228282D01*
X38516675Y41223027D01*
X38519364Y41222836D01*
X38521853Y41221805D01*
X38536485Y41220364D01*
X38679342Y41220364D01*
X38693974Y41221805D01*
X38696463Y41222837D01*
X38699151Y41223027D01*
X38712883Y41228282D01*
X38808121Y41275901D01*
X38814417Y41279865D01*
X38816247Y41280622D01*
X38818305Y41282312D01*
X38820564Y41283733D01*
X38821863Y41285232D01*
X38827612Y41289949D01*
X38875232Y41337568D01*
X38879950Y41343318D01*
X38881450Y41344618D01*
X38882872Y41346878D01*
X38884560Y41348934D01*
X38885317Y41350762D01*
X38889282Y41357061D01*
X38936901Y41452299D01*
X38942156Y41466030D01*
X38942347Y41468720D01*
X38943378Y41471208D01*
X38944819Y41485840D01*
X38944819Y41866792D01*
X38943378Y41881424D01*
X38932179Y41908460D01*
X38911487Y41929152D01*
X38884451Y41940351D01*
X38869819Y41941792D01*
X37869819Y41941792D01*
X37855187Y41940351D01*
X37828151Y41929152D01*
X37807459Y41908460D01*
X37796260Y41881424D01*
X37794819Y41866792D01*
X37683708Y41866792D01*
X37683708Y42052903D01*
X39055930Y42052903D01*
X39055930Y41109253D01*
G37*
G36*
X27497744Y63705181D02*
G01*
X27209497Y63705181D01*
X27140981Y63739439D01*
X27110574Y63769847D01*
X27076316Y63838363D01*
X27076316Y63945810D01*
X27110574Y64014326D01*
X27137068Y64040820D01*
X27251581Y64078991D01*
X27497744Y64078991D01*
X27497744Y63705181D01*
G37*
G36*
X27497744Y64228991D02*
G01*
X27257116Y64228991D01*
X27188600Y64263249D01*
X27158193Y64293656D01*
X27123935Y64362172D01*
X27123935Y64422000D01*
X27158193Y64490516D01*
X27188600Y64520923D01*
X27257116Y64555181D01*
X27497744Y64555181D01*
X27497744Y64228991D01*
G37*
G36*
X26516306Y63990896D02*
G01*
X26248230Y63990896D01*
X26382268Y64393011D01*
X26516306Y63990896D01*
G37*
G36*
X27758855Y63444070D02*
G01*
X23245217Y63444070D01*
X23245217Y64025766D01*
X23356328Y64025766D01*
X23356328Y63996502D01*
X23367527Y63969466D01*
X23388219Y63948774D01*
X23415255Y63937575D01*
X23429887Y63936134D01*
X23735839Y63936134D01*
X23735839Y63630181D01*
X23737280Y63615549D01*
X23748479Y63588513D01*
X23769171Y63567821D01*
X23796207Y63556622D01*
X23825471Y63556622D01*
X23852507Y63567821D01*
X23873199Y63588513D01*
X23884398Y63615549D01*
X23885839Y63630181D01*
X23885839Y63936134D01*
X24191791Y63936134D01*
X24206423Y63937575D01*
X24233459Y63948774D01*
X24254151Y63969466D01*
X24265350Y63996502D01*
X24265350Y64025766D01*
X24254151Y64052802D01*
X24233459Y64073494D01*
X24206423Y64084693D01*
X24191791Y64086134D01*
X23885839Y64086134D01*
X23885839Y64392086D01*
X23884398Y64406718D01*
X23873199Y64433754D01*
X23852507Y64454446D01*
X23825471Y64465645D01*
X23796207Y64465645D01*
X23769171Y64454446D01*
X23748479Y64433754D01*
X23737280Y64406718D01*
X23735839Y64392086D01*
X23735839Y64086134D01*
X23429887Y64086134D01*
X23415255Y64084693D01*
X23388219Y64073494D01*
X23367527Y64052802D01*
X23356328Y64025766D01*
X23245217Y64025766D01*
X23245217Y64644813D01*
X24451566Y64644813D01*
X24451566Y64615549D01*
X24462765Y64588513D01*
X24483457Y64567821D01*
X24510493Y64556622D01*
X24525125Y64555181D01*
X24735839Y64555181D01*
X24735839Y63630181D01*
X24737280Y63615549D01*
X24748479Y63588513D01*
X24769171Y63567821D01*
X24796207Y63556622D01*
X24825471Y63556622D01*
X24852507Y63567821D01*
X24873199Y63588513D01*
X24884398Y63615549D01*
X24885839Y63630181D01*
X24885839Y64555181D01*
X25096553Y64555181D01*
X25111185Y64556622D01*
X25138221Y64567821D01*
X25158913Y64588513D01*
X25170112Y64615549D01*
X25170112Y64644813D01*
X25213471Y64644813D01*
X25213471Y64615549D01*
X25224670Y64588513D01*
X25245362Y64567821D01*
X25272398Y64556622D01*
X25287030Y64555181D01*
X25497744Y64555181D01*
X25497744Y63630181D01*
X25499185Y63615549D01*
X25510384Y63588513D01*
X25531076Y63567821D01*
X25558112Y63556622D01*
X25587376Y63556622D01*
X25614412Y63567821D01*
X25635104Y63588513D01*
X25646303Y63615549D01*
X25647744Y63630181D01*
X25647744Y63639561D01*
X25974524Y63639561D01*
X25976599Y63610371D01*
X25989685Y63584198D01*
X26011792Y63565024D01*
X26039555Y63555770D01*
X26068745Y63557845D01*
X26094918Y63570931D01*
X26114092Y63593038D01*
X26120086Y63606464D01*
X26198230Y63840896D01*
X26566306Y63840896D01*
X26644450Y63606464D01*
X26650444Y63593039D01*
X26669618Y63570932D01*
X26695791Y63557845D01*
X26724981Y63555770D01*
X26752743Y63565024D01*
X26774851Y63584198D01*
X26787937Y63610372D01*
X26790012Y63639562D01*
X26786752Y63653898D01*
X26683546Y63963515D01*
X26926316Y63963515D01*
X26926316Y63820658D01*
X26927757Y63806026D01*
X26928788Y63803537D01*
X26928979Y63800849D01*
X26934234Y63787117D01*
X26981853Y63691879D01*
X26985816Y63685583D01*
X26986574Y63683753D01*
X26988263Y63681695D01*
X26989685Y63679436D01*
X26991183Y63678137D01*
X26995901Y63672388D01*
X27043520Y63624768D01*
X27049269Y63620050D01*
X27050570Y63618550D01*
X27052829Y63617128D01*
X27054886Y63615440D01*
X27056713Y63614683D01*
X27063013Y63610718D01*
X27158251Y63563099D01*
X27171982Y63557844D01*
X27174671Y63557653D01*
X27177160Y63556622D01*
X27191792Y63555181D01*
X27572744Y63555181D01*
X27587376Y63556622D01*
X27614412Y63567821D01*
X27635104Y63588513D01*
X27646303Y63615549D01*
X27647744Y63630181D01*
X27647744Y64630181D01*
X27646303Y64644813D01*
X27635104Y64671849D01*
X27614412Y64692541D01*
X27587376Y64703740D01*
X27572744Y64705181D01*
X27239411Y64705181D01*
X27224779Y64703740D01*
X27222290Y64702710D01*
X27219601Y64702518D01*
X27205870Y64697263D01*
X27110632Y64649644D01*
X27104332Y64645680D01*
X27102505Y64644922D01*
X27100448Y64643234D01*
X27098189Y64641812D01*
X27096889Y64640314D01*
X27091140Y64635595D01*
X27043521Y64587976D01*
X27038802Y64582227D01*
X27037304Y64580927D01*
X27035882Y64578668D01*
X27034194Y64576611D01*
X27033436Y64574784D01*
X27029472Y64568484D01*
X26981853Y64473246D01*
X26976598Y64459514D01*
X26976407Y64456827D01*
X26975376Y64454337D01*
X26973935Y64439705D01*
X26973935Y64344467D01*
X26975376Y64329835D01*
X26976407Y64327346D01*
X26976598Y64324658D01*
X26981853Y64310926D01*
X27029472Y64215688D01*
X27033436Y64209389D01*
X27034194Y64207561D01*
X27035882Y64205505D01*
X27037304Y64203245D01*
X27038802Y64201946D01*
X27043521Y64196196D01*
X27065478Y64174239D01*
X27059411Y64171529D01*
X27057374Y64169763D01*
X27054886Y64168732D01*
X27043521Y64159405D01*
X26995902Y64111786D01*
X26991183Y64106037D01*
X26989685Y64104737D01*
X26988263Y64102478D01*
X26986575Y64100421D01*
X26985817Y64098594D01*
X26981853Y64092294D01*
X26934234Y63997056D01*
X26928979Y63983324D01*
X26928788Y63980637D01*
X26927757Y63978147D01*
X26926316Y63963515D01*
X26683546Y63963515D01*
X26453419Y64653898D01*
X26447425Y64667324D01*
X26443913Y64671373D01*
X26441518Y64676164D01*
X26434414Y64682326D01*
X26428251Y64689431D01*
X26423457Y64691828D01*
X26419410Y64695338D01*
X26410488Y64698312D01*
X26402078Y64702517D01*
X26396733Y64702897D01*
X26391648Y64704592D01*
X26382268Y64703926D01*
X26372888Y64704592D01*
X26367802Y64702897D01*
X26362458Y64702517D01*
X26354050Y64698313D01*
X26345125Y64695338D01*
X26341074Y64691825D01*
X26336285Y64689430D01*
X26330126Y64682330D01*
X26323018Y64676164D01*
X26320621Y64671371D01*
X26317111Y64667323D01*
X26311117Y64653898D01*
X25977784Y63653898D01*
X25974524Y63639561D01*
X25647744Y63639561D01*
X25647744Y64555181D01*
X25858458Y64555181D01*
X25873090Y64556622D01*
X25900126Y64567821D01*
X25920818Y64588513D01*
X25932017Y64615549D01*
X25932017Y64644813D01*
X25920818Y64671849D01*
X25900126Y64692541D01*
X25873090Y64703740D01*
X25858458Y64705181D01*
X25287030Y64705181D01*
X25272398Y64703740D01*
X25245362Y64692541D01*
X25224670Y64671849D01*
X25213471Y64644813D01*
X25170112Y64644813D01*
X25158913Y64671849D01*
X25138221Y64692541D01*
X25111185Y64703740D01*
X25096553Y64705181D01*
X24525125Y64705181D01*
X24510493Y64703740D01*
X24483457Y64692541D01*
X24462765Y64671849D01*
X24451566Y64644813D01*
X23245217Y64644813D01*
X23245217Y64816292D01*
X27758855Y64816292D01*
X27758855Y63444070D01*
G37*
G36*
X38509104Y46693707D02*
G01*
X38106989Y46827745D01*
X38509104Y46961784D01*
X38509104Y46693707D01*
G37*
G36*
X39055341Y46308890D02*
G01*
X37684297Y46308890D01*
X37684297Y46837125D01*
X37795408Y46837125D01*
X37796074Y46827745D01*
X37795408Y46818365D01*
X37797103Y46813280D01*
X37797483Y46807935D01*
X37801687Y46799526D01*
X37804662Y46790602D01*
X37808173Y46786554D01*
X37810569Y46781762D01*
X37817673Y46775600D01*
X37823836Y46768495D01*
X37828627Y46766100D01*
X37832676Y46762588D01*
X37846102Y46756594D01*
X38846102Y46423261D01*
X38860438Y46420001D01*
X38889628Y46422076D01*
X38915802Y46435162D01*
X38934976Y46457270D01*
X38944230Y46485032D01*
X38942155Y46514222D01*
X38929068Y46540395D01*
X38906961Y46559569D01*
X38893536Y46565563D01*
X38659104Y46643707D01*
X38659104Y47011784D01*
X38893536Y47089927D01*
X38906961Y47095921D01*
X38929068Y47115095D01*
X38942155Y47141268D01*
X38944230Y47170458D01*
X38934976Y47198220D01*
X38915802Y47220328D01*
X38889628Y47233414D01*
X38860438Y47235489D01*
X38846102Y47232229D01*
X37846102Y46898896D01*
X37832676Y46892902D01*
X37828627Y46889391D01*
X37823836Y46886995D01*
X37817673Y46879891D01*
X37810569Y46873728D01*
X37808173Y46868937D01*
X37804662Y46864888D01*
X37801687Y46855965D01*
X37797483Y46847555D01*
X37797103Y46842211D01*
X37795408Y46837125D01*
X37684297Y46837125D01*
X37684297Y47346600D01*
X39055341Y47346600D01*
X39055341Y46308890D01*
G37*
G36*
X39055930Y50222223D02*
G01*
X37683708Y50222223D01*
X37683708Y51083791D01*
X37795408Y51083791D01*
X37797483Y51054601D01*
X37810569Y51028428D01*
X37832676Y51009254D01*
X37846102Y51003260D01*
X38632648Y50741078D01*
X37846102Y50478896D01*
X37832676Y50472902D01*
X37810569Y50453728D01*
X37797483Y50427555D01*
X37795408Y50398365D01*
X37804662Y50370602D01*
X37823836Y50348495D01*
X37850009Y50335409D01*
X37879199Y50333334D01*
X37893536Y50336594D01*
X38893536Y50669927D01*
X38906961Y50675921D01*
X38911008Y50679432D01*
X38915802Y50681828D01*
X38921966Y50688936D01*
X38929068Y50695095D01*
X38931463Y50699887D01*
X38934976Y50703936D01*
X38937950Y50712859D01*
X38942155Y50721268D01*
X38942534Y50726613D01*
X38944230Y50731698D01*
X38943563Y50741078D01*
X38944230Y50750458D01*
X38942534Y50755544D01*
X38942155Y50760888D01*
X38937950Y50769298D01*
X38934976Y50778220D01*
X38931463Y50782270D01*
X38929068Y50787061D01*
X38921966Y50793221D01*
X38915802Y50800328D01*
X38911008Y50802725D01*
X38906961Y50806235D01*
X38893536Y50812229D01*
X37893536Y51145562D01*
X37879199Y51148822D01*
X37850009Y51146747D01*
X37823836Y51133661D01*
X37804662Y51111554D01*
X37795408Y51083791D01*
X37683708Y51083791D01*
X37683708Y51883935D01*
X37794819Y51883935D01*
X37794819Y51407745D01*
X37796260Y51393113D01*
X37807459Y51366077D01*
X37828151Y51345385D01*
X37855187Y51334186D01*
X37884451Y51334186D01*
X37911487Y51345385D01*
X37932179Y51366077D01*
X37943378Y51393113D01*
X37944819Y51407745D01*
X37944819Y51816061D01*
X38193009Y51840880D01*
X38183689Y51822238D01*
X38178434Y51808506D01*
X38178243Y51805819D01*
X38177212Y51803329D01*
X38175771Y51788697D01*
X38175771Y51550602D01*
X38177212Y51535970D01*
X38178243Y51533481D01*
X38178434Y51530793D01*
X38183689Y51517061D01*
X38231308Y51421823D01*
X38235272Y51415524D01*
X38236030Y51413696D01*
X38237718Y51411640D01*
X38239140Y51409380D01*
X38240638Y51408081D01*
X38245357Y51402331D01*
X38292976Y51354712D01*
X38298725Y51349994D01*
X38300025Y51348495D01*
X38302284Y51347074D01*
X38304341Y51345385D01*
X38306168Y51344628D01*
X38312468Y51340663D01*
X38407706Y51293044D01*
X38421437Y51287789D01*
X38424126Y51287598D01*
X38426615Y51286567D01*
X38441247Y51285126D01*
X38679342Y51285126D01*
X38693974Y51286567D01*
X38696463Y51287599D01*
X38699151Y51287789D01*
X38712883Y51293044D01*
X38808121Y51340663D01*
X38814417Y51344627D01*
X38816247Y51345384D01*
X38818305Y51347074D01*
X38820564Y51348495D01*
X38821863Y51349994D01*
X38827612Y51354711D01*
X38875232Y51402330D01*
X38879950Y51408080D01*
X38881450Y51409380D01*
X38882872Y51411640D01*
X38884560Y51413696D01*
X38885317Y51415524D01*
X38889282Y51421823D01*
X38936901Y51517061D01*
X38942156Y51530792D01*
X38942347Y51533482D01*
X38943378Y51535970D01*
X38944819Y51550602D01*
X38944819Y51788697D01*
X38943378Y51803329D01*
X38942347Y51805818D01*
X38942156Y51808507D01*
X38936901Y51822238D01*
X38889282Y51917476D01*
X38885317Y51923776D01*
X38884560Y51925603D01*
X38882872Y51927660D01*
X38881450Y51929919D01*
X38879950Y51931220D01*
X38875232Y51936969D01*
X38827612Y51984588D01*
X38816247Y51993915D01*
X38789211Y52005113D01*
X38759948Y52005113D01*
X38732912Y51993914D01*
X38712219Y51973221D01*
X38701021Y51946185D01*
X38701021Y51916922D01*
X38712220Y51889886D01*
X38721548Y51878520D01*
X38760561Y51839508D01*
X38794819Y51770992D01*
X38794819Y51568307D01*
X38760561Y51499792D01*
X38730153Y51469385D01*
X38661637Y51435126D01*
X38458952Y51435126D01*
X38390436Y51469384D01*
X38360029Y51499791D01*
X38325771Y51568307D01*
X38325771Y51770992D01*
X38360029Y51839508D01*
X38399042Y51878521D01*
X38408369Y51889886D01*
X38409814Y51893375D01*
X38412206Y51896298D01*
X38415373Y51906796D01*
X38419568Y51916922D01*
X38419568Y51920699D01*
X38420659Y51924314D01*
X38419568Y51935224D01*
X38419568Y51946185D01*
X38418122Y51949674D01*
X38417747Y51953433D01*
X38412562Y51963097D01*
X38408369Y51973221D01*
X38405698Y51975892D01*
X38403913Y51979220D01*
X38395424Y51986166D01*
X38387676Y51993914D01*
X38384189Y51995359D01*
X38381265Y51997751D01*
X38370764Y52000920D01*
X38360640Y52005113D01*
X38356865Y52005113D01*
X38353249Y52006204D01*
X38338546Y52006182D01*
X37862356Y51958563D01*
X37857024Y51957494D01*
X37855187Y51957494D01*
X37853464Y51956781D01*
X37847940Y51955673D01*
X37838280Y51950491D01*
X37828151Y51946295D01*
X37825479Y51943624D01*
X37822153Y51941839D01*
X37815212Y51933357D01*
X37807459Y51925603D01*
X37806013Y51922115D01*
X37803622Y51919191D01*
X37800454Y51908694D01*
X37796260Y51898567D01*
X37795707Y51892962D01*
X37795169Y51891175D01*
X37795351Y51889347D01*
X37794819Y51883935D01*
X37683708Y51883935D01*
X37683708Y52755710D01*
X38034355Y52755710D01*
X38034355Y52726446D01*
X38045554Y52699410D01*
X38066246Y52678718D01*
X38093282Y52667519D01*
X38107914Y52666078D01*
X38413866Y52666078D01*
X38413866Y52360125D01*
X38415307Y52345493D01*
X38426506Y52318457D01*
X38447198Y52297765D01*
X38474234Y52286566D01*
X38503498Y52286566D01*
X38530534Y52297765D01*
X38551226Y52318457D01*
X38562425Y52345493D01*
X38563866Y52360125D01*
X38563866Y52666078D01*
X38869819Y52666078D01*
X38884451Y52667519D01*
X38911487Y52678718D01*
X38932179Y52699410D01*
X38943378Y52726446D01*
X38943378Y52755710D01*
X38932179Y52782746D01*
X38911487Y52803438D01*
X38884451Y52814637D01*
X38869819Y52816078D01*
X38563866Y52816078D01*
X38563866Y53122030D01*
X38562425Y53136662D01*
X38551226Y53163698D01*
X38530534Y53184390D01*
X38503498Y53195589D01*
X38474234Y53195589D01*
X38447198Y53184390D01*
X38426506Y53163698D01*
X38415307Y53136662D01*
X38413866Y53122030D01*
X38413866Y52816078D01*
X38107914Y52816078D01*
X38093282Y52814637D01*
X38066246Y52803438D01*
X38045554Y52782746D01*
X38034355Y52755710D01*
X37683708Y52755710D01*
X37683708Y53306700D01*
X39055930Y53306700D01*
X39055930Y50222223D01*
G37*
G36*
X38794819Y35608486D02*
G01*
X38756648Y35493974D01*
X38682534Y35419861D01*
X38605547Y35381367D01*
X38432013Y35337983D01*
X38307624Y35337983D01*
X38134090Y35381367D01*
X38057103Y35419860D01*
X37982990Y35493973D01*
X37944819Y35608487D01*
X37944819Y35759411D01*
X38794819Y35759411D01*
X38794819Y35608486D01*
G37*
G36*
X39055930Y35076872D02*
G01*
X37683708Y35076872D01*
X37683708Y35834411D01*
X37794819Y35834411D01*
X37794819Y35596316D01*
X37795548Y35588911D01*
X37795408Y35586936D01*
X37795998Y35584339D01*
X37796260Y35581684D01*
X37797018Y35579853D01*
X37798668Y35572599D01*
X37846287Y35429742D01*
X37852281Y35416317D01*
X37854046Y35414282D01*
X37855078Y35411791D01*
X37864405Y35400426D01*
X37959643Y35305188D01*
X37965393Y35300468D01*
X37966692Y35298971D01*
X37968946Y35297552D01*
X37971008Y35295860D01*
X37972840Y35295102D01*
X37979135Y35291139D01*
X38074373Y35243520D01*
X38075442Y35243111D01*
X38075878Y35242788D01*
X38082014Y35240596D01*
X38088104Y35238265D01*
X38088644Y35238227D01*
X38089724Y35237841D01*
X38280200Y35190222D01*
X38282736Y35189847D01*
X38283758Y35189424D01*
X38289270Y35188882D01*
X38294744Y35188072D01*
X38295836Y35188235D01*
X38298390Y35187983D01*
X38441247Y35187983D01*
X38443800Y35188235D01*
X38444893Y35188072D01*
X38450366Y35188882D01*
X38455879Y35189424D01*
X38456900Y35189847D01*
X38459437Y35190222D01*
X38649913Y35237841D01*
X38650992Y35238227D01*
X38651532Y35238265D01*
X38657613Y35240593D01*
X38663759Y35242788D01*
X38664194Y35243111D01*
X38665264Y35243520D01*
X38760502Y35291139D01*
X38766798Y35295103D01*
X38768628Y35295860D01*
X38770686Y35297550D01*
X38772945Y35298971D01*
X38774244Y35300470D01*
X38779994Y35305188D01*
X38875233Y35400426D01*
X38884561Y35411791D01*
X38885592Y35414282D01*
X38887357Y35416316D01*
X38893351Y35429742D01*
X38940970Y35572598D01*
X38942619Y35579854D01*
X38943378Y35581684D01*
X38943639Y35584338D01*
X38944230Y35586935D01*
X38944089Y35588910D01*
X38944819Y35596316D01*
X38944819Y35834411D01*
X38943378Y35849043D01*
X38932179Y35876079D01*
X38911487Y35896771D01*
X38884451Y35907970D01*
X38869819Y35909411D01*
X37869819Y35909411D01*
X37855187Y35907970D01*
X37828151Y35896771D01*
X37807459Y35876079D01*
X37796260Y35849043D01*
X37794819Y35834411D01*
X37683708Y35834411D01*
X37683708Y36876791D01*
X37795002Y36876791D01*
X37796260Y36872179D01*
X37796260Y36867398D01*
X37800077Y36858183D01*
X37802702Y36848559D01*
X37805629Y36844779D01*
X37807459Y36840362D01*
X37814509Y36833312D01*
X37820619Y36825422D01*
X37826751Y36821070D01*
X37828151Y36819670D01*
X37829525Y36819101D01*
X37832609Y36816912D01*
X38587402Y36385602D01*
X37869819Y36385602D01*
X37855187Y36384161D01*
X37828151Y36372962D01*
X37807459Y36352270D01*
X37796260Y36325234D01*
X37796260Y36295970D01*
X37807459Y36268934D01*
X37828151Y36248242D01*
X37855187Y36237043D01*
X37869819Y36235602D01*
X38869819Y36235602D01*
X38873582Y36235973D01*
X38875058Y36235785D01*
X38876968Y36236307D01*
X38884451Y36237043D01*
X38893666Y36240861D01*
X38903290Y36243485D01*
X38907070Y36246413D01*
X38911487Y36248242D01*
X38918537Y36255293D01*
X38926427Y36261402D01*
X38928800Y36265556D01*
X38932179Y36268934D01*
X38935995Y36278147D01*
X38940946Y36286811D01*
X38941548Y36291555D01*
X38943378Y36295970D01*
X38943378Y36305945D01*
X38944636Y36315841D01*
X38943378Y36320454D01*
X38943378Y36325234D01*
X38939560Y36334451D01*
X38936936Y36344072D01*
X38934009Y36347852D01*
X38932179Y36352270D01*
X38925127Y36359322D01*
X38919019Y36367210D01*
X38912884Y36371565D01*
X38911487Y36372962D01*
X38910114Y36373531D01*
X38907030Y36375720D01*
X38152236Y36807030D01*
X38869819Y36807030D01*
X38884451Y36808471D01*
X38911487Y36819670D01*
X38932179Y36840362D01*
X38943378Y36867398D01*
X38943378Y36896662D01*
X38932179Y36923698D01*
X38911487Y36944390D01*
X38884451Y36955589D01*
X38869819Y36957030D01*
X37869819Y36957030D01*
X37866055Y36956660D01*
X37864580Y36956847D01*
X37862669Y36956326D01*
X37855187Y36955589D01*
X37845971Y36951772D01*
X37836348Y36949147D01*
X37832567Y36946220D01*
X37828151Y36944390D01*
X37821100Y36937340D01*
X37813211Y36931230D01*
X37810837Y36927077D01*
X37807459Y36923698D01*
X37803642Y36914486D01*
X37798692Y36905821D01*
X37798089Y36901078D01*
X37796260Y36896662D01*
X37796260Y36886688D01*
X37795002Y36876791D01*
X37683708Y36876791D01*
X37683708Y37596316D01*
X37794819Y37596316D01*
X37794819Y37453459D01*
X37796260Y37438827D01*
X37797291Y37436338D01*
X37797482Y37433650D01*
X37802737Y37419918D01*
X37850356Y37324680D01*
X37858188Y37312237D01*
X37880296Y37293064D01*
X37908057Y37283810D01*
X37937247Y37285884D01*
X37963422Y37298972D01*
X37982595Y37321079D01*
X37991849Y37348841D01*
X37989775Y37378031D01*
X37984520Y37391762D01*
X37944819Y37471164D01*
X37944819Y37584146D01*
X37982990Y37698660D01*
X38057103Y37772772D01*
X38134090Y37811266D01*
X38307624Y37854649D01*
X38432013Y37854649D01*
X38605547Y37811266D01*
X38682534Y37772772D01*
X38756648Y37698659D01*
X38794819Y37584146D01*
X38794819Y37513248D01*
X38756648Y37398736D01*
X38743514Y37385602D01*
X38516247Y37385602D01*
X38516247Y37501078D01*
X38514806Y37515710D01*
X38503607Y37542746D01*
X38482915Y37563438D01*
X38455879Y37574637D01*
X38426615Y37574637D01*
X38399579Y37563438D01*
X38378887Y37542746D01*
X38367688Y37515710D01*
X38366247Y37501078D01*
X38366247Y37310602D01*
X38367688Y37295971D01*
X38367688Y37295970D01*
X38378887Y37268934D01*
X38399579Y37248242D01*
X38426615Y37237043D01*
X38441247Y37235602D01*
X38774580Y37235602D01*
X38789212Y37237043D01*
X38800410Y37241682D01*
X38816247Y37248241D01*
X38827612Y37257568D01*
X38875232Y37305187D01*
X38884560Y37316553D01*
X38885590Y37319042D01*
X38887357Y37321078D01*
X38893351Y37334504D01*
X38940970Y37477360D01*
X38942619Y37484616D01*
X38943378Y37486446D01*
X38943639Y37489100D01*
X38944230Y37491697D01*
X38944089Y37493672D01*
X38944819Y37501078D01*
X38944819Y37596316D01*
X38944089Y37603723D01*
X38944230Y37605697D01*
X38943639Y37608295D01*
X38943378Y37610948D01*
X38942619Y37612779D01*
X38940970Y37620034D01*
X38893351Y37762890D01*
X38887357Y37776316D01*
X38885592Y37778351D01*
X38884561Y37780841D01*
X38875233Y37792206D01*
X38779994Y37887444D01*
X38774244Y37892163D01*
X38772945Y37893661D01*
X38770686Y37895083D01*
X38768628Y37896772D01*
X38766798Y37897530D01*
X38760502Y37901493D01*
X38665264Y37949112D01*
X38664194Y37949522D01*
X38663759Y37949844D01*
X38657613Y37952040D01*
X38651532Y37954367D01*
X38650992Y37954406D01*
X38649913Y37954791D01*
X38459437Y38002410D01*
X38456900Y38002786D01*
X38455879Y38003208D01*
X38450366Y38003751D01*
X38444893Y38004560D01*
X38443800Y38004398D01*
X38441247Y38004649D01*
X38298390Y38004649D01*
X38295836Y38004398D01*
X38294744Y38004560D01*
X38289270Y38003751D01*
X38283758Y38003208D01*
X38282736Y38002786D01*
X38280200Y38002410D01*
X38089724Y37954791D01*
X38088644Y37954406D01*
X38088104Y37954367D01*
X38082014Y37952037D01*
X38075878Y37949844D01*
X38075442Y37949522D01*
X38074373Y37949112D01*
X37979135Y37901493D01*
X37972840Y37897531D01*
X37971008Y37896772D01*
X37968946Y37895081D01*
X37966692Y37893661D01*
X37965393Y37892165D01*
X37959643Y37887444D01*
X37864405Y37792206D01*
X37855078Y37780841D01*
X37854046Y37778351D01*
X37852281Y37776315D01*
X37846287Y37762890D01*
X37798668Y37620033D01*
X37797018Y37612780D01*
X37796260Y37610948D01*
X37795998Y37608294D01*
X37795408Y37605696D01*
X37795548Y37603722D01*
X37794819Y37596316D01*
X37683708Y37596316D01*
X37683708Y38115760D01*
X39055930Y38115760D01*
X39055930Y35076872D01*
G37*
G36*
X39054489Y30379265D02*
G01*
X37684578Y30379265D01*
X37684578Y30959520D01*
X38034355Y30959520D01*
X38034355Y30930256D01*
X38045554Y30903220D01*
X38066246Y30882528D01*
X38093282Y30871329D01*
X38107914Y30869888D01*
X38413866Y30869888D01*
X38413866Y30563935D01*
X38415307Y30549303D01*
X38426506Y30522267D01*
X38447198Y30501575D01*
X38474234Y30490376D01*
X38503498Y30490376D01*
X38530534Y30501575D01*
X38551226Y30522267D01*
X38562425Y30549303D01*
X38563866Y30563935D01*
X38563866Y30869888D01*
X38869819Y30869888D01*
X38884451Y30871329D01*
X38911487Y30882528D01*
X38932179Y30903220D01*
X38943378Y30930256D01*
X38943378Y30959520D01*
X38932179Y30986556D01*
X38911487Y31007248D01*
X38884451Y31018447D01*
X38869819Y31019888D01*
X38563866Y31019888D01*
X38563866Y31325840D01*
X38562425Y31340472D01*
X38551226Y31367508D01*
X38530534Y31388200D01*
X38503498Y31399399D01*
X38474234Y31399399D01*
X38447198Y31388200D01*
X38426506Y31367508D01*
X38415307Y31340472D01*
X38413866Y31325840D01*
X38413866Y31019888D01*
X38107914Y31019888D01*
X38093282Y31018447D01*
X38066246Y31007248D01*
X38045554Y30986556D01*
X38034355Y30959520D01*
X37684578Y30959520D01*
X37684578Y32457309D01*
X37795689Y32457309D01*
X37796260Y32455739D01*
X37796260Y32454065D01*
X37801241Y32442039D01*
X37805689Y32429808D01*
X37806818Y32428575D01*
X37807459Y32427029D01*
X37816664Y32417824D01*
X37825453Y32408227D01*
X37827435Y32407053D01*
X37828151Y32406337D01*
X37829787Y32405659D01*
X37838103Y32400733D01*
X38406750Y32135364D01*
X37838103Y31869995D01*
X37829787Y31865070D01*
X37828151Y31864391D01*
X37827435Y31863676D01*
X37825453Y31862501D01*
X37816664Y31852905D01*
X37807459Y31843699D01*
X37806818Y31842154D01*
X37805689Y31840920D01*
X37801241Y31828690D01*
X37796260Y31816663D01*
X37796260Y31814990D01*
X37795689Y31813419D01*
X37796260Y31800418D01*
X37796260Y31787399D01*
X37796899Y31785855D01*
X37796973Y31784183D01*
X37802479Y31772385D01*
X37807459Y31760363D01*
X37808641Y31759181D01*
X37809349Y31757665D01*
X37818945Y31748877D01*
X37828151Y31739671D01*
X37829696Y31739031D01*
X37830930Y31737901D01*
X37843160Y31733454D01*
X37855187Y31728472D01*
X37857482Y31728246D01*
X37858431Y31727901D01*
X37860197Y31727979D01*
X37869819Y31727031D01*
X38869819Y31727031D01*
X38884451Y31728472D01*
X38911487Y31739671D01*
X38932179Y31760363D01*
X38943378Y31787399D01*
X38943378Y31816663D01*
X38932179Y31843699D01*
X38911487Y31864391D01*
X38884451Y31875590D01*
X38869819Y31877031D01*
X38207887Y31877031D01*
X38615821Y32067400D01*
X38621180Y32070575D01*
X38622993Y32071234D01*
X38624275Y32072409D01*
X38628471Y32074894D01*
X38636168Y32083300D01*
X38644575Y32090998D01*
X38645984Y32094019D01*
X38648234Y32096475D01*
X38652128Y32107185D01*
X38656950Y32117516D01*
X38657096Y32120845D01*
X38658235Y32123976D01*
X38657734Y32135364D01*
X38658235Y32146752D01*
X38657096Y32149884D01*
X38656950Y32153212D01*
X38652128Y32163544D01*
X38648234Y32174253D01*
X38645984Y32176710D01*
X38644575Y32179730D01*
X38636168Y32187429D01*
X38628471Y32195834D01*
X38624275Y32198320D01*
X38622993Y32199494D01*
X38621180Y32200154D01*
X38615821Y32203328D01*
X38207887Y32393697D01*
X38869819Y32393697D01*
X38884451Y32395138D01*
X38911487Y32406337D01*
X38932179Y32427029D01*
X38943378Y32454065D01*
X38943378Y32483329D01*
X38932179Y32510365D01*
X38911487Y32531057D01*
X38884451Y32542256D01*
X38869819Y32543697D01*
X37869819Y32543697D01*
X37860197Y32542750D01*
X37858431Y32542827D01*
X37857482Y32542483D01*
X37855187Y32542256D01*
X37843160Y32537275D01*
X37830930Y32532827D01*
X37829696Y32531698D01*
X37828151Y32531057D01*
X37818945Y32521852D01*
X37809349Y32513063D01*
X37808641Y32511548D01*
X37807459Y32510365D01*
X37802479Y32498344D01*
X37796973Y32486545D01*
X37796899Y32484874D01*
X37796260Y32483329D01*
X37796260Y32470311D01*
X37795689Y32457309D01*
X37684578Y32457309D01*
X37684578Y32654808D01*
X39054489Y32654808D01*
X39054489Y30379265D01*
G37*
G36*
X8044819Y41503545D02*
G01*
X8010561Y41435030D01*
X7980153Y41404623D01*
X7911637Y41370364D01*
X7804190Y41370364D01*
X7735674Y41404622D01*
X7709180Y41431116D01*
X7671009Y41545630D01*
X7671009Y41791792D01*
X8044819Y41791792D01*
X8044819Y41503545D01*
G37*
G36*
X7521009Y41551164D02*
G01*
X7486751Y41482648D01*
X7456344Y41452241D01*
X7387828Y41417983D01*
X7328000Y41417983D01*
X7259484Y41452241D01*
X7229077Y41482648D01*
X7194819Y41551164D01*
X7194819Y41791792D01*
X7521009Y41791792D01*
X7521009Y41551164D01*
G37*
G36*
X8305930Y41109253D02*
G01*
X6933708Y41109253D01*
X6933708Y41866792D01*
X7044819Y41866792D01*
X7044819Y41533459D01*
X7046260Y41518827D01*
X7047291Y41516338D01*
X7047482Y41513650D01*
X7052737Y41499918D01*
X7100356Y41404680D01*
X7104320Y41398381D01*
X7105078Y41396553D01*
X7106766Y41394497D01*
X7108188Y41392237D01*
X7109686Y41390938D01*
X7114405Y41385188D01*
X7162024Y41337569D01*
X7167773Y41332851D01*
X7169073Y41331352D01*
X7171332Y41329931D01*
X7173389Y41328242D01*
X7175216Y41327485D01*
X7181516Y41323520D01*
X7276754Y41275901D01*
X7290485Y41270646D01*
X7293174Y41270455D01*
X7295663Y41269424D01*
X7310295Y41267983D01*
X7405533Y41267983D01*
X7420165Y41269424D01*
X7422654Y41270456D01*
X7425342Y41270646D01*
X7439074Y41275901D01*
X7534312Y41323520D01*
X7540611Y41327485D01*
X7542439Y41328242D01*
X7544495Y41329931D01*
X7546755Y41331352D01*
X7548054Y41332851D01*
X7553804Y41337569D01*
X7575762Y41359528D01*
X7578471Y41353460D01*
X7580236Y41351425D01*
X7581268Y41348934D01*
X7590595Y41337569D01*
X7638214Y41289950D01*
X7643963Y41285232D01*
X7645263Y41283733D01*
X7647522Y41282312D01*
X7649579Y41280623D01*
X7651406Y41279866D01*
X7657706Y41275901D01*
X7752944Y41228282D01*
X7766675Y41223027D01*
X7769364Y41222836D01*
X7771853Y41221805D01*
X7786485Y41220364D01*
X7929342Y41220364D01*
X7943974Y41221805D01*
X7946463Y41222837D01*
X7949151Y41223027D01*
X7962883Y41228282D01*
X8058121Y41275901D01*
X8064417Y41279865D01*
X8066247Y41280622D01*
X8068305Y41282312D01*
X8070564Y41283733D01*
X8071863Y41285232D01*
X8077612Y41289949D01*
X8125232Y41337568D01*
X8129950Y41343318D01*
X8131450Y41344618D01*
X8132872Y41346878D01*
X8134560Y41348934D01*
X8135317Y41350762D01*
X8139282Y41357061D01*
X8186901Y41452299D01*
X8192156Y41466030D01*
X8192347Y41468720D01*
X8193378Y41471208D01*
X8194819Y41485840D01*
X8194819Y41866792D01*
X8193378Y41881424D01*
X8182179Y41908460D01*
X8161487Y41929152D01*
X8134451Y41940351D01*
X8119819Y41941792D01*
X7119819Y41941792D01*
X7105187Y41940351D01*
X7078151Y41929152D01*
X7057459Y41908460D01*
X7046260Y41881424D01*
X7044819Y41866792D01*
X6933708Y41866792D01*
X6933708Y42052903D01*
X8305930Y42052903D01*
X8305930Y41109253D01*
G37*
G36*
X8305930Y50222223D02*
G01*
X6933708Y50222223D01*
X6933708Y51083791D01*
X7045408Y51083791D01*
X7047483Y51054601D01*
X7060569Y51028428D01*
X7082676Y51009254D01*
X7096102Y51003260D01*
X7882648Y50741078D01*
X7096102Y50478896D01*
X7082676Y50472902D01*
X7060569Y50453728D01*
X7047483Y50427555D01*
X7045408Y50398365D01*
X7054662Y50370602D01*
X7073836Y50348495D01*
X7100009Y50335409D01*
X7129199Y50333334D01*
X7143536Y50336594D01*
X8143536Y50669927D01*
X8156961Y50675921D01*
X8161008Y50679432D01*
X8165802Y50681828D01*
X8171966Y50688936D01*
X8179068Y50695095D01*
X8181463Y50699887D01*
X8184976Y50703936D01*
X8187950Y50712859D01*
X8192155Y50721268D01*
X8192534Y50726613D01*
X8194230Y50731698D01*
X8193563Y50741078D01*
X8194230Y50750458D01*
X8192534Y50755544D01*
X8192155Y50760888D01*
X8187950Y50769298D01*
X8184976Y50778220D01*
X8181463Y50782270D01*
X8179068Y50787061D01*
X8171966Y50793221D01*
X8165802Y50800328D01*
X8161008Y50802725D01*
X8156961Y50806235D01*
X8143536Y50812229D01*
X7143536Y51145562D01*
X7129199Y51148822D01*
X7100009Y51146747D01*
X7073836Y51133661D01*
X7054662Y51111554D01*
X7045408Y51083791D01*
X6933708Y51083791D01*
X6933708Y51883935D01*
X7044819Y51883935D01*
X7044819Y51407745D01*
X7046260Y51393113D01*
X7057459Y51366077D01*
X7078151Y51345385D01*
X7105187Y51334186D01*
X7134451Y51334186D01*
X7161487Y51345385D01*
X7182179Y51366077D01*
X7193378Y51393113D01*
X7194819Y51407745D01*
X7194819Y51816061D01*
X7443009Y51840880D01*
X7433689Y51822238D01*
X7428434Y51808506D01*
X7428243Y51805819D01*
X7427212Y51803329D01*
X7425771Y51788697D01*
X7425771Y51550602D01*
X7427212Y51535970D01*
X7428243Y51533481D01*
X7428434Y51530793D01*
X7433689Y51517061D01*
X7481308Y51421823D01*
X7485272Y51415524D01*
X7486030Y51413696D01*
X7487718Y51411640D01*
X7489140Y51409380D01*
X7490638Y51408081D01*
X7495357Y51402331D01*
X7542976Y51354712D01*
X7548725Y51349994D01*
X7550025Y51348495D01*
X7552284Y51347074D01*
X7554341Y51345385D01*
X7556168Y51344628D01*
X7562468Y51340663D01*
X7657706Y51293044D01*
X7671437Y51287789D01*
X7674126Y51287598D01*
X7676615Y51286567D01*
X7691247Y51285126D01*
X7929342Y51285126D01*
X7943974Y51286567D01*
X7946463Y51287599D01*
X7949151Y51287789D01*
X7962883Y51293044D01*
X8058121Y51340663D01*
X8064417Y51344627D01*
X8066247Y51345384D01*
X8068305Y51347074D01*
X8070564Y51348495D01*
X8071863Y51349994D01*
X8077612Y51354711D01*
X8125232Y51402330D01*
X8129950Y51408080D01*
X8131450Y51409380D01*
X8132872Y51411640D01*
X8134560Y51413696D01*
X8135317Y51415524D01*
X8139282Y51421823D01*
X8186901Y51517061D01*
X8192156Y51530792D01*
X8192347Y51533482D01*
X8193378Y51535970D01*
X8194819Y51550602D01*
X8194819Y51788697D01*
X8193378Y51803329D01*
X8192347Y51805818D01*
X8192156Y51808507D01*
X8186901Y51822238D01*
X8139282Y51917476D01*
X8135317Y51923776D01*
X8134560Y51925603D01*
X8132872Y51927660D01*
X8131450Y51929919D01*
X8129950Y51931220D01*
X8125232Y51936969D01*
X8077612Y51984588D01*
X8066247Y51993915D01*
X8039211Y52005113D01*
X8009948Y52005113D01*
X7982912Y51993914D01*
X7962219Y51973221D01*
X7951021Y51946185D01*
X7951021Y51916922D01*
X7962220Y51889886D01*
X7971548Y51878520D01*
X8010561Y51839508D01*
X8044819Y51770992D01*
X8044819Y51568307D01*
X8010561Y51499792D01*
X7980153Y51469385D01*
X7911637Y51435126D01*
X7708952Y51435126D01*
X7640436Y51469384D01*
X7610029Y51499791D01*
X7575771Y51568307D01*
X7575771Y51770992D01*
X7610029Y51839508D01*
X7649042Y51878521D01*
X7658369Y51889886D01*
X7659814Y51893375D01*
X7662206Y51896298D01*
X7665373Y51906796D01*
X7669568Y51916922D01*
X7669568Y51920699D01*
X7670659Y51924314D01*
X7669568Y51935224D01*
X7669568Y51946185D01*
X7668122Y51949674D01*
X7667747Y51953433D01*
X7662562Y51963097D01*
X7658369Y51973221D01*
X7655698Y51975892D01*
X7653913Y51979220D01*
X7645424Y51986166D01*
X7637676Y51993914D01*
X7634189Y51995359D01*
X7631265Y51997751D01*
X7620764Y52000920D01*
X7610640Y52005113D01*
X7606865Y52005113D01*
X7603249Y52006204D01*
X7588546Y52006182D01*
X7112356Y51958563D01*
X7107024Y51957494D01*
X7105187Y51957494D01*
X7103464Y51956781D01*
X7097940Y51955673D01*
X7088280Y51950491D01*
X7078151Y51946295D01*
X7075479Y51943624D01*
X7072153Y51941839D01*
X7065212Y51933357D01*
X7057459Y51925603D01*
X7056013Y51922115D01*
X7053622Y51919191D01*
X7050454Y51908694D01*
X7046260Y51898567D01*
X7045707Y51892962D01*
X7045169Y51891175D01*
X7045351Y51889347D01*
X7044819Y51883935D01*
X6933708Y51883935D01*
X6933708Y52755710D01*
X7284355Y52755710D01*
X7284355Y52726446D01*
X7295554Y52699410D01*
X7316246Y52678718D01*
X7343282Y52667519D01*
X7357914Y52666078D01*
X7663866Y52666078D01*
X7663866Y52360125D01*
X7665307Y52345493D01*
X7676506Y52318457D01*
X7697198Y52297765D01*
X7724234Y52286566D01*
X7753498Y52286566D01*
X7780534Y52297765D01*
X7801226Y52318457D01*
X7812425Y52345493D01*
X7813866Y52360125D01*
X7813866Y52666078D01*
X8119819Y52666078D01*
X8134451Y52667519D01*
X8161487Y52678718D01*
X8182179Y52699410D01*
X8193378Y52726446D01*
X8193378Y52755710D01*
X8182179Y52782746D01*
X8161487Y52803438D01*
X8134451Y52814637D01*
X8119819Y52816078D01*
X7813866Y52816078D01*
X7813866Y53122030D01*
X7812425Y53136662D01*
X7801226Y53163698D01*
X7780534Y53184390D01*
X7753498Y53195589D01*
X7724234Y53195589D01*
X7697198Y53184390D01*
X7676506Y53163698D01*
X7665307Y53136662D01*
X7663866Y53122030D01*
X7663866Y52816078D01*
X7357914Y52816078D01*
X7343282Y52814637D01*
X7316246Y52803438D01*
X7295554Y52782746D01*
X7284355Y52755710D01*
X6933708Y52755710D01*
X6933708Y53306700D01*
X8305930Y53306700D01*
X8305930Y50222223D01*
G37*
G36*
X8304489Y30379265D02*
G01*
X6934578Y30379265D01*
X6934578Y30959520D01*
X7284355Y30959520D01*
X7284355Y30930256D01*
X7295554Y30903220D01*
X7316246Y30882528D01*
X7343282Y30871329D01*
X7357914Y30869888D01*
X7663866Y30869888D01*
X7663866Y30563935D01*
X7665307Y30549303D01*
X7676506Y30522267D01*
X7697198Y30501575D01*
X7724234Y30490376D01*
X7753498Y30490376D01*
X7780534Y30501575D01*
X7801226Y30522267D01*
X7812425Y30549303D01*
X7813866Y30563935D01*
X7813866Y30869888D01*
X8119819Y30869888D01*
X8134451Y30871329D01*
X8161487Y30882528D01*
X8182179Y30903220D01*
X8193378Y30930256D01*
X8193378Y30959520D01*
X8182179Y30986556D01*
X8161487Y31007248D01*
X8134451Y31018447D01*
X8119819Y31019888D01*
X7813866Y31019888D01*
X7813866Y31325840D01*
X7812425Y31340472D01*
X7801226Y31367508D01*
X7780534Y31388200D01*
X7753498Y31399399D01*
X7724234Y31399399D01*
X7697198Y31388200D01*
X7676506Y31367508D01*
X7665307Y31340472D01*
X7663866Y31325840D01*
X7663866Y31019888D01*
X7357914Y31019888D01*
X7343282Y31018447D01*
X7316246Y31007248D01*
X7295554Y30986556D01*
X7284355Y30959520D01*
X6934578Y30959520D01*
X6934578Y32457309D01*
X7045689Y32457309D01*
X7046260Y32455739D01*
X7046260Y32454065D01*
X7051241Y32442039D01*
X7055689Y32429808D01*
X7056818Y32428575D01*
X7057459Y32427029D01*
X7066664Y32417824D01*
X7075453Y32408227D01*
X7077435Y32407053D01*
X7078151Y32406337D01*
X7079787Y32405659D01*
X7088103Y32400733D01*
X7656750Y32135364D01*
X7088103Y31869995D01*
X7079787Y31865070D01*
X7078151Y31864391D01*
X7077435Y31863676D01*
X7075453Y31862501D01*
X7066664Y31852905D01*
X7057459Y31843699D01*
X7056818Y31842154D01*
X7055689Y31840920D01*
X7051241Y31828690D01*
X7046260Y31816663D01*
X7046260Y31814990D01*
X7045689Y31813419D01*
X7046260Y31800418D01*
X7046260Y31787399D01*
X7046899Y31785855D01*
X7046973Y31784183D01*
X7052479Y31772385D01*
X7057459Y31760363D01*
X7058641Y31759181D01*
X7059349Y31757665D01*
X7068945Y31748877D01*
X7078151Y31739671D01*
X7079696Y31739031D01*
X7080930Y31737901D01*
X7093160Y31733454D01*
X7105187Y31728472D01*
X7107482Y31728246D01*
X7108431Y31727901D01*
X7110197Y31727979D01*
X7119819Y31727031D01*
X8119819Y31727031D01*
X8134451Y31728472D01*
X8161487Y31739671D01*
X8182179Y31760363D01*
X8193378Y31787399D01*
X8193378Y31816663D01*
X8182179Y31843699D01*
X8161487Y31864391D01*
X8134451Y31875590D01*
X8119819Y31877031D01*
X7457887Y31877031D01*
X7865821Y32067400D01*
X7871180Y32070575D01*
X7872993Y32071234D01*
X7874275Y32072409D01*
X7878471Y32074894D01*
X7886168Y32083300D01*
X7894575Y32090998D01*
X7895984Y32094019D01*
X7898234Y32096475D01*
X7902128Y32107185D01*
X7906950Y32117516D01*
X7907096Y32120845D01*
X7908235Y32123976D01*
X7907734Y32135364D01*
X7908235Y32146752D01*
X7907096Y32149884D01*
X7906950Y32153212D01*
X7902128Y32163544D01*
X7898234Y32174253D01*
X7895984Y32176710D01*
X7894575Y32179730D01*
X7886168Y32187429D01*
X7878471Y32195834D01*
X7874275Y32198320D01*
X7872993Y32199494D01*
X7871180Y32200154D01*
X7865821Y32203328D01*
X7457887Y32393697D01*
X8119819Y32393697D01*
X8134451Y32395138D01*
X8161487Y32406337D01*
X8182179Y32427029D01*
X8193378Y32454065D01*
X8193378Y32483329D01*
X8182179Y32510365D01*
X8161487Y32531057D01*
X8134451Y32542256D01*
X8119819Y32543697D01*
X7119819Y32543697D01*
X7110197Y32542750D01*
X7108431Y32542827D01*
X7107482Y32542483D01*
X7105187Y32542256D01*
X7093160Y32537275D01*
X7080930Y32532827D01*
X7079696Y32531698D01*
X7078151Y32531057D01*
X7068945Y32521852D01*
X7059349Y32513063D01*
X7058641Y32511548D01*
X7057459Y32510365D01*
X7052479Y32498344D01*
X7046973Y32486545D01*
X7046899Y32484874D01*
X7046260Y32483329D01*
X7046260Y32470311D01*
X7045689Y32457309D01*
X6934578Y32457309D01*
X6934578Y32654808D01*
X8304489Y32654808D01*
X8304489Y30379265D01*
G37*
G36*
X8304489Y55779265D02*
G01*
X6934578Y55779265D01*
X6934578Y56725840D01*
X7663866Y56725840D01*
X7663866Y55963935D01*
X7665307Y55949303D01*
X7676506Y55922267D01*
X7697198Y55901575D01*
X7724234Y55890376D01*
X7753498Y55890376D01*
X7780534Y55901575D01*
X7801226Y55922267D01*
X7812425Y55949303D01*
X7813866Y55963935D01*
X7813866Y56725840D01*
X7812425Y56740472D01*
X7801226Y56767508D01*
X7780534Y56788200D01*
X7753498Y56799399D01*
X7724234Y56799399D01*
X7697198Y56788200D01*
X7676506Y56767508D01*
X7665307Y56740472D01*
X7663866Y56725840D01*
X6934578Y56725840D01*
X6934578Y57857309D01*
X7045689Y57857309D01*
X7046260Y57855739D01*
X7046260Y57854065D01*
X7051241Y57842039D01*
X7055689Y57829808D01*
X7056818Y57828575D01*
X7057459Y57827029D01*
X7066664Y57817824D01*
X7075453Y57808227D01*
X7077435Y57807053D01*
X7078151Y57806337D01*
X7079787Y57805659D01*
X7088103Y57800733D01*
X7656750Y57535364D01*
X7088103Y57269995D01*
X7079787Y57265070D01*
X7078151Y57264391D01*
X7077435Y57263676D01*
X7075453Y57262501D01*
X7066664Y57252905D01*
X7057459Y57243699D01*
X7056818Y57242154D01*
X7055689Y57240920D01*
X7051241Y57228690D01*
X7046260Y57216663D01*
X7046260Y57214990D01*
X7045689Y57213419D01*
X7046260Y57200418D01*
X7046260Y57187399D01*
X7046899Y57185855D01*
X7046973Y57184183D01*
X7052479Y57172385D01*
X7057459Y57160363D01*
X7058641Y57159181D01*
X7059349Y57157665D01*
X7068945Y57148877D01*
X7078151Y57139671D01*
X7079696Y57139031D01*
X7080930Y57137901D01*
X7093160Y57133454D01*
X7105187Y57128472D01*
X7107482Y57128246D01*
X7108431Y57127901D01*
X7110197Y57127979D01*
X7119819Y57127031D01*
X8119819Y57127031D01*
X8134451Y57128472D01*
X8161487Y57139671D01*
X8182179Y57160363D01*
X8193378Y57187399D01*
X8193378Y57216663D01*
X8182179Y57243699D01*
X8161487Y57264391D01*
X8134451Y57275590D01*
X8119819Y57277031D01*
X7457887Y57277031D01*
X7865821Y57467400D01*
X7871180Y57470575D01*
X7872993Y57471234D01*
X7874275Y57472409D01*
X7878471Y57474894D01*
X7886168Y57483300D01*
X7894575Y57490998D01*
X7895984Y57494019D01*
X7898234Y57496475D01*
X7902128Y57507185D01*
X7906950Y57517516D01*
X7907096Y57520845D01*
X7908235Y57523976D01*
X7907734Y57535364D01*
X7908235Y57546752D01*
X7907096Y57549884D01*
X7906950Y57553212D01*
X7902128Y57563544D01*
X7898234Y57574253D01*
X7895984Y57576710D01*
X7894575Y57579730D01*
X7886168Y57587429D01*
X7878471Y57595834D01*
X7874275Y57598320D01*
X7872993Y57599494D01*
X7871180Y57600154D01*
X7865821Y57603328D01*
X7457887Y57793697D01*
X8119819Y57793697D01*
X8134451Y57795138D01*
X8161487Y57806337D01*
X8182179Y57827029D01*
X8193378Y57854065D01*
X8193378Y57883329D01*
X8182179Y57910365D01*
X8161487Y57931057D01*
X8134451Y57942256D01*
X8119819Y57943697D01*
X7119819Y57943697D01*
X7110197Y57942750D01*
X7108431Y57942827D01*
X7107482Y57942483D01*
X7105187Y57942256D01*
X7093160Y57937275D01*
X7080930Y57932827D01*
X7079696Y57931698D01*
X7078151Y57931057D01*
X7068945Y57921852D01*
X7059349Y57913063D01*
X7058641Y57911548D01*
X7057459Y57910365D01*
X7052479Y57898344D01*
X7046973Y57886545D01*
X7046899Y57884874D01*
X7046260Y57883329D01*
X7046260Y57870311D01*
X7045689Y57857309D01*
X6934578Y57857309D01*
X6934578Y58054808D01*
X8304489Y58054808D01*
X8304489Y55779265D01*
G37*
G36*
X7759104Y46693707D02*
G01*
X7356989Y46827745D01*
X7759104Y46961784D01*
X7759104Y46693707D01*
G37*
G36*
X8305341Y46308890D02*
G01*
X6934297Y46308890D01*
X6934297Y46837125D01*
X7045408Y46837125D01*
X7046074Y46827745D01*
X7045408Y46818365D01*
X7047103Y46813280D01*
X7047483Y46807935D01*
X7051687Y46799526D01*
X7054662Y46790602D01*
X7058173Y46786554D01*
X7060569Y46781762D01*
X7067673Y46775600D01*
X7073836Y46768495D01*
X7078627Y46766100D01*
X7082676Y46762588D01*
X7096102Y46756594D01*
X8096102Y46423261D01*
X8110438Y46420001D01*
X8139628Y46422076D01*
X8165802Y46435162D01*
X8184976Y46457270D01*
X8194230Y46485032D01*
X8192155Y46514222D01*
X8179068Y46540395D01*
X8156961Y46559569D01*
X8143536Y46565563D01*
X7909104Y46643707D01*
X7909104Y47011784D01*
X8143536Y47089927D01*
X8156961Y47095921D01*
X8179068Y47115095D01*
X8192155Y47141268D01*
X8194230Y47170458D01*
X8184976Y47198220D01*
X8165802Y47220328D01*
X8139628Y47233414D01*
X8110438Y47235489D01*
X8096102Y47232229D01*
X7096102Y46898896D01*
X7082676Y46892902D01*
X7078627Y46889391D01*
X7073836Y46886995D01*
X7067673Y46879891D01*
X7060569Y46873728D01*
X7058173Y46868937D01*
X7054662Y46864888D01*
X7051687Y46855965D01*
X7047483Y46847555D01*
X7047103Y46842211D01*
X7045408Y46837125D01*
X6934297Y46837125D01*
X6934297Y47346600D01*
X8305341Y47346600D01*
X8305341Y46308890D01*
G37*
G36*
X19584411Y63705181D02*
G01*
X19433486Y63705181D01*
X19318973Y63743352D01*
X19244860Y63817466D01*
X19206366Y63894453D01*
X19162983Y64067987D01*
X19162983Y64192376D01*
X19206366Y64365910D01*
X19244860Y64442897D01*
X19318973Y64517010D01*
X19433486Y64555181D01*
X19584411Y64555181D01*
X19584411Y63705181D01*
G37*
G36*
X21940760Y63444070D02*
G01*
X18901872Y63444070D01*
X18901872Y64201610D01*
X19012983Y64201610D01*
X19012983Y64058753D01*
X19013234Y64056200D01*
X19013072Y64055107D01*
X19013881Y64049634D01*
X19014424Y64044121D01*
X19014846Y64043100D01*
X19015222Y64040563D01*
X19062841Y63850087D01*
X19063226Y63849008D01*
X19063265Y63848468D01*
X19065592Y63842387D01*
X19067788Y63836241D01*
X19068110Y63835806D01*
X19068520Y63834736D01*
X19116139Y63739498D01*
X19120102Y63733202D01*
X19120860Y63731372D01*
X19122549Y63729314D01*
X19123971Y63727055D01*
X19125469Y63725756D01*
X19130188Y63720006D01*
X19225426Y63624767D01*
X19236791Y63615439D01*
X19239281Y63614408D01*
X19241316Y63612643D01*
X19254742Y63606649D01*
X19397598Y63559030D01*
X19404853Y63557381D01*
X19406684Y63556622D01*
X19409337Y63556361D01*
X19411935Y63555770D01*
X19413909Y63555911D01*
X19421316Y63555181D01*
X19659411Y63555181D01*
X19674043Y63556622D01*
X19701079Y63567821D01*
X19721771Y63588513D01*
X19732970Y63615549D01*
X19734411Y63630181D01*
X19734411Y64630181D01*
X20060602Y64630181D01*
X20060602Y63630181D01*
X20060972Y63626418D01*
X20060785Y63624942D01*
X20061306Y63623032D01*
X20062043Y63615549D01*
X20065860Y63606334D01*
X20068485Y63596710D01*
X20071412Y63592930D01*
X20073242Y63588513D01*
X20080292Y63581463D01*
X20086402Y63573573D01*
X20090555Y63571200D01*
X20093934Y63567821D01*
X20103146Y63564005D01*
X20111811Y63559054D01*
X20116554Y63558452D01*
X20120970Y63556622D01*
X20130944Y63556622D01*
X20140841Y63555364D01*
X20145453Y63556622D01*
X20150234Y63556622D01*
X20159449Y63560440D01*
X20169073Y63563064D01*
X20172853Y63565992D01*
X20177270Y63567821D01*
X20184320Y63574872D01*
X20192210Y63580981D01*
X20196562Y63587114D01*
X20197962Y63588513D01*
X20198531Y63589888D01*
X20200720Y63592971D01*
X20632030Y64347765D01*
X20632030Y63630181D01*
X20633471Y63615549D01*
X20644670Y63588513D01*
X20665362Y63567821D01*
X20692398Y63556622D01*
X20721662Y63556622D01*
X20748698Y63567821D01*
X20769390Y63588513D01*
X20780589Y63615549D01*
X20782030Y63630181D01*
X20782030Y64058753D01*
X21060602Y64058753D01*
X21060602Y63725420D01*
X21062043Y63710788D01*
X21065960Y63701332D01*
X21073241Y63683753D01*
X21082568Y63672388D01*
X21130187Y63624768D01*
X21141553Y63615440D01*
X21144041Y63614410D01*
X21146078Y63612643D01*
X21159504Y63606649D01*
X21302360Y63559030D01*
X21309615Y63557381D01*
X21311446Y63556622D01*
X21314099Y63556361D01*
X21316697Y63555770D01*
X21318671Y63555911D01*
X21326078Y63555181D01*
X21421316Y63555181D01*
X21428721Y63555911D01*
X21430696Y63555770D01*
X21433293Y63556361D01*
X21435948Y63556622D01*
X21437779Y63557381D01*
X21445033Y63559030D01*
X21587890Y63606649D01*
X21601315Y63612643D01*
X21603350Y63614409D01*
X21605841Y63615440D01*
X21617206Y63624767D01*
X21712445Y63720007D01*
X21717162Y63725756D01*
X21718661Y63727055D01*
X21720082Y63729314D01*
X21721772Y63731372D01*
X21722529Y63733202D01*
X21726493Y63739498D01*
X21774112Y63834736D01*
X21774521Y63835806D01*
X21774844Y63836241D01*
X21777036Y63842378D01*
X21779367Y63848467D01*
X21779405Y63849008D01*
X21779791Y63850087D01*
X21827410Y64040563D01*
X21827785Y64043100D01*
X21828208Y64044121D01*
X21828750Y64049634D01*
X21829560Y64055107D01*
X21829397Y64056200D01*
X21829649Y64058753D01*
X21829649Y64201610D01*
X21829397Y64204164D01*
X21829560Y64205256D01*
X21828750Y64210730D01*
X21828208Y64216242D01*
X21827785Y64217264D01*
X21827410Y64219800D01*
X21779791Y64410276D01*
X21779405Y64411356D01*
X21779367Y64411896D01*
X21777036Y64417986D01*
X21774844Y64424122D01*
X21774521Y64424558D01*
X21774112Y64425627D01*
X21726493Y64520865D01*
X21722530Y64527160D01*
X21721772Y64528992D01*
X21720080Y64531054D01*
X21718661Y64533308D01*
X21717164Y64534607D01*
X21712444Y64540357D01*
X21617206Y64635595D01*
X21605841Y64644922D01*
X21603350Y64645954D01*
X21601315Y64647719D01*
X21587890Y64653713D01*
X21445033Y64701332D01*
X21437779Y64702982D01*
X21435948Y64703740D01*
X21433293Y64704002D01*
X21430696Y64704592D01*
X21428721Y64704452D01*
X21421316Y64705181D01*
X21278459Y64705181D01*
X21263827Y64703740D01*
X21261338Y64702710D01*
X21258649Y64702518D01*
X21244918Y64697263D01*
X21149680Y64649644D01*
X21137237Y64641812D01*
X21118064Y64619704D01*
X21108810Y64591943D01*
X21110884Y64562753D01*
X21123971Y64536578D01*
X21146079Y64517405D01*
X21173840Y64508151D01*
X21203030Y64510225D01*
X21216762Y64515480D01*
X21296164Y64555181D01*
X21409146Y64555181D01*
X21523659Y64517010D01*
X21597772Y64442897D01*
X21636265Y64365910D01*
X21679649Y64192376D01*
X21679649Y64067987D01*
X21636265Y63894453D01*
X21597771Y63817466D01*
X21523659Y63743353D01*
X21409146Y63705181D01*
X21338248Y63705181D01*
X21223735Y63743352D01*
X21210602Y63756486D01*
X21210602Y63983753D01*
X21326078Y63983753D01*
X21340710Y63985194D01*
X21367746Y63996393D01*
X21388438Y64017085D01*
X21399637Y64044121D01*
X21399637Y64073385D01*
X21388438Y64100421D01*
X21367746Y64121113D01*
X21340710Y64132312D01*
X21326078Y64133753D01*
X21135602Y64133753D01*
X21120970Y64132312D01*
X21093934Y64121113D01*
X21073242Y64100421D01*
X21062043Y64073385D01*
X21060602Y64058753D01*
X20782030Y64058753D01*
X20782030Y64630181D01*
X20781659Y64633945D01*
X20781847Y64635420D01*
X20781325Y64637331D01*
X20780589Y64644813D01*
X20776771Y64654029D01*
X20774147Y64663652D01*
X20771219Y64667433D01*
X20769390Y64671849D01*
X20762339Y64678900D01*
X20756230Y64686789D01*
X20752076Y64689163D01*
X20748698Y64692541D01*
X20739485Y64696358D01*
X20730821Y64701308D01*
X20726077Y64701911D01*
X20721662Y64703740D01*
X20711688Y64703740D01*
X20701791Y64704998D01*
X20697179Y64703740D01*
X20692398Y64703740D01*
X20683181Y64699923D01*
X20673560Y64697298D01*
X20669780Y64694372D01*
X20665362Y64692541D01*
X20658310Y64685490D01*
X20650422Y64679381D01*
X20646067Y64673247D01*
X20644670Y64671849D01*
X20644101Y64670477D01*
X20641912Y64667392D01*
X20210602Y63912598D01*
X20210602Y64630181D01*
X20209161Y64644813D01*
X20197962Y64671849D01*
X20177270Y64692541D01*
X20150234Y64703740D01*
X20120970Y64703740D01*
X20093934Y64692541D01*
X20073242Y64671849D01*
X20062043Y64644813D01*
X20060602Y64630181D01*
X19734411Y64630181D01*
X19732970Y64644813D01*
X19721771Y64671849D01*
X19701079Y64692541D01*
X19674043Y64703740D01*
X19659411Y64705181D01*
X19421316Y64705181D01*
X19413909Y64704452D01*
X19411935Y64704592D01*
X19409337Y64704002D01*
X19406684Y64703740D01*
X19404853Y64702982D01*
X19397598Y64701332D01*
X19254742Y64653713D01*
X19241316Y64647719D01*
X19239281Y64645955D01*
X19236791Y64644923D01*
X19225426Y64635595D01*
X19130188Y64540357D01*
X19125469Y64534608D01*
X19123971Y64533308D01*
X19122549Y64531049D01*
X19120861Y64528992D01*
X19120103Y64527165D01*
X19116139Y64520865D01*
X19068520Y64425627D01*
X19068110Y64424558D01*
X19067788Y64424122D01*
X19065592Y64417977D01*
X19063265Y64411895D01*
X19063226Y64411356D01*
X19062841Y64410276D01*
X19015222Y64219800D01*
X19014846Y64217264D01*
X19014424Y64216242D01*
X19013881Y64210730D01*
X19013072Y64205256D01*
X19013234Y64204164D01*
X19012983Y64201610D01*
X18901872Y64201610D01*
X18901872Y64816292D01*
X21940760Y64816292D01*
X21940760Y63444070D01*
G37*
X20862368Y31159048D02*
X20909987Y31016191D01*
X20909987Y31016191D02*
X20909987Y30778096D01*
X20909987Y30778096D02*
X20862368Y30682858D01*
X20862368Y30682858D02*
X20814748Y30635239D01*
X20814748Y30635239D02*
X20719510Y30587620D01*
X20719510Y30587620D02*
X20624272Y30587620D01*
X20624272Y30587620D02*
X20529034Y30635239D01*
X20529034Y30635239D02*
X20481415Y30682858D01*
X20481415Y30682858D02*
X20433796Y30778096D01*
X20433796Y30778096D02*
X20386177Y30968572D01*
X20386177Y30968572D02*
X20338558Y31063810D01*
X20338558Y31063810D02*
X20290939Y31111429D01*
X20290939Y31111429D02*
X20195701Y31159048D01*
X20195701Y31159048D02*
X20100463Y31159048D01*
X20100463Y31159048D02*
X20005225Y31111429D01*
X20005225Y31111429D02*
X19957606Y31063810D01*
X19957606Y31063810D02*
X19909987Y30968572D01*
X19909987Y30968572D02*
X19909987Y30730477D01*
X19909987Y30730477D02*
X19957606Y30587620D01*
X20862368Y29778096D02*
X20909987Y29873334D01*
X20909987Y29873334D02*
X20909987Y30063810D01*
X20909987Y30063810D02*
X20862368Y30159048D01*
X20862368Y30159048D02*
X20767129Y30206667D01*
X20767129Y30206667D02*
X20386177Y30206667D01*
X20386177Y30206667D02*
X20290939Y30159048D01*
X20290939Y30159048D02*
X20243320Y30063810D01*
X20243320Y30063810D02*
X20243320Y29873334D01*
X20243320Y29873334D02*
X20290939Y29778096D01*
X20290939Y29778096D02*
X20386177Y29730477D01*
X20386177Y29730477D02*
X20481415Y29730477D01*
X20481415Y29730477D02*
X20576653Y30206667D01*
X20386177Y28968572D02*
X20433796Y28825715D01*
X20433796Y28825715D02*
X20481415Y28778096D01*
X20481415Y28778096D02*
X20576653Y28730477D01*
X20576653Y28730477D02*
X20719510Y28730477D01*
X20719510Y28730477D02*
X20814748Y28778096D01*
X20814748Y28778096D02*
X20862368Y28825715D01*
X20862368Y28825715D02*
X20909987Y28920953D01*
X20909987Y28920953D02*
X20909987Y29301905D01*
X20909987Y29301905D02*
X19909987Y29301905D01*
X19909987Y29301905D02*
X19909987Y28968572D01*
X19909987Y28968572D02*
X19957606Y28873334D01*
X19957606Y28873334D02*
X20005225Y28825715D01*
X20005225Y28825715D02*
X20100463Y28778096D01*
X20100463Y28778096D02*
X20195701Y28778096D01*
X20195701Y28778096D02*
X20290939Y28825715D01*
X20290939Y28825715D02*
X20338558Y28873334D01*
X20338558Y28873334D02*
X20386177Y28968572D01*
X20386177Y28968572D02*
X20386177Y29301905D01*
X19909987Y28111429D02*
X19909987Y27920953D01*
X19909987Y27920953D02*
X19957606Y27825715D01*
X19957606Y27825715D02*
X20052844Y27730477D01*
X20052844Y27730477D02*
X20243320Y27682858D01*
X20243320Y27682858D02*
X20576653Y27682858D01*
X20576653Y27682858D02*
X20767129Y27730477D01*
X20767129Y27730477D02*
X20862368Y27825715D01*
X20862368Y27825715D02*
X20909987Y27920953D01*
X20909987Y27920953D02*
X20909987Y28111429D01*
X20909987Y28111429D02*
X20862368Y28206667D01*
X20862368Y28206667D02*
X20767129Y28301905D01*
X20767129Y28301905D02*
X20576653Y28349524D01*
X20576653Y28349524D02*
X20243320Y28349524D01*
X20243320Y28349524D02*
X20052844Y28301905D01*
X20052844Y28301905D02*
X19957606Y28206667D01*
X19957606Y28206667D02*
X19909987Y28111429D01*
X19909987Y27397143D02*
X19909987Y26825715D01*
X20909987Y27111429D02*
X19909987Y27111429D01*
X22234216Y38897144D02*
X22234216Y38420954D01*
X22519931Y38992382D02*
X21519931Y38659049D01*
X21519931Y38659049D02*
X22519931Y38325716D01*
X22519931Y37992382D02*
X21853264Y37992382D01*
X22043740Y37992382D02*
X21948502Y37944763D01*
X21948502Y37944763D02*
X21900883Y37897144D01*
X21900883Y37897144D02*
X21853264Y37801906D01*
X21853264Y37801906D02*
X21853264Y37706668D01*
X22519931Y36944763D02*
X21519931Y36944763D01*
X22472312Y36944763D02*
X22519931Y37040001D01*
X22519931Y37040001D02*
X22519931Y37230477D01*
X22519931Y37230477D02*
X22472312Y37325715D01*
X22472312Y37325715D02*
X22424692Y37373334D01*
X22424692Y37373334D02*
X22329454Y37420953D01*
X22329454Y37420953D02*
X22043740Y37420953D01*
X22043740Y37420953D02*
X21948502Y37373334D01*
X21948502Y37373334D02*
X21900883Y37325715D01*
X21900883Y37325715D02*
X21853264Y37230477D01*
X21853264Y37230477D02*
X21853264Y37040001D01*
X21853264Y37040001D02*
X21900883Y36944763D01*
X21853264Y36040001D02*
X22519931Y36040001D01*
X21853264Y36468572D02*
X22377073Y36468572D01*
X22377073Y36468572D02*
X22472312Y36420953D01*
X22472312Y36420953D02*
X22519931Y36325715D01*
X22519931Y36325715D02*
X22519931Y36182858D01*
X22519931Y36182858D02*
X22472312Y36087620D01*
X22472312Y36087620D02*
X22424692Y36040001D01*
X22519931Y35563810D02*
X21853264Y35563810D01*
X21519931Y35563810D02*
X21567550Y35611429D01*
X21567550Y35611429D02*
X21615169Y35563810D01*
X21615169Y35563810D02*
X21567550Y35516191D01*
X21567550Y35516191D02*
X21519931Y35563810D01*
X21519931Y35563810D02*
X21615169Y35563810D01*
X21853264Y35087620D02*
X22519931Y35087620D01*
X21948502Y35087620D02*
X21900883Y35040001D01*
X21900883Y35040001D02*
X21853264Y34944763D01*
X21853264Y34944763D02*
X21853264Y34801906D01*
X21853264Y34801906D02*
X21900883Y34706668D01*
X21900883Y34706668D02*
X21996121Y34659049D01*
X21996121Y34659049D02*
X22519931Y34659049D01*
X22519931Y34040001D02*
X22472312Y34135239D01*
X22472312Y34135239D02*
X22424692Y34182858D01*
X22424692Y34182858D02*
X22329454Y34230477D01*
X22329454Y34230477D02*
X22043740Y34230477D01*
X22043740Y34230477D02*
X21948502Y34182858D01*
X21948502Y34182858D02*
X21900883Y34135239D01*
X21900883Y34135239D02*
X21853264Y34040001D01*
X21853264Y34040001D02*
X21853264Y33897144D01*
X21853264Y33897144D02*
X21900883Y33801906D01*
X21900883Y33801906D02*
X21948502Y33754287D01*
X21948502Y33754287D02*
X22043740Y33706668D01*
X22043740Y33706668D02*
X22329454Y33706668D01*
X22329454Y33706668D02*
X22424692Y33754287D01*
X22424692Y33754287D02*
X22472312Y33801906D01*
X22472312Y33801906D02*
X22519931Y33897144D01*
X22519931Y33897144D02*
X22519931Y34040001D01*
X22519931Y32516191D02*
X21519931Y32516191D01*
X21519931Y32516191D02*
X22234216Y32182858D01*
X22234216Y32182858D02*
X21519931Y31849525D01*
X21519931Y31849525D02*
X22519931Y31849525D01*
X22519931Y31373334D02*
X21853264Y31373334D01*
X21519931Y31373334D02*
X21567550Y31420953D01*
X21567550Y31420953D02*
X21615169Y31373334D01*
X21615169Y31373334D02*
X21567550Y31325715D01*
X21567550Y31325715D02*
X21519931Y31373334D01*
X21519931Y31373334D02*
X21615169Y31373334D01*
X22472312Y30468573D02*
X22519931Y30563811D01*
X22519931Y30563811D02*
X22519931Y30754287D01*
X22519931Y30754287D02*
X22472312Y30849525D01*
X22472312Y30849525D02*
X22424692Y30897144D01*
X22424692Y30897144D02*
X22329454Y30944763D01*
X22329454Y30944763D02*
X22043740Y30944763D01*
X22043740Y30944763D02*
X21948502Y30897144D01*
X21948502Y30897144D02*
X21900883Y30849525D01*
X21900883Y30849525D02*
X21853264Y30754287D01*
X21853264Y30754287D02*
X21853264Y30563811D01*
X21853264Y30563811D02*
X21900883Y30468573D01*
X22519931Y30040001D02*
X21853264Y30040001D01*
X22043740Y30040001D02*
X21948502Y29992382D01*
X21948502Y29992382D02*
X21900883Y29944763D01*
X21900883Y29944763D02*
X21853264Y29849525D01*
X21853264Y29849525D02*
X21853264Y29754287D01*
X22519931Y29278096D02*
X22472312Y29373334D01*
X22472312Y29373334D02*
X22424692Y29420953D01*
X22424692Y29420953D02*
X22329454Y29468572D01*
X22329454Y29468572D02*
X22043740Y29468572D01*
X22043740Y29468572D02*
X21948502Y29420953D01*
X21948502Y29420953D02*
X21900883Y29373334D01*
X21900883Y29373334D02*
X21853264Y29278096D01*
X21853264Y29278096D02*
X21853264Y29135239D01*
X21853264Y29135239D02*
X21900883Y29040001D01*
X21900883Y29040001D02*
X21948502Y28992382D01*
X21948502Y28992382D02*
X22043740Y28944763D01*
X22043740Y28944763D02*
X22329454Y28944763D01*
X22329454Y28944763D02*
X22424692Y28992382D01*
X22424692Y28992382D02*
X22472312Y29040001D01*
X22472312Y29040001D02*
X22519931Y29135239D01*
X22519931Y29135239D02*
X22519931Y29278096D01*
X22472312Y27325715D02*
X22519931Y27420953D01*
X22519931Y27420953D02*
X22519931Y27611429D01*
X22519931Y27611429D02*
X22472312Y27706667D01*
X22472312Y27706667D02*
X22424692Y27754286D01*
X22424692Y27754286D02*
X22329454Y27801905D01*
X22329454Y27801905D02*
X22043740Y27801905D01*
X22043740Y27801905D02*
X21948502Y27754286D01*
X21948502Y27754286D02*
X21900883Y27706667D01*
X21900883Y27706667D02*
X21853264Y27611429D01*
X21853264Y27611429D02*
X21853264Y27420953D01*
X21853264Y27420953D02*
X21900883Y27325715D01*
X22519931Y26468572D02*
X21996121Y26468572D01*
X21996121Y26468572D02*
X21900883Y26516191D01*
X21900883Y26516191D02*
X21853264Y26611429D01*
X21853264Y26611429D02*
X21853264Y26801905D01*
X21853264Y26801905D02*
X21900883Y26897143D01*
X22472312Y26468572D02*
X22519931Y26563810D01*
X22519931Y26563810D02*
X22519931Y26801905D01*
X22519931Y26801905D02*
X22472312Y26897143D01*
X22472312Y26897143D02*
X22377073Y26944762D01*
X22377073Y26944762D02*
X22281835Y26944762D01*
X22281835Y26944762D02*
X22186597Y26897143D01*
X22186597Y26897143D02*
X22138978Y26801905D01*
X22138978Y26801905D02*
X22138978Y26563810D01*
X22138978Y26563810D02*
X22091359Y26468572D01*
X22519931Y25992381D02*
X21853264Y25992381D01*
X22043740Y25992381D02*
X21948502Y25944762D01*
X21948502Y25944762D02*
X21900883Y25897143D01*
X21900883Y25897143D02*
X21853264Y25801905D01*
X21853264Y25801905D02*
X21853264Y25706667D01*
X22519931Y25373333D02*
X21853264Y25373333D01*
X22043740Y25373333D02*
X21948502Y25325714D01*
X21948502Y25325714D02*
X21900883Y25278095D01*
X21900883Y25278095D02*
X21853264Y25182857D01*
X21853264Y25182857D02*
X21853264Y25087619D01*
X22519931Y24754285D02*
X21853264Y24754285D01*
X21519931Y24754285D02*
X21567550Y24801904D01*
X21567550Y24801904D02*
X21615169Y24754285D01*
X21615169Y24754285D02*
X21567550Y24706666D01*
X21567550Y24706666D02*
X21519931Y24754285D01*
X21519931Y24754285D02*
X21615169Y24754285D01*
X22472312Y23897143D02*
X22519931Y23992381D01*
X22519931Y23992381D02*
X22519931Y24182857D01*
X22519931Y24182857D02*
X22472312Y24278095D01*
X22472312Y24278095D02*
X22377073Y24325714D01*
X22377073Y24325714D02*
X21996121Y24325714D01*
X21996121Y24325714D02*
X21900883Y24278095D01*
X21900883Y24278095D02*
X21853264Y24182857D01*
X21853264Y24182857D02*
X21853264Y23992381D01*
X21853264Y23992381D02*
X21900883Y23897143D01*
X21900883Y23897143D02*
X21996121Y23849524D01*
X21996121Y23849524D02*
X22091359Y23849524D01*
X22091359Y23849524D02*
X22186597Y24325714D01*
X22519931Y23420952D02*
X21853264Y23420952D01*
X22043740Y23420952D02*
X21948502Y23373333D01*
X21948502Y23373333D02*
X21900883Y23325714D01*
X21900883Y23325714D02*
X21853264Y23230476D01*
X21853264Y23230476D02*
X21853264Y23135238D01*
X22472312Y21611428D02*
X22519931Y21706666D01*
X22519931Y21706666D02*
X22519931Y21897142D01*
X22519931Y21897142D02*
X22472312Y21992380D01*
X22472312Y21992380D02*
X22424692Y22039999D01*
X22424692Y22039999D02*
X22329454Y22087618D01*
X22329454Y22087618D02*
X22043740Y22087618D01*
X22043740Y22087618D02*
X21948502Y22039999D01*
X21948502Y22039999D02*
X21900883Y21992380D01*
X21900883Y21992380D02*
X21853264Y21897142D01*
X21853264Y21897142D02*
X21853264Y21706666D01*
X21853264Y21706666D02*
X21900883Y21611428D01*
X22519931Y20754285D02*
X21996121Y20754285D01*
X21996121Y20754285D02*
X21900883Y20801904D01*
X21900883Y20801904D02*
X21853264Y20897142D01*
X21853264Y20897142D02*
X21853264Y21087618D01*
X21853264Y21087618D02*
X21900883Y21182856D01*
X22472312Y20754285D02*
X22519931Y20849523D01*
X22519931Y20849523D02*
X22519931Y21087618D01*
X22519931Y21087618D02*
X22472312Y21182856D01*
X22472312Y21182856D02*
X22377073Y21230475D01*
X22377073Y21230475D02*
X22281835Y21230475D01*
X22281835Y21230475D02*
X22186597Y21182856D01*
X22186597Y21182856D02*
X22138978Y21087618D01*
X22138978Y21087618D02*
X22138978Y20849523D01*
X22138978Y20849523D02*
X22091359Y20754285D01*
X22519931Y20278094D02*
X21853264Y20278094D01*
X22043740Y20278094D02*
X21948502Y20230475D01*
X21948502Y20230475D02*
X21900883Y20182856D01*
X21900883Y20182856D02*
X21853264Y20087618D01*
X21853264Y20087618D02*
X21853264Y19992380D01*
X22519931Y19230475D02*
X21519931Y19230475D01*
X22472312Y19230475D02*
X22519931Y19325713D01*
X22519931Y19325713D02*
X22519931Y19516189D01*
X22519931Y19516189D02*
X22472312Y19611427D01*
X22472312Y19611427D02*
X22424692Y19659046D01*
X22424692Y19659046D02*
X22329454Y19706665D01*
X22329454Y19706665D02*
X22043740Y19706665D01*
X22043740Y19706665D02*
X21948502Y19659046D01*
X21948502Y19659046D02*
X21900883Y19611427D01*
X21900883Y19611427D02*
X21853264Y19516189D01*
X21853264Y19516189D02*
X21853264Y19325713D01*
X21853264Y19325713D02*
X21900883Y19230475D01*
X23844160Y43635240D02*
X23844160Y43159050D01*
X24129875Y43730478D02*
X23129875Y43397145D01*
X23129875Y43397145D02*
X24129875Y43063812D01*
X24129875Y42301907D02*
X23129875Y42301907D01*
X24082256Y42301907D02*
X24129875Y42397145D01*
X24129875Y42397145D02*
X24129875Y42587621D01*
X24129875Y42587621D02*
X24082256Y42682859D01*
X24082256Y42682859D02*
X24034636Y42730478D01*
X24034636Y42730478D02*
X23939398Y42778097D01*
X23939398Y42778097D02*
X23653684Y42778097D01*
X23653684Y42778097D02*
X23558446Y42730478D01*
X23558446Y42730478D02*
X23510827Y42682859D01*
X23510827Y42682859D02*
X23463208Y42587621D01*
X23463208Y42587621D02*
X23463208Y42397145D01*
X23463208Y42397145D02*
X23510827Y42301907D01*
X23463208Y41920954D02*
X24129875Y41682859D01*
X24129875Y41682859D02*
X23463208Y41444764D01*
X24129875Y40635240D02*
X23606065Y40635240D01*
X23606065Y40635240D02*
X23510827Y40682859D01*
X23510827Y40682859D02*
X23463208Y40778097D01*
X23463208Y40778097D02*
X23463208Y40968573D01*
X23463208Y40968573D02*
X23510827Y41063811D01*
X24082256Y40635240D02*
X24129875Y40730478D01*
X24129875Y40730478D02*
X24129875Y40968573D01*
X24129875Y40968573D02*
X24082256Y41063811D01*
X24082256Y41063811D02*
X23987017Y41111430D01*
X23987017Y41111430D02*
X23891779Y41111430D01*
X23891779Y41111430D02*
X23796541Y41063811D01*
X23796541Y41063811D02*
X23748922Y40968573D01*
X23748922Y40968573D02*
X23748922Y40730478D01*
X23748922Y40730478D02*
X23701303Y40635240D01*
X23463208Y40159049D02*
X24129875Y40159049D01*
X23558446Y40159049D02*
X23510827Y40111430D01*
X23510827Y40111430D02*
X23463208Y40016192D01*
X23463208Y40016192D02*
X23463208Y39873335D01*
X23463208Y39873335D02*
X23510827Y39778097D01*
X23510827Y39778097D02*
X23606065Y39730478D01*
X23606065Y39730478D02*
X24129875Y39730478D01*
X24129875Y38825716D02*
X23129875Y38825716D01*
X24082256Y38825716D02*
X24129875Y38920954D01*
X24129875Y38920954D02*
X24129875Y39111430D01*
X24129875Y39111430D02*
X24082256Y39206668D01*
X24082256Y39206668D02*
X24034636Y39254287D01*
X24034636Y39254287D02*
X23939398Y39301906D01*
X23939398Y39301906D02*
X23653684Y39301906D01*
X23653684Y39301906D02*
X23558446Y39254287D01*
X23558446Y39254287D02*
X23510827Y39206668D01*
X23510827Y39206668D02*
X23463208Y39111430D01*
X23463208Y39111430D02*
X23463208Y38920954D01*
X23463208Y38920954D02*
X23510827Y38825716D01*
X24082256Y37968573D02*
X24129875Y38063811D01*
X24129875Y38063811D02*
X24129875Y38254287D01*
X24129875Y38254287D02*
X24082256Y38349525D01*
X24082256Y38349525D02*
X23987017Y38397144D01*
X23987017Y38397144D02*
X23606065Y38397144D01*
X23606065Y38397144D02*
X23510827Y38349525D01*
X23510827Y38349525D02*
X23463208Y38254287D01*
X23463208Y38254287D02*
X23463208Y38063811D01*
X23463208Y38063811D02*
X23510827Y37968573D01*
X23510827Y37968573D02*
X23606065Y37920954D01*
X23606065Y37920954D02*
X23701303Y37920954D01*
X23701303Y37920954D02*
X23796541Y38397144D01*
X24129875Y37063811D02*
X23129875Y37063811D01*
X24082256Y37063811D02*
X24129875Y37159049D01*
X24129875Y37159049D02*
X24129875Y37349525D01*
X24129875Y37349525D02*
X24082256Y37444763D01*
X24082256Y37444763D02*
X24034636Y37492382D01*
X24034636Y37492382D02*
X23939398Y37540001D01*
X23939398Y37540001D02*
X23653684Y37540001D01*
X23653684Y37540001D02*
X23558446Y37492382D01*
X23558446Y37492382D02*
X23510827Y37444763D01*
X23510827Y37444763D02*
X23463208Y37349525D01*
X23463208Y37349525D02*
X23463208Y37159049D01*
X23463208Y37159049D02*
X23510827Y37063811D01*
X23606065Y35825715D02*
X23606065Y35492382D01*
X24129875Y35349525D02*
X24129875Y35825715D01*
X24129875Y35825715D02*
X23129875Y35825715D01*
X23129875Y35825715D02*
X23129875Y35349525D01*
X24129875Y34778096D02*
X24082256Y34873334D01*
X24082256Y34873334D02*
X23987017Y34920953D01*
X23987017Y34920953D02*
X23129875Y34920953D01*
X24082256Y34016191D02*
X24129875Y34111429D01*
X24129875Y34111429D02*
X24129875Y34301905D01*
X24129875Y34301905D02*
X24082256Y34397143D01*
X24082256Y34397143D02*
X23987017Y34444762D01*
X23987017Y34444762D02*
X23606065Y34444762D01*
X23606065Y34444762D02*
X23510827Y34397143D01*
X23510827Y34397143D02*
X23463208Y34301905D01*
X23463208Y34301905D02*
X23463208Y34111429D01*
X23463208Y34111429D02*
X23510827Y34016191D01*
X23510827Y34016191D02*
X23606065Y33968572D01*
X23606065Y33968572D02*
X23701303Y33968572D01*
X23701303Y33968572D02*
X23796541Y34444762D01*
X24082256Y33111429D02*
X24129875Y33206667D01*
X24129875Y33206667D02*
X24129875Y33397143D01*
X24129875Y33397143D02*
X24082256Y33492381D01*
X24082256Y33492381D02*
X24034636Y33540000D01*
X24034636Y33540000D02*
X23939398Y33587619D01*
X23939398Y33587619D02*
X23653684Y33587619D01*
X23653684Y33587619D02*
X23558446Y33540000D01*
X23558446Y33540000D02*
X23510827Y33492381D01*
X23510827Y33492381D02*
X23463208Y33397143D01*
X23463208Y33397143D02*
X23463208Y33206667D01*
X23463208Y33206667D02*
X23510827Y33111429D01*
X23463208Y32825714D02*
X23463208Y32444762D01*
X23129875Y32682857D02*
X23987017Y32682857D01*
X23987017Y32682857D02*
X24082256Y32635238D01*
X24082256Y32635238D02*
X24129875Y32540000D01*
X24129875Y32540000D02*
X24129875Y32444762D01*
X24129875Y32111428D02*
X23463208Y32111428D01*
X23653684Y32111428D02*
X23558446Y32063809D01*
X23558446Y32063809D02*
X23510827Y32016190D01*
X23510827Y32016190D02*
X23463208Y31920952D01*
X23463208Y31920952D02*
X23463208Y31825714D01*
X24129875Y31349523D02*
X24082256Y31444761D01*
X24082256Y31444761D02*
X24034636Y31492380D01*
X24034636Y31492380D02*
X23939398Y31539999D01*
X23939398Y31539999D02*
X23653684Y31539999D01*
X23653684Y31539999D02*
X23558446Y31492380D01*
X23558446Y31492380D02*
X23510827Y31444761D01*
X23510827Y31444761D02*
X23463208Y31349523D01*
X23463208Y31349523D02*
X23463208Y31206666D01*
X23463208Y31206666D02*
X23510827Y31111428D01*
X23510827Y31111428D02*
X23558446Y31063809D01*
X23558446Y31063809D02*
X23653684Y31016190D01*
X23653684Y31016190D02*
X23939398Y31016190D01*
X23939398Y31016190D02*
X24034636Y31063809D01*
X24034636Y31063809D02*
X24082256Y31111428D01*
X24082256Y31111428D02*
X24129875Y31206666D01*
X24129875Y31206666D02*
X24129875Y31349523D01*
X23463208Y30587618D02*
X24129875Y30587618D01*
X23558446Y30587618D02*
X23510827Y30539999D01*
X23510827Y30539999D02*
X23463208Y30444761D01*
X23463208Y30444761D02*
X23463208Y30301904D01*
X23463208Y30301904D02*
X23510827Y30206666D01*
X23510827Y30206666D02*
X23606065Y30159047D01*
X23606065Y30159047D02*
X24129875Y30159047D01*
X24129875Y29682856D02*
X23463208Y29682856D01*
X23129875Y29682856D02*
X23177494Y29730475D01*
X23177494Y29730475D02*
X23225113Y29682856D01*
X23225113Y29682856D02*
X23177494Y29635237D01*
X23177494Y29635237D02*
X23129875Y29682856D01*
X23129875Y29682856D02*
X23225113Y29682856D01*
X24082256Y28778095D02*
X24129875Y28873333D01*
X24129875Y28873333D02*
X24129875Y29063809D01*
X24129875Y29063809D02*
X24082256Y29159047D01*
X24082256Y29159047D02*
X24034636Y29206666D01*
X24034636Y29206666D02*
X23939398Y29254285D01*
X23939398Y29254285D02*
X23653684Y29254285D01*
X23653684Y29254285D02*
X23558446Y29206666D01*
X23558446Y29206666D02*
X23510827Y29159047D01*
X23510827Y29159047D02*
X23463208Y29063809D01*
X23463208Y29063809D02*
X23463208Y28873333D01*
X23463208Y28873333D02*
X23510827Y28778095D01*
X24082256Y28397142D02*
X24129875Y28301904D01*
X24129875Y28301904D02*
X24129875Y28111428D01*
X24129875Y28111428D02*
X24082256Y28016190D01*
X24082256Y28016190D02*
X23987017Y27968571D01*
X23987017Y27968571D02*
X23939398Y27968571D01*
X23939398Y27968571D02*
X23844160Y28016190D01*
X23844160Y28016190D02*
X23796541Y28111428D01*
X23796541Y28111428D02*
X23796541Y28254285D01*
X23796541Y28254285D02*
X23748922Y28349523D01*
X23748922Y28349523D02*
X23653684Y28397142D01*
X23653684Y28397142D02*
X23606065Y28397142D01*
X23606065Y28397142D02*
X23510827Y28349523D01*
X23510827Y28349523D02*
X23463208Y28254285D01*
X23463208Y28254285D02*
X23463208Y28111428D01*
X23463208Y28111428D02*
X23510827Y28016190D01*
X23844160Y26825713D02*
X23844160Y26349523D01*
X24129875Y26920951D02*
X23129875Y26587618D01*
X23129875Y26587618D02*
X24129875Y26254285D01*
X23606065Y25920951D02*
X23606065Y25587618D01*
X24129875Y25444761D02*
X24129875Y25920951D01*
X24129875Y25920951D02*
X23129875Y25920951D01*
X23129875Y25920951D02*
X23129875Y25444761D01*
X23129875Y24825713D02*
X23129875Y24730475D01*
X23129875Y24730475D02*
X23177494Y24635237D01*
X23177494Y24635237D02*
X23225113Y24587618D01*
X23225113Y24587618D02*
X23320351Y24539999D01*
X23320351Y24539999D02*
X23510827Y24492380D01*
X23510827Y24492380D02*
X23748922Y24492380D01*
X23748922Y24492380D02*
X23939398Y24539999D01*
X23939398Y24539999D02*
X24034636Y24587618D01*
X24034636Y24587618D02*
X24082256Y24635237D01*
X24082256Y24635237D02*
X24129875Y24730475D01*
X24129875Y24730475D02*
X24129875Y24825713D01*
X24129875Y24825713D02*
X24082256Y24920951D01*
X24082256Y24920951D02*
X24034636Y24968570D01*
X24034636Y24968570D02*
X23939398Y25016189D01*
X23939398Y25016189D02*
X23748922Y25063808D01*
X23748922Y25063808D02*
X23510827Y25063808D01*
X23510827Y25063808D02*
X23320351Y25016189D01*
X23320351Y25016189D02*
X23225113Y24968570D01*
X23225113Y24968570D02*
X23177494Y24920951D01*
X23177494Y24920951D02*
X23129875Y24825713D01*
X23129875Y23873332D02*
X23129875Y23778094D01*
X23129875Y23778094D02*
X23177494Y23682856D01*
X23177494Y23682856D02*
X23225113Y23635237D01*
X23225113Y23635237D02*
X23320351Y23587618D01*
X23320351Y23587618D02*
X23510827Y23539999D01*
X23510827Y23539999D02*
X23748922Y23539999D01*
X23748922Y23539999D02*
X23939398Y23587618D01*
X23939398Y23587618D02*
X24034636Y23635237D01*
X24034636Y23635237D02*
X24082256Y23682856D01*
X24082256Y23682856D02*
X24129875Y23778094D01*
X24129875Y23778094D02*
X24129875Y23873332D01*
X24129875Y23873332D02*
X24082256Y23968570D01*
X24082256Y23968570D02*
X24034636Y24016189D01*
X24034636Y24016189D02*
X23939398Y24063808D01*
X23939398Y24063808D02*
X23748922Y24111427D01*
X23748922Y24111427D02*
X23510827Y24111427D01*
X23510827Y24111427D02*
X23320351Y24063808D01*
X23320351Y24063808D02*
X23225113Y24016189D01*
X23225113Y24016189D02*
X23177494Y23968570D01*
X23177494Y23968570D02*
X23129875Y23873332D01*
X24034636Y22539999D02*
X24082256Y22587618D01*
X24082256Y22587618D02*
X24129875Y22730475D01*
X24129875Y22730475D02*
X24129875Y22825713D01*
X24129875Y22825713D02*
X24082256Y22968570D01*
X24082256Y22968570D02*
X23987017Y23063808D01*
X23987017Y23063808D02*
X23891779Y23111427D01*
X23891779Y23111427D02*
X23701303Y23159046D01*
X23701303Y23159046D02*
X23558446Y23159046D01*
X23558446Y23159046D02*
X23367970Y23111427D01*
X23367970Y23111427D02*
X23272732Y23063808D01*
X23272732Y23063808D02*
X23177494Y22968570D01*
X23177494Y22968570D02*
X23129875Y22825713D01*
X23129875Y22825713D02*
X23129875Y22730475D01*
X23129875Y22730475D02*
X23177494Y22587618D01*
X23177494Y22587618D02*
X23225113Y22539999D01*
X24129875Y22111427D02*
X23129875Y22111427D01*
X23129875Y22111427D02*
X23844160Y21778094D01*
X23844160Y21778094D02*
X23129875Y21444761D01*
X23129875Y21444761D02*
X24129875Y21444761D01*
X23558446Y20825713D02*
X23510827Y20920951D01*
X23510827Y20920951D02*
X23463208Y20968570D01*
X23463208Y20968570D02*
X23367970Y21016189D01*
X23367970Y21016189D02*
X23320351Y21016189D01*
X23320351Y21016189D02*
X23225113Y20968570D01*
X23225113Y20968570D02*
X23177494Y20920951D01*
X23177494Y20920951D02*
X23129875Y20825713D01*
X23129875Y20825713D02*
X23129875Y20635237D01*
X23129875Y20635237D02*
X23177494Y20539999D01*
X23177494Y20539999D02*
X23225113Y20492380D01*
X23225113Y20492380D02*
X23320351Y20444761D01*
X23320351Y20444761D02*
X23367970Y20444761D01*
X23367970Y20444761D02*
X23463208Y20492380D01*
X23463208Y20492380D02*
X23510827Y20539999D01*
X23510827Y20539999D02*
X23558446Y20635237D01*
X23558446Y20635237D02*
X23558446Y20825713D01*
X23558446Y20825713D02*
X23606065Y20920951D01*
X23606065Y20920951D02*
X23653684Y20968570D01*
X23653684Y20968570D02*
X23748922Y21016189D01*
X23748922Y21016189D02*
X23939398Y21016189D01*
X23939398Y21016189D02*
X24034636Y20968570D01*
X24034636Y20968570D02*
X24082256Y20920951D01*
X24082256Y20920951D02*
X24129875Y20825713D01*
X24129875Y20825713D02*
X24129875Y20635237D01*
X24129875Y20635237D02*
X24082256Y20539999D01*
X24082256Y20539999D02*
X24034636Y20492380D01*
X24034636Y20492380D02*
X23939398Y20444761D01*
X23939398Y20444761D02*
X23748922Y20444761D01*
X23748922Y20444761D02*
X23653684Y20492380D01*
X23653684Y20492380D02*
X23606065Y20539999D01*
X23606065Y20539999D02*
X23558446Y20635237D01*
X24129875Y19492380D02*
X24129875Y20063808D01*
X24129875Y19778094D02*
X23129875Y19778094D01*
X23129875Y19778094D02*
X23272732Y19873332D01*
X23272732Y19873332D02*
X23367970Y19968570D01*
X23367970Y19968570D02*
X23415589Y20063808D01*
X23748922Y19063808D02*
X23748922Y18301903D01*
X23129875Y17920951D02*
X23129875Y17301904D01*
X23129875Y17301904D02*
X23510827Y17635237D01*
X23510827Y17635237D02*
X23510827Y17492380D01*
X23510827Y17492380D02*
X23558446Y17397142D01*
X23558446Y17397142D02*
X23606065Y17349523D01*
X23606065Y17349523D02*
X23701303Y17301904D01*
X23701303Y17301904D02*
X23939398Y17301904D01*
X23939398Y17301904D02*
X24034636Y17349523D01*
X24034636Y17349523D02*
X24082256Y17397142D01*
X24082256Y17397142D02*
X24129875Y17492380D01*
X24129875Y17492380D02*
X24129875Y17778094D01*
X24129875Y17778094D02*
X24082256Y17873332D01*
X24082256Y17873332D02*
X24034636Y17920951D01*
X23129875Y16682856D02*
X23129875Y16587618D01*
X23129875Y16587618D02*
X23177494Y16492380D01*
X23177494Y16492380D02*
X23225113Y16444761D01*
X23225113Y16444761D02*
X23320351Y16397142D01*
X23320351Y16397142D02*
X23510827Y16349523D01*
X23510827Y16349523D02*
X23748922Y16349523D01*
X23748922Y16349523D02*
X23939398Y16397142D01*
X23939398Y16397142D02*
X24034636Y16444761D01*
X24034636Y16444761D02*
X24082256Y16492380D01*
X24082256Y16492380D02*
X24129875Y16587618D01*
X24129875Y16587618D02*
X24129875Y16682856D01*
X24129875Y16682856D02*
X24082256Y16778094D01*
X24082256Y16778094D02*
X24034636Y16825713D01*
X24034636Y16825713D02*
X23939398Y16873332D01*
X23939398Y16873332D02*
X23748922Y16920951D01*
X23748922Y16920951D02*
X23510827Y16920951D01*
X23510827Y16920951D02*
X23320351Y16873332D01*
X23320351Y16873332D02*
X23225113Y16825713D01*
X23225113Y16825713D02*
X23177494Y16778094D01*
X23177494Y16778094D02*
X23129875Y16682856D01*
X23129875Y15730475D02*
X23129875Y15635237D01*
X23129875Y15635237D02*
X23177494Y15539999D01*
X23177494Y15539999D02*
X23225113Y15492380D01*
X23225113Y15492380D02*
X23320351Y15444761D01*
X23320351Y15444761D02*
X23510827Y15397142D01*
X23510827Y15397142D02*
X23748922Y15397142D01*
X23748922Y15397142D02*
X23939398Y15444761D01*
X23939398Y15444761D02*
X24034636Y15492380D01*
X24034636Y15492380D02*
X24082256Y15539999D01*
X24082256Y15539999D02*
X24129875Y15635237D01*
X24129875Y15635237D02*
X24129875Y15730475D01*
X24129875Y15730475D02*
X24082256Y15825713D01*
X24082256Y15825713D02*
X24034636Y15873332D01*
X24034636Y15873332D02*
X23939398Y15920951D01*
X23939398Y15920951D02*
X23748922Y15968570D01*
X23748922Y15968570D02*
X23510827Y15968570D01*
X23510827Y15968570D02*
X23320351Y15920951D01*
X23320351Y15920951D02*
X23225113Y15873332D01*
X23225113Y15873332D02*
X23177494Y15825713D01*
X23177494Y15825713D02*
X23129875Y15730475D01*
X23129875Y15063808D02*
X23129875Y14397142D01*
X23129875Y14397142D02*
X24129875Y14825713D01*
X25073152Y30468571D02*
X25739819Y30230476D01*
X25739819Y30230476D02*
X25073152Y29992381D01*
X25739819Y29087619D02*
X25739819Y29659047D01*
X25739819Y29373333D02*
X24739819Y29373333D01*
X24739819Y29373333D02*
X24882676Y29468571D01*
X24882676Y29468571D02*
X24977914Y29563809D01*
X24977914Y29563809D02*
X25025533Y29659047D01*
X25644580Y28659047D02*
X25692200Y28611428D01*
X25692200Y28611428D02*
X25739819Y28659047D01*
X25739819Y28659047D02*
X25692200Y28706666D01*
X25692200Y28706666D02*
X25644580Y28659047D01*
X25644580Y28659047D02*
X25739819Y28659047D01*
X25739819Y27659048D02*
X25739819Y28230476D01*
X25739819Y27944762D02*
X24739819Y27944762D01*
X24739819Y27944762D02*
X24882676Y28040000D01*
X24882676Y28040000D02*
X24977914Y28135238D01*
X24977914Y28135238D02*
X25025533Y28230476D01*
%LPC*%
D11*
%TO.C,U1*%
X14110000Y50790000D03*
D12*
X16650000Y50790000D03*
X19190000Y50790000D03*
X21730000Y50790000D03*
X24270000Y50790000D03*
X26810000Y50790000D03*
X29350000Y50790000D03*
X31890000Y50790000D03*
X31890000Y58410000D03*
X29350000Y58410000D03*
X26810000Y58410000D03*
X24270000Y58410000D03*
X21730000Y58410000D03*
X19190000Y58410000D03*
X16650000Y58410000D03*
X14110000Y58410000D03*
%TD*%
D13*
%TO.C,J3*%
X25475000Y67060000D03*
D14*
X20395000Y67060000D03*
%TD*%
D12*
%TO.C,C2*%
X14110000Y62100000D03*
X11610000Y62100000D03*
%TD*%
%TO.C,R6*%
X19215000Y43340000D03*
X26835000Y43340000D03*
%TD*%
D15*
%TO.C,J4*%
X30620000Y2440000D03*
D16*
X30620000Y4980000D03*
X30620000Y7520000D03*
X30620000Y10060000D03*
X30620000Y12600000D03*
X30620000Y15140000D03*
X30620000Y17680000D03*
X30620000Y20220000D03*
X30620000Y22760000D03*
X30620000Y25300000D03*
X30620000Y27840000D03*
X30620000Y30380000D03*
X30620000Y32920000D03*
X30620000Y35460000D03*
X30620000Y38000000D03*
X30620000Y40540000D03*
X30620000Y43080000D03*
%TD*%
D17*
%TO.C,D1*%
X3450000Y2580000D03*
D18*
X3450000Y5120000D03*
%TD*%
D17*
%TO.C,D2*%
X42750000Y2580000D03*
D18*
X42750000Y5120000D03*
%TD*%
D12*
%TO.C,R2*%
X37580000Y9310000D03*
X37580000Y1690000D03*
%TD*%
%TO.C,R3*%
X34210000Y9310000D03*
X34210000Y1690000D03*
%TD*%
D19*
%TO.C,H3*%
X6000000Y14000000D03*
%TD*%
D12*
%TO.C,R7*%
X19215000Y40140000D03*
X26835000Y40140000D03*
%TD*%
D20*
%TO.C,J2*%
X4940000Y56890000D03*
D14*
X4940000Y51810000D03*
X4940000Y46730000D03*
X4940000Y41650000D03*
X4940000Y36570000D03*
X4940000Y31490000D03*
%TD*%
D21*
%TO.C,J1*%
X41060000Y31490000D03*
D14*
X41060000Y36570000D03*
X41060000Y41650000D03*
X41060000Y46730000D03*
X41060000Y51810000D03*
X41060000Y56890000D03*
%TD*%
D15*
%TO.C,J6*%
X7720000Y20221750D03*
D16*
X5180000Y20221750D03*
X7720000Y22761750D03*
X5180000Y22761750D03*
X7720000Y25301750D03*
X5180000Y25301750D03*
%TD*%
D22*
%TO.C,C4*%
X34412380Y64850000D03*
D12*
X31912380Y64850000D03*
%TD*%
D19*
%TO.C,H1*%
X6000000Y68000000D03*
%TD*%
%TO.C,H4*%
X40000000Y14000000D03*
%TD*%
D12*
%TO.C,C1*%
X26700000Y10110000D03*
X26700000Y7610000D03*
%TD*%
%TO.C,R8*%
X11730000Y1690000D03*
X11730000Y9310000D03*
%TD*%
%TO.C,R5*%
X37560000Y26670000D03*
X37560000Y19050000D03*
%TD*%
D22*
%TO.C,C5*%
X14110000Y67100000D03*
D12*
X12110000Y67100000D03*
%TD*%
%TO.C,R1*%
X34210000Y26670000D03*
X34210000Y19050000D03*
%TD*%
%TO.C,C3*%
X31890000Y47200000D03*
X29390000Y47200000D03*
%TD*%
%TO.C,R4*%
X8520000Y9310000D03*
X8520000Y1690000D03*
%TD*%
D15*
%TO.C,J5*%
X15380000Y2440000D03*
D16*
X15380000Y4980000D03*
X15380000Y7520000D03*
X15380000Y10060000D03*
X15380000Y12600000D03*
X15380000Y15140000D03*
X15380000Y17680000D03*
X15380000Y20220000D03*
X15380000Y22760000D03*
X15380000Y25300000D03*
X15380000Y27840000D03*
X15380000Y30380000D03*
X15380000Y32920000D03*
X15380000Y35460000D03*
X15380000Y38000000D03*
X15380000Y40540000D03*
X15380000Y43080000D03*
%TD*%
D19*
%TO.C,H2*%
X40000000Y68000000D03*
%TD*%
%LPD*%
M02*
